<svg width="210" height="210" viewBox="0 0 210 210" fill="none" xmlns="http://www.w3.org/2000/svg">
<path d="M18.2874 168.77V170.291H25.2034C23.8774 174.217 21.5504 175.894 19.3014 176.947L20.7184 178.091C21.9144 177.441 24.8134 175.855 26.5164 171.383C26.9714 170.174 27.0234 170.044 27.3484 169.732L26.0614 168.562C25.9314 168.666 25.7884 168.77 25.6324 168.77H18.2874ZM34.4263 173.138H36.4933V171.994H34.4003L34.3743 170.512C34.4393 170.46 34.5823 170.343 34.5823 170.239C34.5823 170.096 34.3483 170.057 34.2573 170.044L33.0873 169.953L33.1263 171.994H29.1873V173.138H32.5803C32.3463 173.463 30.9553 175.439 28.7973 176.388L29.7333 177.285C31.6183 176.245 32.7753 174.789 33.1783 174.282L33.2433 177.116C33.2433 177.285 33.0613 177.389 32.5153 177.389C32.3073 177.389 32.1773 177.376 31.8393 177.35L32.3463 178.611C32.4243 178.624 32.7233 178.637 32.9443 178.637C33.5813 178.637 34.5173 178.416 34.5043 177.519L34.4263 173.138ZM48.2873 168.978H39.2783V177.48H40.8253V176.973H46.7403V177.532H48.2873V168.978ZM40.8253 175.504V170.447H46.7403V175.504H40.8253ZM59.8097 172.228H50.5797V173.879H59.8097V172.228ZM68.6036 173.775C67.2906 176.362 65.4966 176.726 64.8596 176.726C63.4686 176.726 63.4686 175.673 63.4686 173.879C63.4686 172.592 63.7026 168.796 63.8586 168.653C63.9756 168.549 64.1966 168.367 64.1966 168.302C64.1966 168.198 64.0146 168.133 63.7676 168.094L62.0386 167.847C62.0776 168.718 61.9736 172.579 61.9736 173.372C61.9736 176.141 62.1036 177.103 62.7926 177.688C63.2476 178.065 63.8976 178.351 64.6906 178.351C66.7576 178.351 68.3826 176.947 69.8776 174.828L68.6036 173.775ZM80.6905 167.925C78.1555 168.666 74.2685 169.108 71.2135 169.134L71.4735 170.668C73.0205 170.382 75.6335 170.174 76.4265 170.109C75.8155 170.681 73.9045 172.475 73.9045 174.698C73.9045 177.597 77.1545 178.273 78.2075 178.494L78.6625 176.856C75.4385 176.752 75.4385 174.646 75.4385 174.412C75.4385 173.229 76.3095 172.02 77.1155 171.24C78.7535 169.628 80.1575 169.524 80.6905 169.485V167.925ZM93.6791 174.503V171.838H87.2701V174.438H88.5441V173.021H92.4051V174.503H93.6791ZM93.7961 176.414L92.5611 175.933C92.5351 176.505 92.5091 177.246 92.1841 177.246H91.9501C91.7551 177.246 91.6901 177.103 91.6901 176.895V174.204C91.6901 174.087 91.7551 174.022 91.8201 173.957C91.8981 173.866 91.9371 173.814 91.9371 173.749C91.9371 173.593 91.6121 173.567 91.5341 173.567L90.3641 173.502V177.818C90.3641 178.403 90.5591 178.611 91.0271 178.611H92.4701C93.3801 178.611 93.5751 178.052 93.7961 176.414ZM87.3221 176.284C87.0751 175.452 87.0101 174.802 86.9971 174.139L85.8271 174.204C85.8401 174.984 85.9181 175.725 86.1521 176.635L87.3221 176.284ZM93.7961 169.628V168.432H91.0271V168.094C91.0271 168.029 91.0791 167.964 91.1571 167.886C91.2481 167.782 91.2611 167.743 91.2611 167.691C91.2611 167.535 91.0921 167.522 90.8321 167.509L89.4671 167.444V168.432H87.0881V169.628H89.4671V170.187H87.7901V171.383H92.8601V170.187H91.0271V169.628H93.7961ZM90.2861 173.866C90.2861 173.71 89.9741 173.697 89.8831 173.684L88.7781 173.593C88.8431 176.154 88.0631 176.999 86.5681 177.545L87.4391 178.663C88.0371 178.377 89.3111 177.753 89.8571 175.894C90.0131 175.387 90.0521 174.62 90.0521 174.347C90.0651 174.217 90.0911 174.152 90.1821 174.048C90.2471 173.97 90.2861 173.944 90.2861 173.866ZM87.2441 173.541C87.0881 172.644 86.8671 171.89 86.7241 171.422L85.5281 171.63C85.6451 172.02 85.6581 172.059 85.7231 172.306H84.9821C85.3981 171.76 85.7621 171.279 86.4771 170.278C86.6461 170.031 86.6721 170.005 86.9711 169.953C87.0101 169.953 87.1011 169.94 87.1011 169.823C87.1011 169.667 86.8411 169.55 86.7761 169.511L85.8141 169.043C85.3201 169.719 85.2291 169.875 84.9561 170.252C84.9301 170.226 84.7221 170.057 84.6831 170.018C85.1381 169.329 85.2031 169.251 85.6321 168.497C85.7621 168.276 85.7621 168.263 85.9701 168.25C86.0871 168.237 86.2041 168.237 86.2041 168.107C86.2041 168.029 86.1391 167.951 85.9311 167.86L84.9431 167.392C84.4621 168.354 84.0721 168.939 83.8251 169.316C83.5781 169.121 83.4221 169.017 83.2921 168.939L82.5121 169.966C83.0191 170.291 83.3831 170.59 84.2151 171.318C83.8381 171.864 83.7341 172.007 83.5261 172.306C83.1361 172.293 82.8501 172.28 82.4991 172.254L82.5641 173.463C82.5771 173.71 82.6031 173.827 82.7071 173.827C82.7721 173.827 82.7721 173.814 82.8761 173.684C82.9411 173.593 83.0061 173.58 83.1621 173.567C83.5261 173.554 83.5781 173.554 84.1891 173.502V178.637H85.5281V173.372C85.6321 173.359 85.7751 173.346 85.9701 173.32C85.9961 173.476 86.0221 173.606 86.0481 173.762L87.2441 173.541ZM83.7991 174.165L82.8241 174.074C82.7201 175.842 82.4731 176.557 82.3041 177.077L83.5391 177.168C83.7731 176.167 83.8121 175.595 83.8511 174.867C83.8641 174.685 83.8641 174.62 84.0461 174.516C84.1501 174.451 84.1761 174.412 84.1761 174.347C84.1761 174.204 84.0721 174.191 83.7991 174.165ZM107.173 177.714C106.523 177.324 106.198 177.025 105.704 176.427C106.159 175.556 106.497 174.763 106.965 173.021L106.432 172.345H103.156V169.082H105.184V170.395C105.184 170.616 105.041 170.733 104.833 170.733H104.027L104.599 172.033H105.184C106.133 172.033 106.627 171.682 106.627 170.538V167.756H101.778V178.637H103.156V177.74L104.131 178.572C104.534 178.182 104.703 177.974 104.95 177.636C105.327 178.065 105.626 178.351 106.159 178.728L107.173 177.714ZM105.405 173.645C105.275 174.178 105.145 174.568 104.898 175.127C104.638 174.568 104.521 174.217 104.404 173.723L103.273 174.36C103.481 175.088 103.689 175.673 104.131 176.492C103.78 176.986 103.533 177.259 103.156 177.584V173.645H105.405ZM101.44 171.786V170.551H99.2301V169.745H101.024V168.588H99.2301V168.094C99.2301 168.029 99.3081 167.964 99.4381 167.86C99.4771 167.834 99.5161 167.782 99.5161 167.717C99.5161 167.665 99.4771 167.587 99.3601 167.587L97.8651 167.522V168.588H96.1751V169.745H97.8651V170.551H95.5901V171.786H96.8381L96.5131 171.916C96.7211 172.332 96.8251 172.54 97.0331 173.112H95.8371V174.412H97.8651V175.179H96.0191V176.453H97.8651V178.624H99.2301V176.453H101.063V175.179H99.2301V174.412H101.245V173.112H100.205C100.283 172.93 100.387 172.696 100.556 172.254C100.751 172.15 100.829 172.111 100.829 172.02C100.829 171.942 100.777 171.89 100.699 171.877L100.257 171.786H101.44ZM99.3861 171.786C99.1391 172.644 99.0481 172.904 98.9571 173.112H97.7351L98.2421 172.891C98.1641 172.605 98.0471 172.306 97.7871 171.786H99.3861ZM117.092 171.461C116.559 171.695 115.896 172.007 114.804 172.527C114.492 171.669 113.92 171.214 113.023 171.214C112.464 171.214 112.074 171.409 111.905 171.487C112.126 171.149 112.23 170.967 112.646 170.2C113.439 170.109 114.544 169.992 115.753 169.706L115.844 168.25C115.09 168.549 114.505 168.718 113.296 168.913C113.361 168.77 113.66 168.159 113.712 168.029C113.764 168.003 113.933 167.925 113.998 167.899C114.076 167.873 114.128 167.834 114.128 167.756C114.128 167.691 114.037 167.652 113.868 167.626L112.243 167.34C112.087 167.925 111.905 168.38 111.606 169.069C110.462 169.108 109.89 169.082 109.11 169.017L109.266 170.369C109.812 170.369 110.215 170.356 110.956 170.317C110.033 171.916 109.383 172.826 108.408 173.892L109.669 174.685C110.384 173.515 111.164 172.332 112.438 172.332C113.192 172.332 113.348 172.8 113.426 173.19C111.398 174.23 110.28 174.802 110.28 176.414C110.28 178.559 113.01 178.559 113.829 178.559C114.232 178.559 115.675 178.559 116.923 178.364V176.895C115.285 177.272 114.206 177.311 113.608 177.311C112.62 177.311 111.658 177.129 111.658 176.297C111.658 175.387 112.997 174.711 113.504 174.464C113.491 174.893 113.478 175.582 113.439 176.427H114.947C114.947 176.024 114.921 174.581 114.908 173.853C115.883 173.489 116.507 173.268 117.534 172.943L117.092 171.461ZM120.036 176.622C120.179 176.479 120.244 176.414 120.426 176.245C121.674 177.558 122.012 177.935 122.493 178.442L123.871 177.896C123.871 176.778 123.884 176.076 123.897 174.009C124.638 173.736 125.262 173.554 125.873 173.554C127.056 173.554 127.68 174.412 127.68 175.283C127.68 176.193 127.147 176.661 126.679 176.661C126.276 176.661 126.172 176.323 126.016 175.79L124.807 176.271C124.989 177.22 125.171 178.117 126.601 178.117C127.992 178.117 129.032 176.856 129.032 175.257C129.032 173.632 127.914 172.293 125.899 172.293C125.145 172.293 124.43 172.436 123.897 172.592L123.91 171.305C124.417 171.201 125.067 171.071 125.938 170.746V169.264C125.21 169.602 124.768 169.758 123.936 169.94C123.949 169.693 123.988 168.419 124.04 168.341C124.066 168.302 124.261 168.146 124.261 168.094C124.261 167.977 124.157 167.925 123.897 167.886L122.454 167.691C122.467 168.523 122.467 168.627 122.48 170.122C122.103 170.148 121.908 170.161 121.583 170.161C121.024 170.161 120.712 170.135 120.309 170.096L120.504 171.565C121.232 171.591 121.7 171.578 122.48 171.5L122.493 173.177C121.648 173.619 121.414 173.775 119.243 175.166L120.036 176.622ZM122.493 176.726C122.259 176.518 121.726 176.024 121.31 175.504C121.856 175.101 122.129 174.932 122.493 174.711V176.726ZM130.02 171.227C129.552 170.863 128.642 170.187 127.459 169.758L126.614 170.902C128.057 171.435 128.746 172.02 129.175 172.384L130.02 171.227ZM135.068 168.419C135.068 168.315 134.912 168.211 134.873 168.185L133.703 167.379C133.066 168.237 132.299 169.03 131.116 169.81L132.299 170.876C133.313 170.122 133.95 169.381 134.457 168.783C134.626 168.601 134.639 168.588 134.834 168.575C134.925 168.562 135.068 168.562 135.068 168.419ZM142.712 172.475V171.253H139.41V170.057H142.296V168.835H139.41V168.094C139.41 168.003 139.475 167.951 139.527 167.899C139.553 167.886 139.683 167.782 139.683 167.704C139.683 167.535 139.423 167.522 139.384 167.522L137.863 167.457V168.835H135.393V170.057H137.863V171.253H134.99C135.068 171.227 135.211 171.175 135.211 171.019C135.211 170.902 135.042 170.811 135.016 170.798L133.716 170.122C133.001 171.461 132.026 172.631 130.843 173.58L131.974 174.529C132.364 174.204 132.585 173.996 132.741 173.84V178.962H134.184V173.06C134.184 172.982 134.236 172.904 134.249 172.878C134.353 172.735 134.379 172.696 134.379 172.644C134.379 172.488 134.171 172.423 134.08 172.41C134.249 172.202 134.522 171.89 134.743 171.552V172.475H139.527V173.697H134.938V174.932H136.836L135.692 175.764C136.186 176.323 136.485 176.791 136.888 177.493L138.175 176.713C137.785 176.024 137.395 175.491 136.953 174.932H139.527V177.077C139.527 177.415 139.319 177.48 139.085 177.48C138.838 177.48 138.344 177.428 137.824 177.376L138.656 178.988C140.008 178.962 140.97 178.793 140.97 177.61V174.932H142.569V173.697H140.97V172.475H142.712ZM147.405 167.314C147.34 168.107 147.132 169.199 146.937 170.018C146.742 170.031 146.508 170.044 146.261 170.044C145.793 170.044 145.091 169.992 144.441 169.836L144.623 171.214C145.156 171.266 145.767 171.266 145.845 171.266C146.092 171.266 146.378 171.266 146.651 171.24C146.443 172.098 146.079 173.528 145.637 174.659L146.729 175.517C147.717 174.594 148.783 173.632 149.992 173.632C150.876 173.632 151.669 174.23 151.669 175.114C151.669 176.193 150.486 177.246 147.912 177.246C147.756 177.246 147.015 177.246 146.222 177.142L146.651 178.624C148.146 178.598 150.109 178.533 151.253 177.948C152.397 177.363 153.073 176.284 153.073 175.036C153.073 173.45 151.786 172.41 150.187 172.41C149.667 172.41 148.757 172.54 147.431 173.411C147.691 172.553 147.964 171.526 148.068 171.123C149.693 170.889 150.538 170.681 151.682 170.252V168.835C150.694 169.316 149.94 169.563 148.393 169.849C148.549 169.238 148.744 168.445 148.848 168.055C148.926 168.029 149.017 167.977 149.043 167.964C149.108 167.938 149.16 167.899 149.16 167.821C149.16 167.73 148.978 167.678 148.887 167.652L147.405 167.314ZM161.503 177.714C160.06 175.894 158.799 174.763 157.109 173.372C156.966 173.255 156.888 173.099 156.888 172.93C156.888 172.683 156.927 172.631 158.136 171.5C159.007 170.681 159.852 169.888 160.892 168.848C161.061 168.679 161.087 168.679 161.347 168.653C161.451 168.64 161.555 168.627 161.555 168.523C161.555 168.393 161.321 168.198 161.282 168.172L160.086 167.249C158.851 168.783 157.772 169.81 155.926 171.487C155.341 172.02 155.029 172.462 155.029 172.943C155.029 173.32 155.211 173.684 155.679 174.087C157.356 175.53 158.63 176.674 160.164 178.962L161.503 177.714ZM166.325 168.029C166.312 168.796 166.182 169.628 165.974 170.59C165.311 170.72 164.583 170.746 163.803 170.746L163.894 171.968C164.115 171.955 164.401 171.916 164.674 171.89C165.025 171.851 165.48 171.786 165.688 171.747C165.35 173.06 164.817 175.088 163.296 177.675L164.739 178.091C166.039 175.517 166.806 172.839 167.183 171.513C167.742 171.409 168.353 171.279 169.393 170.889V169.472C168.782 169.823 168.184 170.083 167.482 170.239C167.508 170.161 167.755 168.978 167.781 168.848C167.846 168.796 168.08 168.653 168.08 168.588C168.08 168.471 167.911 168.419 167.794 168.393L166.325 168.029ZM172.11 172.033C171.824 172.007 171.603 171.981 170.901 171.981C170.277 171.981 169.874 171.994 168.743 172.111V173.359C169.666 173.229 170.134 173.216 171.252 173.216C171.447 173.216 171.798 173.229 172.11 173.268V172.033ZM172.201 176.505C171.798 176.609 171.174 176.765 170.095 176.765C169.094 176.765 168.444 176.609 168.444 176.128C168.444 175.92 168.47 175.764 168.496 175.634L167.287 175.452C167.235 175.686 167.209 176.063 167.209 176.219C167.209 177.987 168.847 178.065 170.121 178.065C171.343 178.065 172.006 177.948 172.357 177.883L172.201 176.505ZM169.822 169.16C170.277 169.537 170.667 169.992 170.849 170.213L171.395 169.693C171.2 169.472 170.823 169.017 170.368 168.64L169.822 169.16ZM171.213 168.562C171.681 168.939 172.058 169.42 172.188 169.563L172.76 169.017C172.617 168.835 172.227 168.38 171.772 168.003L171.213 168.562ZM177.096 167.704C177.356 168.562 177.59 169.173 177.941 169.979C176.602 170.343 175.445 170.59 174.197 170.525L174.86 171.89C175.744 171.825 176.628 171.695 178.5 171.123C178.955 171.994 179.241 172.475 179.722 173.138C179.306 173.047 178.617 172.917 178.136 172.917C176.706 172.917 175.068 173.71 175.068 175.595C175.068 176.999 176.069 178.351 179.007 178.351C179.878 178.351 180.58 178.299 181.061 178.208L180.957 176.739C180.528 176.83 179.839 176.96 178.955 176.96C177.265 176.96 176.563 176.453 176.563 175.556C176.563 174.672 177.434 174.152 178.474 174.152C179.891 174.152 180.853 174.828 181.451 175.244L182.283 174.139C181.295 173.151 180.671 172.332 179.774 170.681C180.957 170.226 181.373 169.979 181.802 169.732L181.152 168.497C180.606 168.9 180.19 169.147 179.241 169.537C178.851 168.614 178.721 168.146 178.695 167.99C178.695 167.912 178.864 167.652 178.864 167.587C178.864 167.496 178.773 167.483 178.669 167.483C178.604 167.483 178.539 167.496 178.409 167.509L177.096 167.704ZM188.039 173.528C187.818 174.087 187.272 175.53 186.791 175.53C186.531 175.53 185.907 175.075 185.907 172.527C185.907 171.097 186.089 169.693 186.18 169.628C186.219 169.615 186.375 169.537 186.401 169.524C186.453 169.498 186.531 169.433 186.531 169.355C186.531 169.199 186.323 169.134 186.232 169.108L184.802 168.718C184.594 169.589 184.412 170.525 184.412 172.098C184.412 174.009 184.659 175.335 185.179 176.232C185.504 176.804 186.011 177.402 186.7 177.402C187.753 177.402 188.403 176.024 189.118 174.49L188.039 173.528ZM194.851 174.685C194.5 171.682 193.343 170.044 192.719 169.16L191.38 169.81C192.056 170.863 192.914 172.397 193.291 175.088L194.851 174.685Z" fill="#FF0000"/>
</svg>
