<svg width="210" height="210" viewBox="0 0 210 210" fill="none" xmlns="http://www.w3.org/2000/svg">
<path d="M59.9774 161.25V150.195H52.1474V155.79C52.1474 159.135 50.4224 160.5 49.3574 161.355L50.8424 162.585C52.5674 161.265 53.2274 160.095 53.7224 157.965H58.2374V160.44C58.2374 160.77 58.1174 160.89 57.6824 160.89C57.0974 160.89 56.7524 160.845 56.4974 160.8L57.2324 162.765C58.7624 162.765 59.9774 162.66 59.9774 161.25ZM58.2374 153.33H53.9774V151.77H58.2374V153.33ZM58.2374 156.39H53.9174C53.9474 156.06 53.9774 155.67 53.9774 154.83H58.2374V156.39ZM82.2825 159.78C80.1525 158.265 78.3075 156.345 77.3325 153.93H82.0425V152.31H76.5525V150.465C76.5525 150.405 76.5975 150.36 76.6875 150.285C76.7775 150.225 76.8225 150.18 76.8225 150.12C76.8225 149.955 76.4625 149.895 76.2675 149.88L74.7975 149.805V152.31H69.2475V153.93H73.7775C73.0125 155.955 71.1075 158.685 69.1125 160.2L70.5375 161.205C72.0825 159.81 73.8975 157.44 74.7975 155.49V158.895H72.7275V160.395H74.7975V162.81H76.5525V160.395H78.7425V158.94C79.6725 159.96 80.2875 160.44 81.0525 160.98L82.2825 159.78ZM78.7125 158.895H76.5525V155.655C76.8975 156.36 77.3925 157.395 78.7125 158.895ZM96.0375 155.085V153.375H93.5175V151.095C93.5925 151.005 93.8175 150.795 93.8175 150.735C93.8175 150.555 93.4725 150.51 93.3525 150.495L91.8075 150.285C91.8375 151.23 91.8375 152.235 91.8375 153.375H89.0025V151.275C89.0025 151.2 89.3175 150.975 89.3175 150.9C89.3175 150.75 89.2125 150.735 88.8675 150.69L87.2175 150.51V153.375H84.4425V155.085H87.2175V158.52H89.0025V155.085H91.8375C91.7775 158.445 90.9225 159.975 88.2075 161.46L89.4375 162.63C92.3475 160.86 93.3375 159.36 93.5025 155.085H96.0375ZM103.138 162.255H105.013V154.26C105.523 153.855 106.168 153.345 107.338 152.085C107.683 151.71 107.728 151.68 107.848 151.665C108.193 151.635 108.313 151.605 108.313 151.515C108.313 151.425 108.193 151.26 108.058 151.155L106.753 150.075C104.503 152.76 101.188 155.22 98.0525 156.45L99.3575 157.785C101.113 156.96 102.118 156.33 103.138 155.655V162.255ZM113.359 155.715C115.309 156.54 116.869 157.89 117.769 158.715L118.954 157.275C118.099 156.51 116.359 155.07 114.064 154.11L113.359 155.22V151.275C113.359 151.2 113.749 150.96 113.749 150.87C113.749 150.72 113.569 150.66 113.389 150.63L111.589 150.315V162.195H113.359V155.715ZM134.083 155.385C133.588 155.085 132.403 154.38 131.368 152.91C130.363 151.485 130.318 150.54 130.303 150.075H127.543V151.59H128.848C129.403 153.51 130.708 155.295 132.718 156.66L134.083 155.385ZM126.298 151.68C126.298 151.62 126.238 151.515 126.118 151.455L124.318 150.6C123.643 152.565 122.263 154.5 120.448 155.625L122.038 156.72C122.563 156.3 124.258 154.95 125.728 152.19C125.863 151.935 125.863 151.935 126.058 151.89C126.163 151.875 126.298 151.83 126.298 151.68ZM133.213 161.61C132.733 160.635 131.728 158.565 129.643 156.195L128.248 157.17C129.238 158.295 129.703 158.94 130.138 159.78C129.178 159.87 128.323 159.945 125.668 160.065C126.658 158.16 126.778 157.905 127.783 155.595C127.993 155.13 128.008 155.07 128.158 155.025C128.458 154.92 128.563 154.875 128.563 154.68C128.563 154.56 128.458 154.425 128.263 154.365L126.403 153.765C125.608 156.165 124.528 158.94 123.913 160.125C122.293 160.17 122.113 160.17 121.783 160.155L122.248 162.12C122.293 162.315 122.368 162.48 122.518 162.48C122.623 162.48 122.638 162.45 122.818 162.21C122.923 162.075 123.058 162.06 123.268 162.045C124.558 161.955 127.303 161.745 130.948 161.22C131.218 161.76 131.353 162.03 131.578 162.525L133.213 161.61ZM148.528 161.01V150.24H142.738V154.845H146.953V160.605C146.953 160.98 146.758 161.13 146.383 161.13H145.393L146.113 162.705H147.028C148.198 162.705 148.528 161.97 148.528 161.01ZM146.188 159.27V157.935H144.328V156.84H145.798V155.55H138.748V156.84H140.263C140.263 157.305 140.263 157.485 140.233 157.935H138.313V159.27H140.083C139.813 160.275 139.498 160.815 138.148 161.655L139.453 162.66C140.668 161.64 141.253 160.905 141.568 159.27H142.783V162.39H144.328V159.27H146.188ZM146.953 152.01H144.373V151.41H146.953V152.01ZM146.953 153.675H144.373V153.03H146.953V153.675ZM142.783 157.935H141.703C141.718 157.65 141.718 157.47 141.733 156.84H142.783V157.935ZM141.838 154.845V150.24H136.048V162.63H137.713V154.845H141.838ZM140.323 152.01H137.713V151.41H140.323V152.01ZM140.323 153.675H137.713V153.03H140.323V153.675ZM163.693 154.83L163.048 154.185H158.818L159.163 153.795C159.103 153.765 158.848 153.63 158.788 153.6C160.528 152.46 161.608 151.65 162.508 150.975L161.818 150.135H152.158V151.71H158.653C157.963 152.4 157.603 152.655 157.288 152.865C155.908 152.205 155.518 152.025 155.113 151.83L154.333 153.255C155.338 153.645 155.803 153.885 156.343 154.185H150.883V155.82H156.403V160.44C156.403 160.86 156.283 161.19 155.833 161.19C155.398 161.19 154.693 161.04 154.438 160.98L155.128 162.765C157.528 162.75 158.188 162.69 158.188 160.8V155.82H161.038C160.213 156.975 159.778 157.53 159.133 158.28L160.588 159.21C161.308 158.325 162.043 157.395 163.693 154.83ZM178.498 154.245V151.245H173.233V150.57C173.383 150.45 173.578 150.36 173.578 150.27C173.578 150.12 173.413 150.075 173.353 150.075L171.373 149.91V151.245H166.138V154.29H167.623V152.73H177.028V154.245H178.498ZM178.753 160.845C177.238 160.98 175.528 161.085 173.248 161.1V158.415H177.028V156.915H173.248V155.34H176.908V153.9H167.743V155.34H171.523V160.755C170.788 160.35 169.933 159.765 169.483 158.055C169.588 157.635 169.693 157.08 169.753 156.87C169.903 156.735 170.053 156.675 170.053 156.585C170.053 156.495 169.918 156.45 169.858 156.435L168.133 156.165C168.013 157.02 167.878 158.04 167.263 159.465C166.663 160.875 166.198 161.37 165.658 161.925L167.203 162.66C167.773 161.985 168.193 161.4 168.778 160.11C169.078 160.62 169.543 161.43 170.533 161.97C171.223 162.36 172.228 162.585 173.053 162.585H178.258L178.753 160.845Z" fill="#FF0000"/>
<path d="M31.782 162H38.038V160.232H35.845V150.304H33.975C33.907 151.528 32.938 152.072 31.782 152.072V153.432H33.975V160.232H31.782V162ZM43.6893 158.753V160.232H40.8843C40.8843 159.127 42.2443 158.056 43.4683 156.832C44.7943 155.506 45.3553 154.588 45.3553 153.364C45.3553 151.29 44.3013 150.083 42.2273 150.083C40.0513 150.083 39.0993 151.511 39.0993 153.534V154.214H40.8333V153.534C40.8333 153.041 40.8503 151.817 42.2273 151.817C43.4683 151.817 43.5873 152.735 43.5873 153.364C43.5873 154.299 42.7543 155.132 42.2103 155.676C40.6463 157.24 39.0653 158.43 39.0653 160.81V162H45.3553V158.753H43.6893Z" fill="#FF0000"/>
</svg>
