<svg width="976" height="982" viewBox="0 0 976 982" fill="none" xmlns="http://www.w3.org/2000/svg">
<path d="M949.151 80.5394C909.188 7.78715 809.181 -12.4345 727.748 17.034C651.864 44.4949 591.497 101.909 525.403 148.203C513.108 156.813 499.962 165.293 485.066 167.163C459.25 170.405 435.894 153.5 413.198 140.776C329.823 94.0335 227.777 103.938 143.141 149.574C-0.387105 229.426 -40.4831 433.472 58.7543 618.403C142.802 775.028 287.46 913.903 360.093 978C479.881 843.708 679.861 619.39 765.155 522.996C835.64 443.343 915.272 350.405 955.886 255.533C979.022 201.492 977.647 132.419 949.151 80.5394V80.5394Z" fill="#FF0000"/>
</svg>
