<svg width="168" height="188" viewBox="0 0 168 188" fill="none" xmlns="http://www.w3.org/2000/svg">
<path fill-rule="evenodd" clip-rule="evenodd" d="M64.3885 63.6969V49.3183C64.3885 46.6981 64.5242 45.8242 64.9276 44.48C66.0057 40.7848 69.646 38.0304 73.9586 38.0304C78.2713 38.0304 81.9103 40.8518 82.9885 44.48C83.3931 45.8242 83.5288 46.6981 83.5288 49.3183V71.4907C83.5288 72.8349 83.5288 74.178 83.2586 75.3882C82.5178 78.747 79.4851 81.7719 76.1149 82.5104C74.9023 82.7786 73.554 82.7786 72.2057 82.7786H49.9667C47.3385 82.7786 46.4621 82.6445 45.1138 82.2411C41.4747 81.1662 38.6448 77.538 38.6448 73.2383C38.6448 68.9374 41.4747 65.3093 45.1138 64.2344C46.4621 63.831 47.3385 63.6969 49.9667 63.6969H64.3885ZM143.643 164.215H24.3575V59.4642C24.3575 58.12 24.8293 56.978 25.773 56.0372L56.7057 25.196C57.6494 24.2564 58.7948 23.7859 60.1431 23.7859H143.643V164.215ZM157.189 0.134064C156.583 0.0670307 155.774 0 154.224 0H56.9747C55.8977 0 54.8196 0.0670307 54.0776 0.134064C49.6293 0.537459 45.6529 2.62028 42.4856 5.77801L6.29539 41.8597C3.12936 45.0186 1.03908 48.982 0.635674 53.4169C0.567239 54.1555 0.5 55.2304 0.5 56.3053V174.763C0.5 176.309 0.567239 177.116 0.635674 177.72C1.17355 182.759 5.75631 187.327 10.8109 187.865C11.4184 187.933 12.2264 188 13.7764 188H154.224C155.774 188 156.583 187.933 157.189 187.865C162.244 187.327 166.826 182.759 167.366 177.72C167.432 177.116 167.5 176.309 167.5 174.763V13.2366C167.5 11.6913 167.432 10.8845 167.366 10.28C166.826 5.24055 162.244 0.671525 157.189 0.134064Z" fill="black"/>
</svg>
