<svg width="390" height="27" viewBox="0 0 390 27" fill="none" xmlns="http://www.w3.org/2000/svg">
<path d="M289.385 21.6775H290.846C291.058 21.6775 291.23 21.5054 291.23 21.2926V15.1658C291.23 14.953 291.058 14.7809 290.846 14.7809H289.385C289.172 14.7809 289 14.6089 289 14.3961V13.7649C289 13.5709 289.145 13.4037 289.338 13.3845C290.262 13.2949 291.012 12.8237 291.194 11.8951C291.228 11.7203 291.388 11.5977 291.566 11.5977H292.736C292.949 11.5977 293.121 11.7698 293.121 11.9825V21.2926C293.121 21.5054 293.293 21.6775 293.505 21.6775H294.96C295.172 21.6775 295.345 21.8495 295.345 22.0623V23.0761C295.345 23.2889 295.172 23.461 294.96 23.461H289.385C289.172 23.461 289 23.2889 289 23.0761V22.0623C289 21.8495 289.172 21.6775 289.385 21.6775V21.6775Z" fill="#FF0000"/>
<path d="M298.293 21.3267H299.66C299.873 21.3267 300.045 21.4988 300.045 21.7115V23.0794C300.045 23.2922 299.873 23.4643 299.66 23.4643H298.293C298.08 23.4643 297.908 23.2922 297.908 23.0794V21.7115C297.908 21.4988 298.08 21.3267 298.293 21.3267Z" fill="#FF0000"/>
<path d="M303.325 21.6775H304.786C304.998 21.6775 305.17 21.5054 305.17 21.2926V15.1658C305.17 14.953 304.998 14.7809 304.786 14.7809H303.325C303.113 14.7809 302.94 14.6089 302.94 14.3961V13.7649C302.94 13.5709 303.085 13.4037 303.278 13.3845C304.202 13.2949 304.952 12.8237 305.134 11.8951C305.168 11.7203 305.328 11.5977 305.506 11.5977H306.676C306.888 11.5977 307.061 11.7698 307.061 11.9825V21.2926C307.061 21.5054 307.233 21.6775 307.445 21.6775H308.9C309.113 21.6775 309.285 21.8495 309.285 22.0623V23.0761C309.285 23.2889 309.113 23.461 308.9 23.461H303.325C303.113 23.461 302.94 23.2889 302.94 23.0761V22.0623C302.94 21.8495 303.113 21.6775 303.325 21.6775V21.6775Z" fill="#FF0000"/>
<path d="M316.734 19.7807V20.3327C316.734 21.8693 315.942 23.6968 313.533 23.6968C311.125 23.6968 310.333 21.8693 310.333 20.3327V19.7807C310.333 18.3853 310.879 17.6239 311.264 17.2687C311.423 17.1214 311.409 16.874 311.259 16.7173C310.8 16.2379 310.402 15.4731 310.402 14.5291C310.402 12.8666 311.47 11.3662 313.534 11.3662C315.598 11.3662 316.665 12.8666 316.665 14.5291C316.665 15.472 316.257 16.2362 315.803 16.7162C315.655 16.8729 315.642 17.1197 315.801 17.266C316.185 17.62 316.734 18.382 316.734 19.7812L316.734 19.7807ZM314.942 20.3327V19.7807C314.942 18.6756 314.358 18.106 313.533 18.106C312.708 18.106 312.124 18.6756 312.124 19.7807V20.3327C312.124 21.4377 312.708 22.0073 313.533 22.0073C314.358 22.0073 314.942 21.4377 314.942 20.3327ZM312.192 14.5979C312.192 15.6034 312.708 16.1406 313.533 16.1406C314.357 16.1406 314.873 15.6034 314.873 14.5979C314.873 13.5923 314.357 13.0552 313.533 13.0552C312.708 13.0552 312.192 13.5928 312.192 14.5979V14.5979Z" fill="#FF0000"/>
<path d="M320.349 22.6446C320.314 22.6176 320.282 22.5835 320.256 22.5472C316.268 16.8317 320.186 10.9616 325.395 10.9616C329.112 10.9616 332.171 13.9497 332.171 17.7372C332.171 23.0932 325.971 26.989 320.349 22.6451L320.349 22.6446ZM325.395 11.4614C320.571 11.4614 316.907 16.9438 320.678 22.2267C320.703 22.2625 320.736 22.296 320.771 22.3224C325.984 26.2874 331.671 22.6649 331.671 17.7366C331.671 14.2345 328.826 11.4614 325.395 11.4614ZM321.289 21.2025L320.91 20.9809C320.681 20.8473 320.652 20.5257 320.855 20.3569C322.346 19.1182 322.91 17.7855 323.111 16.7454C323.157 16.5095 322.971 16.2929 322.73 16.2929H321.52C321.308 16.2929 321.136 16.1208 321.136 15.908V15.5342C321.136 15.3214 321.308 15.1493 321.52 15.1493H324.082C324.305 15.1493 324.487 15.3407 324.469 15.5628C324.271 17.9725 323.256 19.8912 321.731 21.1695C321.607 21.2734 321.428 21.2844 321.288 21.2025H321.289ZM328.733 21.1266C328.168 20.6835 327.388 20.021 326.69 19.0924C326.466 18.795 325.995 18.945 325.995 19.3173V20.9243C325.995 22.0282 325.463 22.2289 324.307 22.263C324.146 22.268 323.998 22.1684 323.939 22.0183L323.565 21.0672C323.737 21.0964 324.022 21.1678 324.337 21.1678C324.594 21.1678 324.809 21.0821 324.809 20.8105V13.5121C324.809 13.2861 325.003 13.1085 325.228 13.1289L325.924 13.191C326.152 13.2053 326.267 13.2201 326.267 13.3345C326.267 13.406 325.995 13.6061 325.995 13.6776V14.4637C325.995 14.7623 326.023 15.2912 326.241 15.9773C326.326 16.244 326.664 16.333 326.87 16.1433C327.327 15.7206 327.78 15.1851 328.155 14.5891C328.263 14.417 328.48 14.3516 328.66 14.4456L329.383 14.8222C329.569 14.9223 329.683 15.008 329.683 15.0932C329.683 15.1653 329.569 15.179 329.426 15.2076C329.34 15.2219 329.325 15.2505 329.111 15.5083C329.006 15.6397 328.331 16.4743 327.265 17.3204C327.107 17.4452 327.061 17.6723 327.174 17.8383C327.875 18.8686 328.79 19.5998 329.529 20.0957C329.717 20.2227 329.752 20.4833 329.606 20.6582L329.264 21.0694C329.13 21.2294 328.896 21.2569 328.732 21.1282L328.733 21.1266Z" fill="#FF0000"/>
<path d="M354.686 20.5581V23.0761C354.686 23.2889 354.513 23.4609 354.301 23.4609H348.682C348.47 23.4609 348.298 23.2889 348.298 23.0761V22.2608C348.298 19.845 349.902 18.6355 351.492 17.0455C352.045 16.4924 352.893 15.6457 352.893 14.6952C352.893 14.0558 352.771 13.1228 351.509 13.1228C350.109 13.1228 350.092 14.3669 350.092 14.8656V15.5545H348.332V14.8656C348.332 12.8154 349.299 11.369 351.509 11.369C353.617 11.369 354.686 12.5922 354.686 14.6935C354.686 15.9355 354.117 16.869 352.771 18.2187C351.704 19.287 350.534 20.2408 350.223 21.2008C350.146 21.4388 350.347 21.6785 350.597 21.6785H352.611C352.824 21.6785 352.996 21.5065 352.996 21.2937V20.5592C352.996 20.3464 353.168 20.1743 353.381 20.1743H354.301C354.513 20.1743 354.686 20.3464 354.686 20.5592V20.5581Z" fill="#FF0000"/>
<path d="M362.272 20.5581V23.0761C362.272 23.2889 362.1 23.4609 361.887 23.4609H356.269C356.056 23.4609 355.884 23.2889 355.884 23.0761V22.2608C355.884 19.845 357.489 18.6355 359.078 17.0455C359.632 16.4924 360.479 15.6457 360.479 14.6952C360.479 14.0558 360.358 13.1228 359.096 13.1228C357.696 13.1228 357.679 14.3669 357.679 14.8656V15.5545H355.919V14.8656C355.919 12.8154 356.885 11.369 359.096 11.369C361.203 11.369 362.272 12.5922 362.272 14.6935C362.272 15.9355 361.703 16.869 360.358 18.2187C359.29 19.287 358.12 20.2408 357.81 21.2008C357.733 21.4388 357.933 21.6785 358.183 21.6785H360.197C360.41 21.6785 360.582 21.5065 360.582 21.2937V20.5592C360.582 20.3464 360.754 20.1743 360.967 20.1743H361.887C362.1 20.1743 362.272 20.3464 362.272 20.5592V20.5581Z" fill="#FF0000"/>
<path d="M365.911 22.644C365.876 22.6171 365.844 22.583 365.818 22.5467C361.832 16.8311 365.748 10.9627 370.957 10.9627C374.673 10.9627 377.732 13.9497 377.732 17.7366C377.732 23.0932 371.532 26.9873 365.911 22.644ZM370.957 11.4608C366.134 11.4608 362.465 16.946 366.241 22.2256C366.266 22.2614 366.299 22.2943 366.333 22.3207C371.542 26.2913 377.234 22.6643 377.234 17.7366C377.234 14.235 374.387 11.4608 370.958 11.4608H370.957ZM372.974 21.8105V21.2668H368.97V21.8677H368.098C367.886 21.8677 367.713 21.6956 367.713 21.4829V14.0492C367.713 13.8364 367.886 13.6644 368.098 13.6644H373.816C374.029 13.6644 374.201 13.8364 374.201 14.0492V21.4257C374.201 21.6384 374.029 21.8105 373.816 21.8105H372.974V21.8105ZM372.589 14.82H369.355C369.142 14.82 368.97 14.9921 368.97 15.2049V16.4523C368.97 16.6651 369.142 16.8372 369.355 16.8372H372.589C372.802 16.8372 372.974 16.6651 372.974 16.4523V15.2049C372.974 14.9921 372.802 14.82 372.589 14.82ZM372.589 17.9362H369.355C369.142 17.9362 368.97 18.1083 368.97 18.321V19.7257C368.97 19.9385 369.142 20.1106 369.355 20.1106H372.589C372.802 20.1106 372.974 19.9385 372.974 19.7257V18.321C372.974 18.1083 372.802 17.9362 372.589 17.9362Z" fill="#FF0000"/>
<path d="M334.667 17.5684H337.952C338.123 17.5684 338.32 17.4397 338.388 17.2825L338.483 17.0664C338.552 16.9092 338.653 16.9136 338.709 17.0752L339.171 18.4117C339.227 18.5739 339.313 18.5717 339.361 18.4073L340.171 15.6628C340.219 15.4984 340.277 15.5028 340.299 15.6727L340.85 19.8731C340.873 20.043 340.926 20.0463 340.97 19.8808L341.795 16.7195C341.838 16.5535 341.909 16.5535 341.952 16.7195L342.099 17.2841C342.142 17.4502 342.318 17.586 342.489 17.586H346.178" fill="#FF0000"/>
<path d="M334.667 17.5684H337.952C338.123 17.5684 338.32 17.4397 338.388 17.2825L338.483 17.0664C338.552 16.9092 338.653 16.9136 338.709 17.0752L339.171 18.4117C339.227 18.5739 339.313 18.5717 339.361 18.4073L340.171 15.6628C340.219 15.4984 340.277 15.5028 340.299 15.6727L340.85 19.8731C340.873 20.043 340.926 20.0463 340.97 19.8808L341.795 16.7195C341.838 16.5535 341.909 16.5535 341.952 16.7195L342.099 17.2841C342.142 17.4502 342.318 17.586 342.489 17.586H346.178" stroke="#FF0000" stroke-width="0.6" stroke-linejoin="bevel"/>
<path d="M12.77 24.0405L12.1289 23.1372C11.9574 22.8959 12.1135 22.5622 12.4082 22.5336C14.0433 22.3741 15.7581 22.0734 17.4602 21.4181C17.706 21.3235 17.7818 21.0074 17.613 20.8056C17.3799 20.5269 17.1391 20.2696 16.8631 20.0123C16.74 19.8974 16.5498 19.8814 16.4041 19.9655C15.4991 20.4873 14.9378 20.7259 14.3094 20.9436C14.1703 20.992 14.0152 20.9546 13.9119 20.8496L13.2543 20.1843C13.0537 19.9815 13.1383 19.6439 13.4077 19.5488C14.6574 19.1062 15.7416 18.5284 16.6229 17.9154C17.0039 17.6504 16.6663 17.0583 16.243 17.2496C15.4744 17.5965 14.548 17.9627 13.4468 18.3085C13.2939 18.3563 13.1224 18.3046 13.0234 18.1787L12.4357 17.4299C12.2647 17.2122 12.3725 16.8873 12.6408 16.8202C14.2868 16.4068 15.3694 15.9301 16.1649 15.5387C16.3969 15.4243 16.453 15.1142 16.2716 14.9295C16.0242 14.6771 15.7625 14.4506 15.4205 14.2098C15.2924 14.1197 15.1198 14.1213 14.9884 14.2065C14.5634 14.4831 14.1697 14.7046 13.6068 14.9861C13.4754 15.0515 13.3143 15.0378 13.1977 14.9487L12.4638 14.3885C12.2372 14.2153 12.2713 13.8618 12.5281 13.7376C15.0159 12.5396 15.9747 11.3124 16.5058 10.4493C16.5877 10.3162 16.7444 10.2492 16.8983 10.2772L18.5147 10.5686C18.6994 10.5994 18.8688 10.6763 18.8688 10.7995C18.8688 10.8919 18.8072 10.938 18.7456 10.9534C18.6994 10.9842 18.4372 11.0304 18.391 11.0612C18.3448 11.092 18.1749 11.3229 18.1287 11.3691H22.0674C22.1856 11.3691 22.2967 11.423 22.3698 11.5159L22.7909 12.0508C22.9102 12.202 22.902 12.4153 22.7684 12.5539C22.3005 13.0382 21.2999 13.985 20.2861 14.8085C20.0535 14.9971 20.1184 15.3666 20.4005 15.4677L21.0388 15.6959C21.1619 15.7421 21.3005 15.8036 21.3005 15.9422C21.3005 16.0494 21.2389 16.0807 21.2081 16.0956C21.1311 16.1269 20.7925 16.2033 20.7309 16.2655C20.6534 16.3424 20.3004 16.7889 20.208 16.8812H23.5645C23.6805 16.8812 23.7904 16.9335 23.8636 17.0242L24.089 17.3029C24.1967 17.436 24.2044 17.6267 24.1071 17.7675C21.875 20.9931 19.1458 23.1741 13.1537 24.1989C13.0075 24.2242 12.8552 24.1626 12.7694 24.0411L12.77 24.0405ZM16.9286 12.6935C16.7587 12.8469 16.7438 12.8628 16.4981 13.0784C17.0028 13.4016 17.4426 13.7689 17.8528 14.1889C17.9869 14.3264 18.2008 14.3506 18.3558 14.2379C18.7698 13.9366 19.1134 13.6589 19.429 13.3511C19.6742 13.1119 19.4983 12.6935 19.1557 12.6935H16.9286V12.6935ZM18.546 18.4619C18.4509 18.5399 18.3838 18.5955 18.3212 18.6477C18.137 18.8005 18.1348 19.0787 18.3168 19.2343C18.5889 19.4669 18.8896 19.7484 19.2003 20.081C19.3383 20.2289 19.5653 20.2514 19.7242 20.1266C20.108 19.8253 20.4571 19.5087 20.8936 19.0199C21.1157 18.7714 20.942 18.3744 20.6088 18.3744H18.7907C18.7016 18.3744 18.6148 18.4058 18.546 18.4624V18.4619Z" fill="#FF0000"/>
<path d="M37.9227 16.7014C37.8039 16.8009 37.6351 16.8196 37.4977 16.7476C36.805 16.3842 36.303 16.0581 35.6636 15.4176V16.1417C35.6636 16.3545 35.4915 16.5266 35.2787 16.5266H34.6014C34.3886 16.5266 34.2166 16.3545 34.2166 16.1417V15.5254C33.9664 15.8261 33.5843 16.2176 33.2187 16.4864C33.0785 16.5892 32.8888 16.5876 32.7514 16.4809L32.0152 15.9102L31.8305 16.0339C31.5996 15.9102 31.4 15.7415 31.1999 15.5413V16.3732C31.1999 16.5859 31.0278 16.758 30.815 16.758H30.1993C29.9865 16.758 29.8144 16.5859 29.8144 16.3732V15.4182C29.4741 15.8811 29.0948 16.2478 28.7682 16.5255C28.6269 16.6453 28.4229 16.6486 28.2778 16.5337L27.844 16.189C27.7714 19.2463 27.5883 21.0771 26.9176 22.7391C26.85 22.9063 26.6708 23.0019 26.4926 22.9706L25.4376 22.7859C25.1918 22.743 25.0511 22.4802 25.1522 22.252C25.7927 20.805 26.2738 19.3569 26.2738 16.035C26.2738 14.7551 26.1858 13.0239 26.0891 11.6928C26.0731 11.4696 26.2491 11.2794 26.4728 11.2794H30.8145C31.0273 11.2794 31.1993 11.1073 31.1993 10.8946V10.8654C31.1993 10.646 31.3819 10.4712 31.6007 10.4811L32.9691 10.5405C33.2 10.5559 33.4617 10.6334 33.4617 10.8027C33.4617 10.8643 33.3693 10.9259 33.3078 10.9567C33.1384 11.049 33.1384 11.0798 33.1384 11.28H38.3564C38.5692 11.28 38.7413 11.452 38.7413 11.6648V12.2014C38.7413 12.4142 38.5692 12.5862 38.3564 12.5862H35.663V13.3576H38.3564C38.5692 13.3576 38.7413 13.5297 38.7413 13.7424V14.1251C38.7413 14.3379 38.5692 14.5099 38.3564 14.5099H37.5532C37.1766 14.5099 37.0221 14.9921 37.3294 15.2098C37.5878 15.3929 37.8891 15.5809 38.2223 15.753C38.467 15.88 38.5071 16.2126 38.296 16.3897L37.9221 16.7025L37.9227 16.7014ZM29.8133 12.5846H27.8121C27.8209 12.6451 27.8292 12.8122 27.8352 12.9854C27.8423 13.1921 28.0128 13.3559 28.2201 13.3559H29.8133V12.5846V12.5846ZM28.2426 14.5704C28.0304 14.5704 27.8588 14.7403 27.8577 14.9525C27.8566 15.2142 27.8528 15.499 27.8429 15.7101C28.1354 15.5716 28.7363 15.0482 29.1206 14.5704H28.2426ZM34.2314 21.4977C34.0186 21.4977 33.8466 21.6698 33.8466 21.8826V22.6072C33.8466 23.6397 32.4028 23.7601 31.5924 23.7848C31.4368 23.7898 31.2967 23.7002 31.2323 23.5583L30.8821 22.7826C30.7661 22.5258 30.9596 22.235 31.2417 22.2394C32.1153 22.2537 32.1692 22.1778 32.1692 21.7132V21.4966H28.2437C28.0309 21.4966 27.8588 21.3245 27.8588 21.1118V20.6983C27.8588 20.4856 28.0309 20.3135 28.2437 20.3135H32.1692V19.8654H28.9364C28.7237 19.8654 28.5516 19.6933 28.5516 19.4806V19.0671C28.5516 18.8543 28.7237 18.6823 28.9364 18.6823H32.1692V18.2182C30.5226 18.2457 29.9282 18.249 29.2839 18.2386C29.1371 18.2364 29.0046 18.1512 28.9414 18.0187L28.7973 17.7152C28.6698 17.4452 28.8869 17.1396 29.1844 17.1676C29.7243 17.2187 30.075 17.2358 30.583 17.2358C31.4143 17.2358 32.2764 17.1742 33.0307 17.1121C34.5283 16.9708 35.2606 16.7778 36.0495 16.5441C36.1815 16.5051 36.325 16.5387 36.4251 16.6338L37.1722 17.343C37.2794 17.4354 37.3718 17.5733 37.3718 17.6503C37.3718 17.7278 37.2794 17.7427 37.2332 17.7427C37.1871 17.7427 36.9715 17.7278 36.9254 17.7278C36.833 17.7278 36.3706 17.835 36.2634 17.8504C35.232 18.0352 34.3853 18.0962 33.8466 18.1275V18.6834H37.3872C37.5999 18.6834 37.772 18.8554 37.772 19.0682V19.4817C37.772 19.6944 37.5999 19.8665 37.3872 19.8665H33.8466V20.3146H38.3108C38.5236 20.3146 38.6957 20.4867 38.6957 20.6994V21.1129C38.6957 21.3256 38.5236 21.4977 38.3108 21.4977H34.2314V21.4977ZM34.216 12.5846H31.1993V13.3559H31.9685C32.1813 13.3559 32.3533 13.528 32.3533 13.7408V14.5704H31.6304C31.7475 14.6617 32.1626 14.9954 32.604 15.2082C32.7453 15.2763 32.9147 15.2505 33.0318 15.1466C33.3721 14.8448 33.5172 14.6936 33.6618 14.5083H32.9081V13.7402C32.9081 13.5275 33.0802 13.3554 33.2929 13.3554H34.216V12.584V12.5846Z" fill="#FF0000"/>
<path d="M52.5466 23.9404C51.2238 23.6441 49.2335 23.0294 47.4962 21.1096C47.3351 20.9314 47.0619 20.9369 46.9069 21.12C45.5637 22.7023 43.7033 23.555 41.8081 23.9415C41.6498 23.9739 41.4882 23.9008 41.403 23.7634L40.8037 22.7914C40.6585 22.556 40.802 22.2454 41.0764 22.2102C42.8516 21.9815 44.2745 21.2976 45.1772 20.3882C45.4197 20.1441 45.2465 19.7285 44.9029 19.7285H41.3595C41.1468 19.7285 40.9747 19.5564 40.9747 19.3436V18.7609C40.9747 18.5481 41.1468 18.376 41.3595 18.376H45.8887C46.0871 18.376 46.2504 18.2248 46.2719 18.028C46.2763 17.9873 46.2807 17.9455 46.284 17.9032C46.3026 17.6772 46.1273 17.481 45.9002 17.481H41.0044C40.7916 17.481 40.6195 17.3089 40.6195 17.0961V16.5287C40.6195 16.316 40.7916 16.1439 41.0044 16.1439H46.2999V15.5111H42.9286C42.7158 15.5111 42.5438 15.339 42.5438 15.1262V14.605C42.5438 14.3923 42.7158 14.2202 42.9286 14.2202H46.2999V13.6176H41.2974C41.0846 13.6176 40.9125 13.4455 40.9125 13.2328V12.6654C40.9125 12.4526 41.0846 12.2805 41.2974 12.2805H43.4855C43.8066 12.2805 43.9864 11.9083 43.7885 11.656C43.6708 11.5059 43.5537 11.3652 43.4432 11.2393C43.2634 11.0336 43.3497 10.7148 43.607 10.6246L44.4905 10.3167C44.6357 10.2661 44.7995 10.3052 44.9023 10.4201C45.2542 10.8126 45.5615 11.2233 45.7968 11.5559C45.9447 11.7648 45.8502 12.0551 45.6083 12.1398L45.2075 12.2805H48.013C48.1444 12.2805 48.2648 12.2173 48.3357 12.1063C48.6205 11.6587 48.9455 11.1364 49.2682 10.524C49.3589 10.3519 49.5618 10.2689 49.7437 10.3371L50.8719 10.7576C50.9956 10.8038 51.2265 10.8962 51.2265 11.0655C51.2265 11.1117 51.2111 11.143 51.1952 11.1733C51.149 11.2195 50.8406 11.3118 50.7944 11.358C50.7642 11.3888 50.2402 12.1277 50.1478 12.2816H53.2574C53.4702 12.2816 53.6423 12.4537 53.6423 12.6665V13.2339C53.6423 13.4466 53.4702 13.6187 53.2574 13.6187H48.3006V14.2213H51.6103C51.823 14.2213 51.9951 14.3934 51.9951 14.6061V15.1273C51.9951 15.3401 51.823 15.5122 51.6103 15.5122H48.3006V16.145H53.5345C53.7473 16.145 53.9194 16.3171 53.9194 16.5298V17.0972C53.9194 17.31 53.7473 17.4821 53.5345 17.4821H48.5661C48.3621 17.4821 48.195 17.6404 48.1824 17.8438C48.1802 17.8812 48.1774 17.9197 48.1741 17.9593C48.156 18.183 48.3325 18.3766 48.5573 18.3766H53.2272C53.44 18.3766 53.612 18.5487 53.612 18.7614V19.3442C53.612 19.557 53.44 19.729 53.2272 19.729H49.4557C49.1011 19.729 48.9339 20.1683 49.1978 20.4047C50.3133 21.4042 52.0188 21.9293 53.4922 22.1448C53.7825 22.1871 53.9161 22.5258 53.7368 22.7584L52.9303 23.8002C52.839 23.9179 52.6906 23.9739 52.5455 23.9415L52.5466 23.9404Z" fill="#FF0000"/>
<path d="M68.544 16.311V23.3923C68.544 23.605 68.372 23.7771 68.1592 23.7771H66.0986C65.932 23.7771 65.7847 23.6699 65.733 23.5116L65.4477 22.6385C65.3657 22.3884 65.5532 22.1316 65.8166 22.1338C66.1354 22.1365 66.4785 22.1382 66.5604 22.1294C66.7303 22.114 66.8535 22.0678 66.8535 21.6676V16.311C66.8535 16.0983 66.6814 15.9262 66.4686 15.9262H65.4207C65.2079 15.9262 65.0359 15.7541 65.0359 15.5413V15.3258C65.0359 15.113 64.8638 14.941 64.651 14.941H63.7725C63.5597 14.941 63.3876 15.113 63.3876 15.3258V23.4071C63.3876 23.6199 63.2155 23.792 63.0028 23.792H62.1429C61.9301 23.792 61.758 23.6199 61.758 23.4071V15.3258C61.758 15.113 61.586 14.941 61.3732 14.941H59.8327V14.6485C59.7249 14.8184 59.6012 15.0493 59.1697 15.6799C59.2626 15.726 59.4627 15.8184 59.4627 15.9883C59.4627 16.0653 59.4165 16.1114 59.3549 16.1576C59.1548 16.3424 59.1235 16.3731 59.1235 16.4963V20.6681C59.5501 19.2623 59.7277 18.1577 59.8008 16.5216C59.8107 16.294 60.0125 16.123 60.2384 16.1543L61.3721 16.3116C61.526 16.3264 61.6646 16.4347 61.6646 16.5425C61.6646 16.681 61.4645 16.758 61.3721 16.8042C61.3039 18.2562 61.089 19.9528 60.7822 20.9589C60.7228 21.1535 60.5243 21.2668 60.3264 21.2212L59.5946 21.0529C59.3533 20.9974 59.1235 21.1805 59.1235 21.4279V23.4071C59.1235 23.6199 58.9514 23.792 58.7386 23.792H57.8023C57.5896 23.792 57.4175 23.6199 57.4175 23.4071V17.9428C57.2899 18.0874 57.2234 18.1616 57.1475 18.243C57.0134 18.3876 56.7918 18.4085 56.634 18.2908L55.872 17.7212C55.6818 17.5788 55.6681 17.3039 55.838 17.1373C56.8628 16.1329 57.7232 14.9613 58.4 13.6869C58.4973 13.5033 58.7194 13.4274 58.9063 13.5187L59.8327 13.9706V13.2932H61.3737C61.5865 13.2932 61.7586 13.1212 61.7586 12.9084V10.8187C61.7586 10.5987 61.9422 10.4234 62.1621 10.4344L63.3579 10.4921C63.5113 10.4921 63.6971 10.5691 63.6971 10.7076C63.6971 10.7384 63.6812 10.8154 63.5888 10.8769C63.4503 10.9847 63.3882 11.0468 63.3882 11.1694V12.9089C63.3882 13.1217 63.5602 13.2938 63.773 13.2938H64.7126C64.9254 13.2938 65.0974 13.4659 65.0974 13.6786V13.9865C65.0974 14.1993 65.2695 14.3714 65.4823 14.3714H68.9454C69.1582 14.3714 69.3302 14.5435 69.3302 14.7562V15.5413C69.3302 15.7541 69.1582 15.9262 68.9454 15.9262H68.9305C68.7178 15.9262 68.5457 16.0983 68.5457 16.311H68.544ZM59.7392 11.8308C59.5693 11.8462 59.5232 11.8462 59.416 11.9545C58.605 12.7655 57.9546 13.2938 57.2322 13.8144C57.081 13.9233 56.8727 13.9068 56.7391 13.7765L56.0623 13.1162C55.8874 12.9458 55.9155 12.6599 56.1172 12.5224C56.8924 11.9936 57.6303 11.4113 58.2735 10.7323C58.4093 10.5894 58.627 10.5669 58.7837 10.6862L59.6612 11.3536C59.8772 11.5075 59.9234 11.5845 59.9234 11.662C59.9234 11.8006 59.8162 11.8154 59.7387 11.8314L59.7392 11.8308ZM63.9352 12.6423C63.8439 12.2487 63.7554 11.9732 63.6784 11.7714C63.5982 11.5603 63.7092 11.3256 63.9259 11.2612L64.3354 11.1392C64.5213 11.0837 64.7175 11.1771 64.7984 11.3536C64.9485 11.6818 65.0623 11.9848 65.1612 12.3201C65.2233 12.5296 65.1002 12.7512 64.8885 12.8056L64.4069 12.9304C64.198 12.9848 63.9841 12.8523 63.9352 12.6417V12.6423ZM64.1963 20.5378C64.1733 19.5949 64.1084 18.3386 63.8764 16.659C63.8467 16.4452 63.9968 16.2434 64.2112 16.2187L64.9144 16.1373C65.1194 16.1136 65.3091 16.2577 65.341 16.4617C65.5439 17.7564 65.639 18.9461 65.6736 20.3481C65.678 20.5312 65.5521 20.6967 65.3734 20.7373L64.6664 20.8995C64.4295 20.954 64.2018 20.7808 64.1958 20.5378H64.1963ZM65.4823 12.1843V11.4306C65.4823 11.2178 65.6544 11.0457 65.8671 11.0457H68.8222C69.035 11.0457 69.2071 11.2178 69.2071 11.4306V12.1843C69.2071 12.3971 69.035 12.5692 68.8222 12.5692H65.8671C65.6544 12.5692 65.4823 12.3971 65.4823 12.1843Z" fill="#FF0000"/>
<path d="M82.7908 23.6804C80.1964 22.0569 79.0726 20.7732 78.1143 18.8385C77.9752 18.5575 77.5755 18.5526 77.4304 18.8302C76.1494 21.2894 74.7777 22.6523 72.4625 23.8267C72.3207 23.8987 72.1458 23.8756 72.0276 23.7689L71.1645 22.9943C70.955 22.8063 71.0144 22.4698 71.2711 22.3538C74.2526 21.0112 75.5842 19.1507 76.3478 16.3633C76.4144 16.1203 76.2264 15.879 75.974 15.879H71.5152C71.3025 15.879 71.1304 15.7069 71.1304 15.4941V14.6013C71.1304 14.3885 71.3025 14.2164 71.5152 14.2164H76.2995C76.5029 14.2164 76.6722 14.0581 76.6843 13.8552C76.719 13.2818 76.719 12.7139 76.719 12.5231C76.719 11.8633 76.7025 11.3306 76.681 10.8979C76.67 10.6703 76.8581 10.4861 77.0857 10.4982L78.7048 10.5834C78.8125 10.5834 78.9665 10.5983 78.9665 10.7682C78.9665 10.8913 78.8131 11.0299 78.6745 11.153C78.6432 11.4763 78.6432 11.2762 78.6432 12.0459C78.6432 12.1619 78.6218 13.0943 78.597 13.82C78.5893 14.0377 78.7636 14.2164 78.9819 14.2164H83.9849C84.1977 14.2164 84.3698 14.3885 84.3698 14.6013V15.4941C84.3698 15.7069 84.1977 15.879 83.9849 15.879H79.2694C79.0022 15.879 78.8197 16.144 78.9071 16.3958C79.7829 18.911 80.9776 20.4928 84.1339 22.1119C84.3731 22.2345 84.4226 22.555 84.2257 22.7381L83.262 23.6359C83.1344 23.7546 82.9387 23.7717 82.7908 23.6793V23.6804Z" fill="#FF0000"/>
<path d="M97.101 16.6184V15.5409C97.101 15.3281 96.9289 15.156 96.7162 15.156H88.3578C88.145 15.156 87.9729 15.3281 87.9729 15.5409V16.6954C87.9729 16.9082 87.8008 17.0803 87.5881 17.0803H86.6952C86.4824 17.0803 86.3104 16.9082 86.3104 16.6954V14.1109C86.3104 13.8981 86.4824 13.726 86.6952 13.726H93.7616C93.8782 13.726 93.9892 13.6738 94.0623 13.5836C94.6836 12.8216 95.2548 12.0233 95.6815 11.1415C95.7661 10.9667 95.9624 10.8781 96.1466 10.9392L97.3473 11.3394C97.4397 11.3707 97.6096 11.478 97.6096 11.6017C97.6096 11.6632 97.5782 11.6786 97.5485 11.694C97.5023 11.7402 97.1631 11.8172 97.1021 11.8787C96.8734 12.3032 96.6529 12.6737 96.3418 13.1207C96.1647 13.3753 96.3461 13.726 96.6568 13.726H98.4106C98.6234 13.726 98.7954 13.8981 98.7954 14.1109V16.6184C98.7954 16.8312 98.6234 17.0033 98.4106 17.0033H97.487C97.2742 17.0033 97.1021 16.8312 97.1021 16.6184H97.101ZM93.8831 20.2817C93.6703 20.2817 93.4983 20.4538 93.4983 20.6665V22.6078C93.4983 23.6837 92.606 23.9454 91.6664 23.9454H90.9539C90.7983 23.9454 90.6581 23.852 90.5981 23.7079L90.2628 22.8998C90.1523 22.6342 90.3623 22.345 90.6487 22.3687C90.906 22.3895 91.16 22.4082 91.2507 22.4082C91.513 22.4082 91.6202 22.1768 91.6202 21.9459V20.6665C91.6202 20.4538 91.4481 20.2817 91.2353 20.2817H86.6947C86.4819 20.2817 86.3098 20.1096 86.3098 19.8968V19.1601C86.3098 18.9473 86.4819 18.7753 86.6947 18.7753H91.2353C91.4481 18.7753 91.6202 18.6032 91.6202 18.3904V17.8197L92.1766 17.9126C92.292 17.9319 92.413 17.8983 92.4987 17.8186C92.7352 17.5987 92.8396 17.4525 92.9441 17.2958H89.2193C89.0065 17.2958 88.8344 17.1237 88.8344 16.9109V16.2512C88.8344 16.0384 89.0065 15.8663 89.2193 15.8663H95.5968C95.7282 15.8663 95.8508 15.9334 95.9217 16.0445L96.0636 16.2671C96.1658 16.4277 96.1356 16.6371 95.9932 16.763C95.5424 17.1605 94.9563 17.6493 94.3988 18.0902C94.1129 18.3162 94.2746 18.7758 94.6391 18.7758H98.3325C98.5453 18.7758 98.7174 18.9479 98.7174 19.1607V19.8974C98.7174 20.1101 98.5453 20.2822 98.3325 20.2822H93.8837L93.8831 20.2817ZM88.4776 13.2197C88.2275 12.7474 87.9641 12.3334 87.6084 11.8732C87.4693 11.6935 87.5204 11.4307 87.7145 11.3125L88.476 10.849C88.6376 10.7506 88.8487 10.783 88.9702 10.9287C89.3248 11.3543 89.6498 11.7979 89.9565 12.345C90.0555 12.5214 89.9939 12.748 89.8229 12.8563L89.0208 13.3632C88.8328 13.4819 88.5815 13.417 88.4771 13.2202L88.4776 13.2197ZM91.9864 12.9393C91.7082 12.4098 91.4047 11.9288 90.9956 11.3982C90.856 11.2174 90.9104 10.9535 91.1072 10.8369L91.8445 10.3993C92.0078 10.3025 92.2217 10.3399 92.3415 10.4867C92.8303 11.0887 93.1739 11.6236 93.4559 12.1465C93.5582 12.3362 93.4895 12.572 93.2992 12.6732L92.5048 13.0949C92.3184 13.1938 92.0842 13.1257 91.9864 12.9387V12.9393Z" fill="#FF0000"/>
<path d="M12.77 24.0405L12.1289 23.1372C11.9574 22.8959 12.1135 22.5622 12.4082 22.5336C14.0433 22.3741 15.7581 22.0734 17.4602 21.4181C17.706 21.3235 17.7818 21.0074 17.613 20.8056C17.3799 20.5269 17.1391 20.2696 16.8631 20.0123C16.74 19.8974 16.5498 19.8814 16.4041 19.9655C15.4991 20.4873 14.9378 20.7259 14.3094 20.9436C14.1703 20.992 14.0152 20.9546 13.9119 20.8496L13.2543 20.1843C13.0537 19.9815 13.1383 19.6439 13.4077 19.5488C14.6574 19.1062 15.7416 18.5284 16.6229 17.9154C17.0039 17.6504 16.6663 17.0583 16.243 17.2496C15.4744 17.5965 14.548 17.9627 13.4468 18.3085C13.2939 18.3563 13.1224 18.3046 13.0234 18.1787L12.4357 17.4299C12.2647 17.2122 12.3725 16.8873 12.6408 16.8202C14.2868 16.4068 15.3694 15.9301 16.1649 15.5387C16.3969 15.4243 16.453 15.1142 16.2716 14.9295C16.0242 14.6771 15.7625 14.4506 15.4205 14.2098C15.2924 14.1197 15.1198 14.1213 14.9884 14.2065C14.5634 14.4831 14.1697 14.7046 13.6068 14.9861C13.4754 15.0515 13.3143 15.0378 13.1977 14.9487L12.4638 14.3885C12.2372 14.2153 12.2713 13.8618 12.5281 13.7376C15.0159 12.5396 15.9747 11.3124 16.5058 10.4493C16.5877 10.3162 16.7444 10.2492 16.8983 10.2772L18.5147 10.5686C18.6994 10.5994 18.8688 10.6763 18.8688 10.7995C18.8688 10.8919 18.8072 10.938 18.7456 10.9534C18.6994 10.9842 18.4372 11.0304 18.391 11.0612C18.3448 11.092 18.1749 11.3229 18.1287 11.3691H22.0674C22.1856 11.3691 22.2967 11.423 22.3698 11.5159L22.7909 12.0508C22.9102 12.202 22.902 12.4153 22.7684 12.5539C22.3005 13.0382 21.2999 13.985 20.2861 14.8085C20.0535 14.9971 20.1184 15.3666 20.4005 15.4677L21.0388 15.6959C21.1619 15.7421 21.3005 15.8036 21.3005 15.9422C21.3005 16.0494 21.2389 16.0807 21.2081 16.0956C21.1311 16.1269 20.7925 16.2033 20.7309 16.2655C20.6534 16.3424 20.3004 16.7889 20.208 16.8812H23.5645C23.6805 16.8812 23.7904 16.9335 23.8636 17.0242L24.089 17.3029C24.1967 17.436 24.2044 17.6267 24.1071 17.7675C21.875 20.9931 19.1458 23.1741 13.1537 24.1989C13.0075 24.2242 12.8552 24.1626 12.7694 24.0411L12.77 24.0405ZM16.9286 12.6935C16.7587 12.8469 16.7438 12.8628 16.4981 13.0784C17.0028 13.4016 17.4426 13.7689 17.8528 14.1889C17.9869 14.3264 18.2008 14.3506 18.3558 14.2379C18.7698 13.9366 19.1134 13.6589 19.429 13.3511C19.6742 13.1119 19.4983 12.6935 19.1557 12.6935H16.9286V12.6935ZM18.546 18.4619C18.4509 18.5399 18.3838 18.5955 18.3212 18.6477C18.137 18.8005 18.1348 19.0787 18.3168 19.2343C18.5889 19.4669 18.8896 19.7484 19.2003 20.081C19.3383 20.2289 19.5653 20.2514 19.7242 20.1266C20.108 19.8253 20.4571 19.5087 20.8936 19.0199C21.1157 18.7714 20.942 18.3744 20.6088 18.3744H18.7907C18.7016 18.3744 18.6148 18.4058 18.546 18.4624V18.4619Z" fill="#FF0000"/>
<path d="M37.9227 16.7014C37.8039 16.8009 37.6351 16.8196 37.4977 16.7476C36.805 16.3842 36.303 16.0581 35.6636 15.4176V16.1417C35.6636 16.3545 35.4915 16.5266 35.2787 16.5266H34.6014C34.3886 16.5266 34.2166 16.3545 34.2166 16.1417V15.5254C33.9664 15.8261 33.5843 16.2176 33.2187 16.4864C33.0785 16.5892 32.8888 16.5876 32.7514 16.4809L32.0152 15.9102L31.8305 16.0339C31.5996 15.9102 31.4 15.7415 31.1999 15.5413V16.3732C31.1999 16.5859 31.0278 16.758 30.815 16.758H30.1993C29.9865 16.758 29.8144 16.5859 29.8144 16.3732V15.4182C29.4741 15.8811 29.0948 16.2478 28.7682 16.5255C28.6269 16.6453 28.4229 16.6486 28.2778 16.5337L27.844 16.189C27.7714 19.2463 27.5883 21.0771 26.9176 22.7391C26.85 22.9063 26.6708 23.0019 26.4926 22.9706L25.4376 22.7859C25.1918 22.743 25.0511 22.4802 25.1522 22.252C25.7927 20.805 26.2738 19.3569 26.2738 16.035C26.2738 14.7551 26.1858 13.0239 26.0891 11.6928C26.0731 11.4696 26.2491 11.2794 26.4728 11.2794H30.8145C31.0273 11.2794 31.1993 11.1073 31.1993 10.8946V10.8654C31.1993 10.646 31.3819 10.4712 31.6007 10.4811L32.9691 10.5405C33.2 10.5559 33.4617 10.6334 33.4617 10.8027C33.4617 10.8643 33.3693 10.9259 33.3078 10.9567C33.1384 11.049 33.1384 11.0798 33.1384 11.28H38.3564C38.5692 11.28 38.7413 11.452 38.7413 11.6648V12.2014C38.7413 12.4142 38.5692 12.5862 38.3564 12.5862H35.663V13.3576H38.3564C38.5692 13.3576 38.7413 13.5297 38.7413 13.7424V14.1251C38.7413 14.3379 38.5692 14.5099 38.3564 14.5099H37.5532C37.1766 14.5099 37.0221 14.9921 37.3294 15.2098C37.5878 15.3929 37.8891 15.5809 38.2223 15.753C38.467 15.88 38.5071 16.2126 38.296 16.3897L37.9221 16.7025L37.9227 16.7014ZM29.8133 12.5846H27.8121C27.8209 12.6451 27.8292 12.8122 27.8352 12.9854C27.8423 13.1921 28.0128 13.3559 28.2201 13.3559H29.8133V12.5846V12.5846ZM28.2426 14.5704C28.0304 14.5704 27.8588 14.7403 27.8577 14.9525C27.8566 15.2142 27.8528 15.499 27.8429 15.7101C28.1354 15.5716 28.7363 15.0482 29.1206 14.5704H28.2426ZM34.2314 21.4977C34.0186 21.4977 33.8466 21.6698 33.8466 21.8826V22.6072C33.8466 23.6397 32.4028 23.7601 31.5924 23.7848C31.4368 23.7898 31.2967 23.7002 31.2323 23.5583L30.8821 22.7826C30.7661 22.5258 30.9596 22.235 31.2417 22.2394C32.1153 22.2537 32.1692 22.1778 32.1692 21.7132V21.4966H28.2437C28.0309 21.4966 27.8588 21.3245 27.8588 21.1118V20.6983C27.8588 20.4856 28.0309 20.3135 28.2437 20.3135H32.1692V19.8654H28.9364C28.7237 19.8654 28.5516 19.6933 28.5516 19.4806V19.0671C28.5516 18.8543 28.7237 18.6823 28.9364 18.6823H32.1692V18.2182C30.5226 18.2457 29.9282 18.249 29.2839 18.2386C29.1371 18.2364 29.0046 18.1512 28.9414 18.0187L28.7973 17.7152C28.6698 17.4452 28.8869 17.1396 29.1844 17.1676C29.7243 17.2187 30.075 17.2358 30.583 17.2358C31.4143 17.2358 32.2764 17.1742 33.0307 17.1121C34.5283 16.9708 35.2606 16.7778 36.0495 16.5441C36.1815 16.5051 36.325 16.5387 36.4251 16.6338L37.1722 17.343C37.2794 17.4354 37.3718 17.5733 37.3718 17.6503C37.3718 17.7278 37.2794 17.7427 37.2332 17.7427C37.1871 17.7427 36.9715 17.7278 36.9254 17.7278C36.833 17.7278 36.3706 17.835 36.2634 17.8504C35.232 18.0352 34.3853 18.0962 33.8466 18.1275V18.6834H37.3872C37.5999 18.6834 37.772 18.8554 37.772 19.0682V19.4817C37.772 19.6944 37.5999 19.8665 37.3872 19.8665H33.8466V20.3146H38.3108C38.5236 20.3146 38.6957 20.4867 38.6957 20.6994V21.1129C38.6957 21.3256 38.5236 21.4977 38.3108 21.4977H34.2314V21.4977ZM34.216 12.5846H31.1993V13.3559H31.9685C32.1813 13.3559 32.3533 13.528 32.3533 13.7408V14.5704H31.6304C31.7475 14.6617 32.1626 14.9954 32.604 15.2082C32.7453 15.2763 32.9147 15.2505 33.0318 15.1466C33.3721 14.8448 33.5172 14.6936 33.6618 14.5083H32.9081V13.7402C32.9081 13.5275 33.0802 13.3554 33.2929 13.3554H34.216V12.584V12.5846Z" fill="#FF0000"/>
<path d="M52.5466 23.9404C51.2238 23.6441 49.2335 23.0294 47.4962 21.1096C47.3351 20.9314 47.0619 20.9369 46.9069 21.12C45.5637 22.7023 43.7033 23.555 41.8081 23.9415C41.6498 23.9739 41.4882 23.9008 41.403 23.7634L40.8037 22.7914C40.6585 22.556 40.802 22.2454 41.0764 22.2102C42.8516 21.9815 44.2745 21.2976 45.1772 20.3882C45.4197 20.1441 45.2465 19.7285 44.9029 19.7285H41.3595C41.1468 19.7285 40.9747 19.5564 40.9747 19.3436V18.7609C40.9747 18.5481 41.1468 18.376 41.3595 18.376H45.8887C46.0871 18.376 46.2504 18.2248 46.2719 18.028C46.2763 17.9873 46.2807 17.9455 46.284 17.9032C46.3026 17.6772 46.1273 17.481 45.9002 17.481H41.0044C40.7916 17.481 40.6195 17.3089 40.6195 17.0961V16.5287C40.6195 16.316 40.7916 16.1439 41.0044 16.1439H46.2999V15.5111H42.9286C42.7158 15.5111 42.5438 15.339 42.5438 15.1262V14.605C42.5438 14.3923 42.7158 14.2202 42.9286 14.2202H46.2999V13.6176H41.2974C41.0846 13.6176 40.9125 13.4455 40.9125 13.2328V12.6654C40.9125 12.4526 41.0846 12.2805 41.2974 12.2805H43.4855C43.8066 12.2805 43.9864 11.9083 43.7885 11.656C43.6708 11.5059 43.5537 11.3652 43.4432 11.2393C43.2634 11.0336 43.3497 10.7148 43.607 10.6246L44.4905 10.3167C44.6357 10.2661 44.7995 10.3052 44.9023 10.4201C45.2542 10.8126 45.5615 11.2233 45.7968 11.5559C45.9447 11.7648 45.8502 12.0551 45.6083 12.1398L45.2075 12.2805H48.013C48.1444 12.2805 48.2648 12.2173 48.3357 12.1063C48.6205 11.6587 48.9455 11.1364 49.2682 10.524C49.3589 10.3519 49.5618 10.2689 49.7437 10.3371L50.8719 10.7576C50.9956 10.8038 51.2265 10.8962 51.2265 11.0655C51.2265 11.1117 51.2111 11.143 51.1952 11.1733C51.149 11.2195 50.8406 11.3118 50.7944 11.358C50.7642 11.3888 50.2402 12.1277 50.1478 12.2816H53.2574C53.4702 12.2816 53.6423 12.4537 53.6423 12.6665V13.2339C53.6423 13.4466 53.4702 13.6187 53.2574 13.6187H48.3006V14.2213H51.6103C51.823 14.2213 51.9951 14.3934 51.9951 14.6061V15.1273C51.9951 15.3401 51.823 15.5122 51.6103 15.5122H48.3006V16.145H53.5345C53.7473 16.145 53.9194 16.3171 53.9194 16.5298V17.0972C53.9194 17.31 53.7473 17.4821 53.5345 17.4821H48.5661C48.3621 17.4821 48.195 17.6404 48.1824 17.8438C48.1802 17.8812 48.1774 17.9197 48.1741 17.9593C48.156 18.183 48.3325 18.3766 48.5573 18.3766H53.2272C53.44 18.3766 53.612 18.5487 53.612 18.7614V19.3442C53.612 19.557 53.44 19.729 53.2272 19.729H49.4557C49.1011 19.729 48.9339 20.1683 49.1978 20.4047C50.3133 21.4042 52.0188 21.9293 53.4922 22.1448C53.7825 22.1871 53.9161 22.5258 53.7368 22.7584L52.9303 23.8002C52.839 23.9179 52.6906 23.9739 52.5455 23.9415L52.5466 23.9404Z" fill="#FF0000"/>
<path d="M68.544 16.311V23.3923C68.544 23.605 68.372 23.7771 68.1592 23.7771H66.0986C65.932 23.7771 65.7847 23.6699 65.733 23.5116L65.4477 22.6385C65.3657 22.3884 65.5532 22.1316 65.8166 22.1338C66.1354 22.1365 66.4785 22.1382 66.5604 22.1294C66.7303 22.114 66.8535 22.0678 66.8535 21.6676V16.311C66.8535 16.0983 66.6814 15.9262 66.4686 15.9262H65.4207C65.2079 15.9262 65.0359 15.7541 65.0359 15.5413V15.3258C65.0359 15.113 64.8638 14.941 64.651 14.941H63.7725C63.5597 14.941 63.3876 15.113 63.3876 15.3258V23.4071C63.3876 23.6199 63.2155 23.792 63.0028 23.792H62.1429C61.9301 23.792 61.758 23.6199 61.758 23.4071V15.3258C61.758 15.113 61.586 14.941 61.3732 14.941H59.8327V14.6485C59.7249 14.8184 59.6012 15.0493 59.1697 15.6799C59.2626 15.726 59.4627 15.8184 59.4627 15.9883C59.4627 16.0653 59.4165 16.1114 59.3549 16.1576C59.1548 16.3424 59.1235 16.3731 59.1235 16.4963V20.6681C59.5501 19.2623 59.7277 18.1577 59.8008 16.5216C59.8107 16.294 60.0125 16.123 60.2384 16.1543L61.3721 16.3116C61.526 16.3264 61.6646 16.4347 61.6646 16.5425C61.6646 16.681 61.4645 16.758 61.3721 16.8042C61.3039 18.2562 61.089 19.9528 60.7822 20.9589C60.7228 21.1535 60.5243 21.2668 60.3264 21.2212L59.5946 21.0529C59.3533 20.9974 59.1235 21.1805 59.1235 21.4279V23.4071C59.1235 23.6199 58.9514 23.792 58.7386 23.792H57.8023C57.5896 23.792 57.4175 23.6199 57.4175 23.4071V17.9428C57.2899 18.0874 57.2234 18.1616 57.1475 18.243C57.0134 18.3876 56.7918 18.4085 56.634 18.2908L55.872 17.7212C55.6818 17.5788 55.6681 17.3039 55.838 17.1373C56.8628 16.1329 57.7232 14.9613 58.4 13.6869C58.4973 13.5033 58.7194 13.4274 58.9063 13.5187L59.8327 13.9706V13.2932H61.3737C61.5865 13.2932 61.7586 13.1212 61.7586 12.9084V10.8187C61.7586 10.5987 61.9422 10.4234 62.1621 10.4344L63.3579 10.4921C63.5113 10.4921 63.6971 10.5691 63.6971 10.7076C63.6971 10.7384 63.6812 10.8154 63.5888 10.8769C63.4503 10.9847 63.3882 11.0468 63.3882 11.1694V12.9089C63.3882 13.1217 63.5602 13.2938 63.773 13.2938H64.7126C64.9254 13.2938 65.0974 13.4659 65.0974 13.6786V13.9865C65.0974 14.1993 65.2695 14.3714 65.4823 14.3714H68.9454C69.1582 14.3714 69.3302 14.5435 69.3302 14.7562V15.5413C69.3302 15.7541 69.1582 15.9262 68.9454 15.9262H68.9305C68.7178 15.9262 68.5457 16.0983 68.5457 16.311H68.544ZM59.7392 11.8308C59.5693 11.8462 59.5232 11.8462 59.416 11.9545C58.605 12.7655 57.9546 13.2938 57.2322 13.8144C57.081 13.9233 56.8727 13.9068 56.7391 13.7765L56.0623 13.1162C55.8874 12.9458 55.9155 12.6599 56.1172 12.5224C56.8924 11.9936 57.6303 11.4113 58.2735 10.7323C58.4093 10.5894 58.627 10.5669 58.7837 10.6862L59.6612 11.3536C59.8772 11.5075 59.9234 11.5845 59.9234 11.662C59.9234 11.8006 59.8162 11.8154 59.7387 11.8314L59.7392 11.8308ZM63.9352 12.6423C63.8439 12.2487 63.7554 11.9732 63.6784 11.7714C63.5982 11.5603 63.7092 11.3256 63.9259 11.2612L64.3354 11.1392C64.5213 11.0837 64.7175 11.1771 64.7984 11.3536C64.9485 11.6818 65.0623 11.9848 65.1612 12.3201C65.2233 12.5296 65.1002 12.7512 64.8885 12.8056L64.4069 12.9304C64.198 12.9848 63.9841 12.8523 63.9352 12.6417V12.6423ZM64.1963 20.5378C64.1733 19.5949 64.1084 18.3386 63.8764 16.659C63.8467 16.4452 63.9968 16.2434 64.2112 16.2187L64.9144 16.1373C65.1194 16.1136 65.3091 16.2577 65.341 16.4617C65.5439 17.7564 65.639 18.9461 65.6736 20.3481C65.678 20.5312 65.5521 20.6967 65.3734 20.7373L64.6664 20.8995C64.4295 20.954 64.2018 20.7808 64.1958 20.5378H64.1963ZM65.4823 12.1843V11.4306C65.4823 11.2178 65.6544 11.0457 65.8671 11.0457H68.8222C69.035 11.0457 69.2071 11.2178 69.2071 11.4306V12.1843C69.2071 12.3971 69.035 12.5692 68.8222 12.5692H65.8671C65.6544 12.5692 65.4823 12.3971 65.4823 12.1843Z" fill="#FF0000"/>
<path d="M82.7908 23.6804C80.1964 22.0569 79.0726 20.7732 78.1143 18.8385C77.9752 18.5575 77.5755 18.5526 77.4304 18.8302C76.1494 21.2894 74.7777 22.6523 72.4625 23.8267C72.3207 23.8987 72.1458 23.8756 72.0276 23.7689L71.1645 22.9943C70.955 22.8063 71.0144 22.4698 71.2711 22.3538C74.2526 21.0112 75.5842 19.1507 76.3478 16.3633C76.4144 16.1203 76.2264 15.879 75.974 15.879H71.5152C71.3025 15.879 71.1304 15.7069 71.1304 15.4941V14.6013C71.1304 14.3885 71.3025 14.2164 71.5152 14.2164H76.2995C76.5029 14.2164 76.6722 14.0581 76.6843 13.8552C76.719 13.2818 76.719 12.7139 76.719 12.5231C76.719 11.8633 76.7025 11.3306 76.681 10.8979C76.67 10.6703 76.8581 10.4861 77.0857 10.4982L78.7048 10.5834C78.8125 10.5834 78.9665 10.5983 78.9665 10.7682C78.9665 10.8913 78.8131 11.0299 78.6745 11.153C78.6432 11.4763 78.6432 11.2762 78.6432 12.0459C78.6432 12.1619 78.6218 13.0943 78.597 13.82C78.5893 14.0377 78.7636 14.2164 78.9819 14.2164H83.9849C84.1977 14.2164 84.3698 14.3885 84.3698 14.6013V15.4941C84.3698 15.7069 84.1977 15.879 83.9849 15.879H79.2694C79.0022 15.879 78.8197 16.144 78.9071 16.3958C79.7829 18.911 80.9776 20.4928 84.1339 22.1119C84.3731 22.2345 84.4226 22.555 84.2257 22.7381L83.262 23.6359C83.1344 23.7546 82.9387 23.7717 82.7908 23.6793V23.6804Z" fill="#FF0000"/>
<path d="M97.101 16.6184V15.5409C97.101 15.3281 96.9289 15.156 96.7162 15.156H88.3578C88.145 15.156 87.9729 15.3281 87.9729 15.5409V16.6954C87.9729 16.9082 87.8008 17.0803 87.5881 17.0803H86.6952C86.4824 17.0803 86.3104 16.9082 86.3104 16.6954V14.1109C86.3104 13.8981 86.4824 13.726 86.6952 13.726H93.7616C93.8782 13.726 93.9892 13.6738 94.0623 13.5836C94.6836 12.8216 95.2548 12.0233 95.6815 11.1415C95.7661 10.9667 95.9624 10.8781 96.1466 10.9392L97.3473 11.3394C97.4397 11.3707 97.6096 11.478 97.6096 11.6017C97.6096 11.6632 97.5782 11.6786 97.5485 11.694C97.5023 11.7402 97.1631 11.8172 97.1021 11.8787C96.8734 12.3032 96.6529 12.6737 96.3418 13.1207C96.1647 13.3753 96.3461 13.726 96.6568 13.726H98.4106C98.6234 13.726 98.7954 13.8981 98.7954 14.1109V16.6184C98.7954 16.8312 98.6234 17.0033 98.4106 17.0033H97.487C97.2742 17.0033 97.1021 16.8312 97.1021 16.6184H97.101ZM93.8831 20.2817C93.6703 20.2817 93.4983 20.4538 93.4983 20.6665V22.6078C93.4983 23.6837 92.606 23.9454 91.6664 23.9454H90.9539C90.7983 23.9454 90.6581 23.852 90.5981 23.7079L90.2628 22.8998C90.1523 22.6342 90.3623 22.345 90.6487 22.3687C90.906 22.3895 91.16 22.4082 91.2507 22.4082C91.513 22.4082 91.6202 22.1768 91.6202 21.9459V20.6665C91.6202 20.4538 91.4481 20.2817 91.2353 20.2817H86.6947C86.4819 20.2817 86.3098 20.1096 86.3098 19.8968V19.1601C86.3098 18.9473 86.4819 18.7753 86.6947 18.7753H91.2353C91.4481 18.7753 91.6202 18.6032 91.6202 18.3904V17.8197L92.1766 17.9126C92.292 17.9319 92.413 17.8983 92.4987 17.8186C92.7352 17.5987 92.8396 17.4525 92.9441 17.2958H89.2193C89.0065 17.2958 88.8344 17.1237 88.8344 16.9109V16.2512C88.8344 16.0384 89.0065 15.8663 89.2193 15.8663H95.5968C95.7282 15.8663 95.8508 15.9334 95.9217 16.0445L96.0636 16.2671C96.1658 16.4277 96.1356 16.6371 95.9932 16.763C95.5424 17.1605 94.9563 17.6493 94.3988 18.0902C94.1129 18.3162 94.2746 18.7758 94.6391 18.7758H98.3325C98.5453 18.7758 98.7174 18.9479 98.7174 19.1607V19.8974C98.7174 20.1101 98.5453 20.2822 98.3325 20.2822H93.8837L93.8831 20.2817ZM88.4776 13.2197C88.2275 12.7474 87.9641 12.3334 87.6084 11.8732C87.4693 11.6935 87.5204 11.4307 87.7145 11.3125L88.476 10.849C88.6376 10.7506 88.8487 10.783 88.9702 10.9287C89.3248 11.3543 89.6498 11.7979 89.9565 12.345C90.0555 12.5214 89.9939 12.748 89.8229 12.8563L89.0208 13.3632C88.8328 13.4819 88.5815 13.417 88.4771 13.2202L88.4776 13.2197ZM91.9864 12.9393C91.7082 12.4098 91.4047 11.9288 90.9956 11.3982C90.856 11.2174 90.9104 10.9535 91.1072 10.8369L91.8445 10.3993C92.0078 10.3025 92.2217 10.3399 92.3415 10.4867C92.8303 11.0887 93.1739 11.6236 93.4559 12.1465C93.5582 12.3362 93.4895 12.572 93.2992 12.6732L92.5048 13.0949C92.3184 13.1938 92.0842 13.1257 91.9864 12.9387V12.9393Z" fill="#FF0000"/>
<path d="M254.971 23.6838C254.254 23.6838 253.764 23.508 253.33 23.3328C252.585 23.0202 252.283 22.899 251.878 22.899C251.49 22.899 251.367 23.067 251.322 23.2542C251.291 23.382 251.184 23.472 251.059 23.4726L250.277 23.478C250.118 23.4792 249.988 23.3346 250.001 23.1666C250.137 21.4122 250.784 20.7438 252.915 19.6884C253.858 19.227 254.613 18.8214 254.613 17.8242C254.613 16.7256 253.547 16.413 252.963 16.413C251.916 16.413 251.529 17.1222 251.416 17.3256C251.53 17.28 251.68 17.2608 251.813 17.2608C252.039 17.2608 252.812 17.4366 252.812 18.2124C252.812 18.9582 252.161 19.2918 251.652 19.2918C251.03 19.2918 250.228 18.7932 250.228 17.8242C250.228 16.6344 251.34 15.2316 253.773 15.2316C256.206 15.2316 257.253 16.6146 257.253 17.9718C257.253 19.9464 255.348 20.436 254.537 20.6382C252.632 21.1194 252.113 21.3036 251.726 21.93C252.085 21.765 252.528 21.5526 253.292 21.5526C253.424 21.5526 253.83 21.5616 254.433 21.7086C255.028 21.8562 255.329 21.8844 255.49 21.8844C256.1 21.8844 256.255 21.4626 256.291 21.057C256.304 20.9082 256.421 20.796 256.562 20.796H257.208C257.366 20.796 257.489 20.9364 257.482 21.1038C257.434 22.3146 257.09 23.6838 254.971 23.6838V23.6838Z" fill="#FF0000"/>
<path d="M266.261 20.3988C265.897 22.392 264.37 23.6832 262.336 23.6832C259.996 23.6832 258.328 21.975 258.328 19.4562C258.328 17.256 259.623 15.6462 261.544 15.3006C264.306 14.8044 266.792 17.487 266.261 20.3988ZM262.336 16.2744C261.176 16.2744 260.893 18.0366 260.893 19.4568C260.893 20.8872 261.176 22.641 262.336 22.641C263.495 22.641 263.788 20.8788 263.788 19.4568C263.798 18.0366 263.495 16.2744 262.336 16.2744V16.2744Z" fill="#FF0000"/>
<path d="M274.351 20.796C274.509 20.796 274.632 20.9364 274.625 21.1038C274.577 22.314 274.233 23.6838 272.114 23.6838C271.397 23.6838 270.907 23.508 270.473 23.3328C269.728 23.0202 269.426 22.899 269.021 22.899C268.632 22.899 268.51 23.067 268.465 23.2548C268.433 23.3826 268.326 23.472 268.202 23.4732L267.42 23.4786C267.261 23.4798 267.131 23.3358 267.144 23.1672C267.28 21.4128 267.927 20.7444 270.058 19.689C271.001 19.2276 271.756 18.822 271.756 17.8248C271.756 16.7262 270.69 16.4136 270.106 16.4136C269.059 16.4136 268.672 17.1228 268.559 17.3262C268.673 17.2806 268.823 17.2614 268.955 17.2614C269.181 17.2614 269.955 17.4372 269.955 18.213C269.955 18.9588 269.304 19.2924 268.795 19.2924C268.172 19.2924 267.371 18.7938 267.371 17.8248C267.37 16.6344 268.483 15.2316 270.916 15.2316C273.349 15.2316 274.396 16.6146 274.396 17.9718C274.396 19.9464 272.491 20.436 271.68 20.6382C269.775 21.1194 269.256 21.3036 268.869 21.93C269.228 21.765 269.671 21.5526 270.435 21.5526C270.567 21.5526 270.973 21.5616 271.576 21.7086C272.171 21.8562 272.472 21.8844 272.632 21.8844C273.243 21.8844 273.397 21.4626 273.433 21.057C273.446 20.9082 273.563 20.796 273.704 20.796H274.35H274.351Z" fill="#FF0000"/>
<path d="M278.322 18.9498C278.322 18.789 278.445 18.6612 278.598 18.6594C279.153 18.6528 280.058 18.5208 280.058 17.547C280.058 16.5732 279.153 16.3374 278.483 16.3374C277.71 16.3374 277.483 16.5234 277.229 16.7256C277.898 16.8186 278.181 17.2068 278.181 17.6574C278.181 18.1926 277.804 18.7368 277.078 18.7368C276.352 18.7368 275.833 18.2208 275.833 17.445C275.832 16.1724 277.37 15.2316 279.379 15.2316C280.454 15.2316 282.698 15.5442 282.698 17.3448C282.698 18.1278 282.263 18.5802 281.803 18.8454C281.573 18.978 281.59 19.3398 281.831 19.4502C282.855 19.9206 283 20.8098 283 21.2382C283 23.0568 280.991 23.6832 279.265 23.6832C277.303 23.6832 275.559 22.8702 275.559 21.405C275.559 20.5098 276.238 19.992 276.889 19.992C277.54 19.992 278.077 20.4906 278.077 21.063C278.077 21.1824 278.077 21.876 277.077 22.1058C277.455 22.4094 277.973 22.5396 278.464 22.5396C279.19 22.5396 280.218 22.1886 280.218 21.1194C280.218 19.9578 279.218 19.797 278.584 19.7694C278.436 19.7628 278.322 19.6362 278.322 19.4796V18.9504V18.9498Z" fill="#FF0000"/>
<path d="M134.867 16.5984C134.145 16.2918 133.505 15.9745 132.701 15.4546C132.474 15.3081 132.174 15.4675 132.174 15.7379V16.1437C132.174 16.3312 132.022 16.4834 131.834 16.4834H126.297C126.109 16.4834 125.957 16.3315 125.957 16.1437V16.0473C125.957 15.7741 125.651 15.6153 125.425 15.7681C124.504 16.3905 123.875 16.6964 123.419 16.906C123.289 16.9655 123.138 16.9369 123.037 16.8354L122.244 16.0325C122.08 15.8671 122.126 15.5907 122.336 15.4899C124.241 14.5742 126.751 12.9527 128.252 10.2548C128.285 10.1946 128.353 10.1621 128.421 10.1757L129.657 10.1729C129.77 10.1729 129.847 10.2554 129.892 10.3389C130.23 10.9685 131.312 12.3445 132.605 13.2583C133.942 14.1917 135.128 14.7305 135.939 15.0012C136.168 15.0778 136.245 15.3601 136.087 15.5435L135.258 16.5077C135.162 16.6196 135.003 16.6571 134.867 16.5994L134.867 16.5984ZM131.742 23.2336H126.513C126.411 23.2336 126.246 23.2351 126.144 23.2351H124.982C124.795 23.2351 124.643 23.0833 124.643 22.8955V17.8998C124.643 17.7123 124.795 17.5601 124.982 17.5601H133.335C133.522 17.5601 133.675 17.712 133.675 17.8998V22.8945C133.675 23.082 133.523 23.2342 133.335 23.2342H132.111C132.01 23.2342 131.844 23.2336 131.743 23.2336H131.742ZM131.587 19.0761H126.668C126.48 19.0761 126.328 19.228 126.328 19.4158V21.3014C126.328 21.4888 126.48 21.641 126.668 21.641H131.587C131.775 21.641 131.927 21.4892 131.927 21.3014V19.4158C131.927 19.2283 131.775 19.0761 131.587 19.0761V19.0761ZM128.835 12.567C128.545 12.9729 128.127 13.501 127.406 14.1901C127.184 14.4022 127.331 14.7768 127.638 14.7768H130.779C131.093 14.7768 131.241 14.3867 131.003 14.1822C130.514 13.7619 129.989 13.2615 129.365 12.544C129.222 12.3789 128.962 12.3887 128.835 12.567Z" fill="#FF0000"/>
<path d="M144.877 17.4811C144.727 20.8297 143.376 22.4392 140.615 23.7242C140.522 23.7674 140.411 23.7507 140.334 23.6823L139.209 22.7921C139.066 22.6642 139.11 22.4304 139.289 22.3614C141.624 21.4621 142.815 20.3614 142.955 17.5041C142.964 17.3122 142.807 17.1521 142.615 17.1521H138.253C138.066 17.1521 137.914 16.9999 137.914 16.8124V15.7694C137.914 15.5819 138.066 15.4297 138.253 15.4297H149.08C149.268 15.4297 149.42 15.5816 149.42 15.7694V16.8124C149.42 16.9999 149.268 17.1521 149.08 17.1521H145.215C145.032 17.1521 144.885 17.2986 144.877 17.4811V17.4811ZM139.982 13.0132V11.8936C139.982 11.7062 140.134 11.554 140.322 11.554H147.134C147.322 11.554 147.474 11.7058 147.474 11.8936V13.0132C147.474 13.2007 147.322 13.3529 147.134 13.3529H140.322C140.134 13.3529 139.982 13.201 139.982 13.0132ZM149.28 11.547C149.649 11.7777 149.988 12.0354 150.314 12.3156C150.452 12.4334 150.469 12.6408 150.356 12.7825L150.133 13.0652C150.013 13.2161 149.794 13.2354 149.646 13.1121C149.341 12.8575 149.031 12.6215 148.698 12.4079C148.526 12.2973 148.481 12.0657 148.61 11.9069L148.839 11.6252C148.946 11.4935 149.136 11.4575 149.28 11.547ZM150.226 10.1754C150.617 10.4064 150.947 10.6436 151.271 10.9159C151.413 11.0347 151.435 11.2445 151.321 11.3892L151.101 11.6665C150.982 11.8164 150.761 11.8398 150.616 11.715C150.317 11.4579 150.011 11.22 149.67 11.0047C149.501 10.8976 149.466 10.6651 149.591 10.5088L149.793 10.2573C149.898 10.1272 150.082 10.0903 150.226 10.1751L150.226 10.1754Z" fill="#FF0000"/>
<path d="M161.286 16.1475C161.105 20.5032 160.15 22.0314 157.368 23.75C157.269 23.8111 157.139 23.7979 157.055 23.7176L156.064 22.8331C155.94 22.7152 155.964 22.511 156.112 22.4253C158.495 21.0436 159.412 19.6694 159.513 16.4966C159.519 16.306 159.363 16.1475 159.173 16.1475H157.093C156.906 16.1475 156.754 16.2994 156.754 16.4872V19.1753C156.754 19.3628 156.602 19.515 156.414 19.515H155.206C155.018 19.515 154.866 19.3631 154.866 19.1753V16.4872C154.866 16.2997 154.714 16.1475 154.526 16.1475H152.325C152.138 16.1475 151.986 15.9956 151.986 15.8078V14.6914C151.986 14.5039 152.137 14.3517 152.325 14.3517H154.526C154.714 14.3517 154.866 14.1999 154.866 14.0121V11.697C154.866 11.5442 154.999 11.4251 155.151 11.4418L156.527 11.4679C156.879 11.5139 156.753 11.8914 156.753 12.0751V14.0127C156.753 14.2002 156.905 14.3524 157.093 14.3524H159.181C159.368 14.3524 159.52 14.1989 159.52 14.0121C159.52 12.9577 159.518 12.2021 159.499 11.4834C159.495 11.3249 159.633 11.201 159.79 11.2225L161.117 11.2199C161.438 11.2659 161.3 11.7717 161.3 11.9859V14.0127C161.3 14.2002 161.452 14.3524 161.64 14.3524H163.52C163.707 14.3524 163.859 14.5043 163.859 14.6921V15.8085C163.859 15.996 163.707 16.1481 163.52 16.1481H161.286V16.1475ZM163.179 11.5467C163.549 11.7773 163.887 12.0351 164.214 12.3152C164.352 12.4331 164.369 12.6404 164.256 12.7822L164.032 13.0649C163.913 13.2158 163.693 13.235 163.546 13.1118C163.241 12.8572 162.931 12.6212 162.598 12.4076C162.425 12.297 162.381 12.0654 162.51 11.9065L162.738 11.6248C162.845 11.4931 163.036 11.4572 163.179 11.5467V11.5467ZM164.126 10.175C164.517 10.406 164.847 10.6433 165.171 10.9155C165.312 11.0343 165.335 11.2442 165.22 11.3888L165 11.6661C164.882 11.8161 164.661 11.8394 164.516 11.7146C164.217 11.4575 163.91 11.2196 163.57 11.0044C163.401 10.8973 163.365 10.6647 163.491 10.5084L163.693 10.257C163.798 10.1268 163.982 10.09 164.126 10.1747L164.126 10.175Z" fill="#FF0000"/>
<path d="M175.021 13.0412C174.291 13.8737 173.547 14.6908 172.684 15.389C172.605 15.453 172.558 15.5482 172.558 15.6496V23.1926C172.558 23.3801 172.406 23.5323 172.218 23.5323H170.918C170.73 23.5323 170.578 23.3804 170.578 23.1926V17.4832C170.578 17.2141 170.281 17.0525 170.055 17.1981C169.206 17.7441 168.284 18.2867 166.884 18.9525C166.785 18.9998 166.666 18.9787 166.589 18.9002L165.652 17.8771C165.526 17.7482 165.567 17.5314 165.734 17.4618C168.755 16.1957 171.886 13.8517 174.107 11.2833C174.198 11.1774 174.356 11.1635 174.464 11.2527L175.458 12.1318C175.573 12.2245 175.562 12.4028 175.482 12.5166C175.36 12.6886 175.175 12.8761 175.021 13.0412H175.021Z" fill="#FF0000"/>
<path d="M181.32 15.5794C180.593 14.9983 178.808 13.9415 177.824 13.4789C177.683 13.4124 177.633 13.2379 177.718 13.1071C177.718 13.1071 178.344 12.1823 178.436 12.0357C178.527 11.8892 178.62 11.8735 178.756 11.9409C179.632 12.3354 181.584 13.4061 182.423 14.0678C182.53 14.152 182.553 14.3035 182.476 14.4157L181.695 15.5236C181.609 15.6478 181.437 15.6739 181.32 15.5797L181.32 15.5794ZM185.315 19.453C182.951 21.3685 181.507 22.027 179.671 22.8135C179.586 22.8498 179.029 23.1554 178.895 22.9241L178.01 21.4482C177.924 21.3007 178.005 21.1195 178.168 21.0698C179.465 20.6756 181.279 20.1162 183.52 18.4355C185.642 16.854 187.049 15.0466 187.796 14.0366C187.901 13.8949 188.113 13.8993 188.213 14.0442L189.256 14.9114C189.319 15.0024 189.317 15.1225 189.25 15.2107C188.622 16.0476 187.22 17.9093 185.315 19.453H185.315Z" fill="#FF0000"/>
<path d="M211.738 20.9437V23.3653C211.738 23.5528 211.586 23.705 211.398 23.705H210.159C209.972 23.705 209.82 23.5531 209.82 23.3653V20.9437C209.82 20.7562 209.668 20.604 209.48 20.604H204.483C204.296 20.604 204.144 20.4522 204.144 20.2644V19.1262C204.144 18.9387 204.296 18.7865 204.483 18.7865H209.48C209.668 18.7865 209.82 18.6346 209.82 18.4468V17.5469C209.82 17.3582 209.983 17.211 210.171 17.2309C210.296 17.2441 210.369 17.0928 210.279 17.0037L210.174 16.8984C210.033 16.7569 210.043 16.5238 210.198 16.3974C210.393 16.238 210.619 16.0221 211.18 15.4921C211.4 15.2728 211.887 14.7204 212.402 13.9065C212.544 13.6819 212.379 13.3891 212.113 13.3891H209.051L209.06 13.2476C209.277 13.356 208.799 14.2241 208.753 14.2705C208.732 14.2913 208.62 14.4652 208.535 14.6007C208.483 14.6845 208.505 14.7942 208.587 14.8499C208.96 15.1045 210.069 15.7571 210.694 16.0694C210.879 16.162 210.937 16.3987 210.817 16.5679L210.047 17.6572C209.329 17.2844 208.255 16.6479 207.771 16.2884L207.305 16.353C206.73 17.0875 206.278 17.5611 205.867 17.9748C205.755 18.0879 205.58 18.1078 205.445 18.0227L204.526 17.4432C204.33 17.32 204.315 17.0446 204.491 16.8943C205.481 16.047 206.336 15.0497 206.899 13.8797C207.008 13.6529 206.844 13.3888 206.592 13.3888H205.21C205.023 13.3888 204.871 13.2369 204.871 13.0491V12.0528C204.871 11.8653 205.023 11.7131 205.21 11.7131H209.557C209.745 11.7131 209.897 11.5612 209.897 11.3734V10.522C209.897 10.4164 209.985 10.3323 210.091 10.338H211.527C211.757 10.3396 211.799 10.5434 211.799 10.6669V11.375C211.799 11.5625 211.951 11.7147 212.139 11.7147H216.486C216.673 11.7147 216.825 11.8665 216.825 12.0543V13.0507C216.825 13.2382 216.674 13.3904 216.486 13.3904H214.912C214.758 13.3904 214.459 14.0244 214.428 14.0556C214.41 14.0738 214.311 14.227 214.22 14.3653C214.135 14.4945 214.148 14.6681 214.253 14.7819C215.186 15.7965 216.063 16.3558 216.762 16.7182C216.963 16.8219 217.011 17.0847 216.859 17.2504L216.139 18.0344C216.026 18.1566 215.839 18.1806 215.7 18.0886C214.631 17.3786 213.941 16.6927 213.408 16.0798C213.276 15.9282 213.042 15.9257 212.906 16.0738C212.556 16.4551 212.215 16.7702 211.877 17.0897C211.785 17.1776 211.686 17.2012 211.653 17.2287C211.623 17.2529 211.744 17.246 211.744 17.3307C211.744 17.5494 211.737 17.8488 211.737 17.9064V18.4484C211.737 18.6359 211.889 18.7881 212.077 18.7881H217.166C217.354 18.7881 217.506 18.94 217.506 19.1278V20.2659C217.506 20.4534 217.354 20.6056 217.166 20.6056H212.077C211.889 20.6056 211.737 20.7575 211.737 20.9453L211.738 20.9437Z" fill="#FF0000"/>
<path d="M231.902 24.3055C231.851 24.3569 231.776 24.3742 231.708 24.3493C231.201 24.1628 229.52 23.4025 228.272 22.4209C226.867 21.3149 226.199 20.1351 225.858 19.4523C225.801 19.3373 225.685 19.2661 225.556 19.2661H224.839C224.652 19.2661 224.501 19.417 224.499 19.6036L224.488 21.5207C224.487 21.7258 224.665 21.8852 224.868 21.8597C225.416 21.7904 226.18 21.7201 226.738 21.6187C226.953 21.5796 227.148 21.7497 227.137 21.9684L227.094 22.8589C227.087 23.0117 226.976 23.1425 226.826 23.1753C224.94 23.5893 223.877 23.5773 222.993 23.6722C222.892 23.6911 222.749 23.6958 222.752 23.4863C222.756 23.1749 222.76 22.558 222.755 22.2917C222.754 22.2243 222.756 22.0453 222.756 21.9779V19.6051C222.756 19.4177 222.604 19.2655 222.416 19.2655H221.797C221.629 19.2655 221.485 19.3874 221.462 19.5535C221.321 20.5536 221.001 21.8808 220.313 23.3568C220.241 23.5108 220.063 23.588 219.9 23.5367L218.91 23.2222C218.712 23.1595 218.616 22.938 218.707 22.7518C218.911 22.3371 219.178 21.722 219.411 20.8277C219.766 19.5131 219.998 17.9357 219.998 16.0646C219.998 14.5941 219.918 12.7611 219.831 11.1163C219.821 10.9218 219.976 10.7602 220.171 10.7602H231.52C231.708 10.7602 231.86 10.9124 231.86 11.0999V14.0243C231.86 14.2118 231.708 14.364 231.52 14.364H228.983C229.2 14.3949 229.246 14.5295 229.246 14.5884V15.1225C229.246 15.31 229.398 15.4622 229.586 15.4622H231.428C231.615 15.4622 231.767 15.614 231.767 15.8018V16.4525C231.767 16.64 231.615 16.7922 231.428 16.7922H229.586C229.399 16.7922 229.246 16.9441 229.246 17.1319V17.5507C229.246 17.7382 229.398 17.8903 229.586 17.8903H231.861C232.048 17.8903 232.201 18.0422 232.201 18.23V18.9274C232.201 19.1148 232.049 19.267 231.861 19.267H230.995C230.826 19.267 230.746 19.4753 230.871 19.5884L231.301 19.9965C231.395 20.0778 231.311 20.189 231.208 20.2681C231.005 20.4351 230.508 20.8388 230.087 21.2033C229.871 21.3915 229.906 21.642 230.165 21.7667C230.891 22.1175 232.21 22.5523 232.857 22.7036C232.997 22.7363 233.048 22.9096 232.947 23.012L231.902 24.3062L231.902 24.3055ZM223.325 16.7919H222.411C222.223 16.7919 222.071 16.64 222.071 16.4522V15.8015C222.071 15.614 222.223 15.4618 222.411 15.4618H223.325C223.512 15.4618 223.664 15.31 223.664 15.1222V14.7031C223.664 14.5156 223.513 14.3634 223.325 14.3634H221.993C221.806 14.3634 221.654 14.5153 221.654 14.7031V16.1264C221.654 16.4122 221.654 16.9378 221.635 17.5387C221.629 17.7303 221.783 17.8894 221.974 17.8894H223.325C223.512 17.8894 223.664 17.7375 223.664 17.5497V17.131C223.664 16.9435 223.513 16.7913 223.325 16.7913V16.7919ZM229.804 12.106H221.993C221.806 12.106 221.654 12.2579 221.654 12.4457V12.6789C221.654 12.8663 221.806 13.0185 221.993 13.0185H229.804C229.992 13.0185 230.144 12.8667 230.144 12.6789V12.4457C230.144 12.2582 229.992 12.106 229.804 12.106V12.106ZM227.515 14.7034C227.515 14.5159 227.363 14.3637 227.175 14.3637H225.196C225.405 14.4088 225.365 14.5975 225.365 14.6546V15.1222C225.365 15.3097 225.517 15.4618 225.705 15.4618H227.175C227.363 15.4618 227.515 15.31 227.515 15.1222V14.7031V14.7034ZM227.175 16.7919H225.705C225.517 16.7919 225.365 16.9438 225.365 17.1316V17.5504C225.365 17.7378 225.517 17.89 225.705 17.89H227.175C227.363 17.89 227.515 17.7382 227.515 17.5504V17.1316C227.515 16.9441 227.363 16.7919 227.175 16.7919ZM227.871 19.8027C228.053 20.0557 228.223 20.2423 228.365 20.3822C228.486 20.5003 228.678 20.5126 228.809 20.4061C229.04 20.218 229.237 20.0267 229.416 19.8304C229.612 19.6143 229.453 19.2664 229.16 19.2664H228.149C227.874 19.2664 227.71 19.5796 227.871 19.8027Z" fill="#FF0000"/>
<path d="M201.161 20.6516C200.222 22.0415 198.957 22.6661 198.164 23.0007C198.018 23.0625 197.85 23.0136 197.758 22.8847L197.16 22.0529C197.027 21.8666 197.111 21.6057 197.328 21.5336C197.937 21.3322 198.721 20.9806 199.392 20.1777C200.241 19.1747 200.395 18.0183 200.395 17.4054C200.395 16.6391 200.172 15.7057 199.392 14.9675C198.676 14.2859 197.896 14.123 197.353 14.0634C197.17 14.0433 197.005 14.1734 196.978 14.3558C196.524 17.4763 195.741 19.3304 195.296 20.2331C194.878 21.0968 194.237 22.2671 193.513 22.2671C193.011 22.2671 190.726 21.0133 190.726 18.5196C190.726 15.4269 193.276 12.613 196.87 12.613C199.768 12.613 202.052 14.5774 202.052 17.684C202.052 18.9097 201.676 19.885 201.161 20.6513L201.161 20.6516ZM193.666 15.2882C192.677 16.2354 192.273 17.5311 192.273 18.381C192.273 19.5094 192.914 20.0945 193.165 20.0945C193.827 20.0945 194.886 17.0516 195.275 14.8695C195.323 14.6032 195.05 14.3896 194.804 14.5014C194.468 14.6546 194.075 14.8881 193.666 15.2882V15.2882Z" fill="#FF0000"/>
<path d="M109.027 18.5946C108.952 19.8758 108.812 21.0521 108.626 21.9038C108.587 22.0809 108.417 22.195 108.238 22.1654L107.429 22.0305C107.234 21.9981 107.109 21.8096 107.155 21.618C107.287 21.0704 107.461 20.1935 107.596 18.5603C107.612 18.37 107.78 18.2288 107.969 18.2486L108.814 18.3362C108.86 18.3362 109.039 18.3844 109.026 18.5949L109.027 18.5946ZM111.508 17.7706C111.49 17.6616 111.474 17.5794 111.459 17.5085C111.442 17.4268 111.366 17.373 111.283 17.383C111.23 17.3894 111.183 17.3931 111.128 17.3972C111.044 17.4032 110.979 17.4729 110.979 17.5564V23.3624C110.979 23.5499 110.827 23.7021 110.64 23.7021H109.602C109.415 23.7021 109.263 23.5503 109.263 23.3624V17.7713C109.263 17.666 109.175 17.5819 109.069 17.5872C108.723 17.6039 107.968 17.6298 107.671 17.6556C107.486 17.6711 107.392 17.6711 107.376 17.4855L107.269 16.4217C107.269 16.2666 107.313 16.1888 107.427 16.0754C107.779 15.7237 108.34 15.0809 108.63 14.7069C108.74 14.5651 108.716 14.3527 108.577 14.2393C108.348 14.0518 108.156 13.9279 107.434 13.3359C107.359 13.2747 107.343 13.167 107.398 13.0879C107.398 13.0879 109.018 11.1683 109.529 10.3619C109.626 10.2091 109.823 10.1574 109.981 10.245L110.848 10.7255C110.972 10.8005 110.893 10.9178 110.782 11.0766C110.284 11.8227 110.053 12.0398 109.507 12.787C109.456 12.856 109.468 12.953 109.526 13.0151C109.564 13.0551 109.719 13.1509 109.744 13.1777C109.827 13.2643 109.955 13.2398 110.033 13.1487C110.61 12.4703 110.815 12.0852 111.044 11.7585C111.103 11.6734 111.206 11.6321 111.296 11.6825L112.295 12.3445C112.496 12.4529 112.171 12.7157 112.093 12.8238C111.8 13.2565 110.407 14.8874 109.59 15.8816C109.491 16.001 109.521 16.151 109.675 16.1469C109.889 16.1409 110.701 16.088 110.91 16.076C111.026 16.0694 111.108 15.9566 111.078 15.8441C111.009 15.5829 110.891 15.1427 110.815 14.9089C110.782 14.8058 110.843 14.6958 110.948 14.6719L111.886 14.4579C112.052 14.4201 112.222 14.5084 112.28 14.6678C112.572 15.465 112.805 16.3753 112.965 17.2025C112.998 17.3727 112.895 17.5387 112.729 17.5888L111.8 17.8693C111.619 17.9241 111.524 17.8645 111.508 17.7703L111.508 17.7706ZM111.588 21.1268C111.379 20.0772 111.34 19.2182 111.348 18.5502C111.349 18.4613 111.413 18.387 111.501 18.3718C111.727 18.3334 112.318 18.2606 112.574 18.2168C112.685 18.1979 112.785 18.2824 112.788 18.3948C112.813 19.2333 112.91 19.97 113.098 20.7758C113.12 20.8722 113.064 20.9702 112.968 20.9963L111.819 21.268C111.716 21.2963 111.609 21.2311 111.589 21.1265L111.588 21.1268ZM116.04 18.4512C116.045 22.431 115.006 22.962 113.211 23.693C113.092 23.7418 112.952 23.7191 112.855 23.6331L111.943 22.8227C111.749 22.6506 111.812 22.3343 112.057 22.2479C113.652 21.6842 114.332 21.2443 114.217 18.1399C114.213 18.0467 114.291 17.9698 114.384 17.9745L115.742 17.9776C116.082 17.9931 116.048 18.1604 116.039 18.4509L116.04 18.4512ZM119.327 17.874C119.246 17.7356 119.162 17.6008 119.072 17.4647C119.007 17.3667 118.897 17.3096 118.78 17.3131C117.585 17.35 113.879 17.3799 113.452 17.4256C113.427 17.4281 113.19 17.4757 113.175 17.3055L113.011 16.0716C112.996 15.9578 113.126 15.8542 113.236 15.7634C113.888 15.2274 114.418 14.6246 114.823 14.1684C115.017 13.9491 114.861 13.604 114.568 13.604H113.112C112.925 13.604 112.773 13.4521 112.773 13.2643V12.4281C112.773 12.2406 112.924 12.0884 113.112 12.0884H115.279C115.466 12.0884 115.618 11.9365 115.618 11.7487V10.4306C115.618 10.3395 115.694 10.2671 115.785 10.2712H117.304C117.536 10.2857 117.489 10.573 117.489 10.6194V11.7487C117.489 11.9362 117.641 12.0884 117.829 12.0884H120.336C120.523 12.0884 120.675 12.2402 120.675 12.4281V13.2643C120.675 13.4518 120.523 13.604 120.336 13.604H117.596C117.526 13.604 117.445 13.5993 117.298 13.7436C116.982 14.0534 116.498 14.6303 116.108 15.0894C115.845 15.3988 115.963 15.6484 116.368 15.6481C116.73 15.6481 117.096 15.6525 117.36 15.627C117.507 15.6128 117.577 15.4398 117.484 15.3257C117.389 15.2098 117.404 15.2356 117.305 15.1197C117.244 15.0491 117.255 14.9426 117.33 14.8874L118.53 14.2238C118.594 14.1766 118.684 14.1841 118.74 14.2415C119.438 14.9649 120.153 15.8264 120.831 16.923C120.928 17.0793 120.88 17.2866 120.726 17.3868L119.804 17.9855C119.642 18.0905 119.426 18.0397 119.328 17.874H119.327ZM119.315 23.6407H117.799C116.918 23.6407 116.624 23.0067 116.624 22.5426V18.0722C116.624 17.9808 116.7 17.9083 116.791 17.9131L118.139 17.8964C118.34 17.9118 118.325 18.0589 118.325 18.1053V21.4142C118.325 21.6152 118.417 21.8934 118.804 21.8934C119.182 21.8934 119.301 21.7639 119.448 20.8268C119.484 20.5996 119.731 20.4717 119.936 20.5754L120.749 20.9863C120.873 21.0486 120.947 21.1816 120.935 21.3193C120.799 22.8671 120.465 23.641 119.314 23.641L119.315 23.6407Z" fill="#FF0000"/>
<path d="M188.962 25.492H113.752C113.565 25.492 113.413 25.6441 113.413 25.8317V26.0617C113.413 26.2493 113.565 26.4014 113.752 26.4014H188.962C189.15 26.4014 189.302 26.2493 189.302 26.0617V25.8317C189.302 25.6441 189.15 25.492 188.962 25.492Z" fill="#FF0000"/>
<path d="M111.793 25.492H107.34C107.152 25.492 107 25.6441 107 25.8317V26.0617C107 26.2493 107.152 26.4014 107.34 26.4014H111.793C111.981 26.4014 112.133 26.2493 112.133 26.0617V25.8317C112.133 25.6441 111.981 25.492 111.793 25.492Z" fill="#FF0000"/>
</svg>
