<svg width="390" height="27" viewBox="0 0 390 27" fill="none" xmlns="http://www.w3.org/2000/svg">
<path d="M289.385 21.6774H290.846C291.058 21.6774 291.23 21.5053 291.23 21.2925V15.1657C291.23 14.953 291.058 14.7809 290.846 14.7809H289.385C289.172 14.7809 289 14.6088 289 14.396V13.7649C289 13.5708 289.145 13.4037 289.338 13.3844C290.262 13.2948 291.012 12.8236 291.194 11.8951C291.228 11.7202 291.388 11.5976 291.566 11.5976H292.736C292.949 11.5976 293.121 11.7697 293.121 11.9825V21.2925C293.121 21.5053 293.293 21.6774 293.505 21.6774H294.96C295.172 21.6774 295.345 21.8495 295.345 22.0622V23.0761C295.345 23.2888 295.172 23.4609 294.96 23.4609H289.385C289.172 23.4609 289 23.2888 289 23.0761V22.0622C289 21.8495 289.172 21.6774 289.385 21.6774V21.6774Z" fill="#FF0000"/>
<path d="M298.293 21.3266H299.66C299.873 21.3266 300.045 21.4987 300.045 21.7115V23.0793C300.045 23.2921 299.873 23.4642 299.66 23.4642H298.293C298.08 23.4642 297.908 23.2921 297.908 23.0793V21.7115C297.908 21.4987 298.08 21.3266 298.293 21.3266Z" fill="#FF0000"/>
<path d="M303.325 21.6774H304.786C304.998 21.6774 305.17 21.5053 305.17 21.2925V15.1657C305.17 14.953 304.998 14.7809 304.786 14.7809H303.325C303.113 14.7809 302.94 14.6088 302.94 14.396V13.7649C302.94 13.5708 303.085 13.4037 303.278 13.3844C304.202 13.2948 304.952 12.8236 305.134 11.8951C305.168 11.7202 305.328 11.5976 305.506 11.5976H306.676C306.888 11.5976 307.061 11.7697 307.061 11.9825V21.2925C307.061 21.5053 307.233 21.6774 307.445 21.6774H308.9C309.113 21.6774 309.285 21.8495 309.285 22.0622V23.0761C309.285 23.2888 309.113 23.4609 308.9 23.4609H303.325C303.113 23.4609 302.94 23.2888 302.94 23.0761V22.0622C302.94 21.8495 303.113 21.6774 303.325 21.6774V21.6774Z" fill="#FF0000"/>
<path d="M316.734 19.7806V20.3326C316.734 21.8693 315.942 23.6967 313.533 23.6967C311.125 23.6967 310.333 21.8693 310.333 20.3326V19.7806C310.333 18.3853 310.879 17.6238 311.264 17.2686C311.423 17.1213 311.409 16.8739 311.259 16.7172C310.8 16.2378 310.402 15.473 310.402 14.5291C310.402 12.8665 311.47 11.3661 313.534 11.3661C315.598 11.3661 316.665 12.8665 316.665 14.5291C316.665 15.4719 316.257 16.2362 315.803 16.7161C315.655 16.8728 315.642 17.1197 315.801 17.2659C316.185 17.62 316.734 18.382 316.734 19.7812L316.734 19.7806ZM314.942 20.3326V19.7806C314.942 18.6756 314.358 18.106 313.533 18.106C312.708 18.106 312.124 18.6756 312.124 19.7806V20.3326C312.124 21.4377 312.708 22.0073 313.533 22.0073C314.358 22.0073 314.942 21.4377 314.942 20.3326ZM312.192 14.5978C312.192 15.6033 312.708 16.1405 313.533 16.1405C314.357 16.1405 314.873 15.6033 314.873 14.5978C314.873 13.5922 314.357 13.0551 313.533 13.0551C312.708 13.0551 312.192 13.5928 312.192 14.5978V14.5978Z" fill="#FF0000"/>
<path d="M320.349 22.6445C320.314 22.6176 320.282 22.5835 320.256 22.5472C316.268 16.8316 320.186 10.9615 325.395 10.9615C329.112 10.9615 332.171 13.9496 332.171 17.7371C332.171 23.0931 325.971 26.9889 320.349 22.645L320.349 22.6445ZM325.395 11.4613C320.571 11.4613 316.907 16.9438 320.678 22.2267C320.703 22.2624 320.736 22.2959 320.771 22.3223C325.984 26.2874 331.671 22.6648 331.671 17.7366C331.671 14.2344 328.826 11.4613 325.395 11.4613ZM321.289 21.2024L320.91 20.9808C320.681 20.8472 320.652 20.5256 320.855 20.3568C322.346 19.1182 322.91 17.7855 323.111 16.7453C323.157 16.5094 322.971 16.2928 322.73 16.2928H321.52C321.308 16.2928 321.136 16.1207 321.136 15.908V15.5341C321.136 15.3213 321.308 15.1493 321.52 15.1493H324.082C324.305 15.1493 324.487 15.3406 324.469 15.5627C324.271 17.9724 323.256 19.8912 321.731 21.1694C321.607 21.2733 321.428 21.2843 321.288 21.2024H321.289ZM328.733 21.1265C328.168 20.6834 327.388 20.0209 326.69 19.0923C326.466 18.7949 325.995 18.945 325.995 19.3172V20.9242C325.995 22.0282 325.463 22.2289 324.307 22.2629C324.146 22.2679 323.998 22.1684 323.939 22.0183L323.565 21.0672C323.737 21.0963 324.022 21.1678 324.337 21.1678C324.594 21.1678 324.809 21.082 324.809 20.8104V13.512C324.809 13.286 325.003 13.1085 325.228 13.1288L325.924 13.1909C326.152 13.2052 326.267 13.2201 326.267 13.3344C326.267 13.4059 325.995 13.606 325.995 13.6775V14.4637C325.995 14.7622 326.023 15.2911 326.241 15.9772C326.326 16.2439 326.664 16.333 326.87 16.1433C327.327 15.7205 327.78 15.185 328.155 14.589C328.263 14.417 328.48 14.3515 328.66 14.4455L329.383 14.8221C329.569 14.9222 329.683 15.008 329.683 15.0932C329.683 15.1652 329.569 15.179 329.426 15.2075C329.34 15.2218 329.325 15.2504 329.111 15.5083C329.006 15.6397 328.331 16.4742 327.265 17.3204C327.107 17.4452 327.061 17.6722 327.174 17.8383C327.875 18.8686 328.79 19.5998 329.529 20.0957C329.717 20.2227 329.752 20.4833 329.606 20.6581L329.264 21.0694C329.13 21.2293 328.896 21.2568 328.732 21.1282L328.733 21.1265Z" fill="#FF0000"/>
<path d="M354.686 20.558V23.076C354.686 23.2888 354.513 23.4609 354.301 23.4609H348.682C348.47 23.4609 348.298 23.2888 348.298 23.076V22.2607C348.298 19.8449 349.902 18.6354 351.492 17.0454C352.045 16.4923 352.893 15.6457 352.893 14.6951C352.893 14.0557 352.771 13.1227 351.509 13.1227C350.109 13.1227 350.092 14.3669 350.092 14.8655V15.5544H348.332V14.8655C348.332 12.8154 349.299 11.3689 351.509 11.3689C353.617 11.3689 354.686 12.5922 354.686 14.6935C354.686 15.9354 354.117 16.869 352.771 18.2187C351.704 19.2869 350.534 20.2408 350.223 21.2007C350.146 21.4388 350.347 21.6785 350.597 21.6785H352.611C352.824 21.6785 352.996 21.5064 352.996 21.2936V20.5591C352.996 20.3463 353.168 20.1743 353.381 20.1743H354.301C354.513 20.1743 354.686 20.3463 354.686 20.5591V20.558Z" fill="#FF0000"/>
<path d="M362.272 20.558V23.076C362.272 23.2888 362.1 23.4609 361.887 23.4609H356.269C356.056 23.4609 355.884 23.2888 355.884 23.076V22.2607C355.884 19.8449 357.489 18.6354 359.078 17.0454C359.632 16.4923 360.479 15.6457 360.479 14.6951C360.479 14.0557 360.358 13.1227 359.096 13.1227C357.696 13.1227 357.679 14.3669 357.679 14.8655V15.5544H355.919V14.8655C355.919 12.8154 356.885 11.3689 359.096 11.3689C361.203 11.3689 362.272 12.5922 362.272 14.6935C362.272 15.9354 361.703 16.869 360.358 18.2187C359.29 19.2869 358.12 20.2408 357.81 21.2007C357.733 21.4388 357.933 21.6785 358.183 21.6785H360.197C360.41 21.6785 360.582 21.5064 360.582 21.2936V20.5591C360.582 20.3463 360.754 20.1743 360.967 20.1743H361.887C362.1 20.1743 362.272 20.3463 362.272 20.5591V20.558Z" fill="#FF0000"/>
<path d="M365.911 22.6439C365.876 22.617 365.844 22.5829 365.818 22.5466C361.832 16.8311 365.748 10.9626 370.957 10.9626C374.673 10.9626 377.732 13.9496 377.732 17.7366C377.732 23.0931 371.532 26.9873 365.911 22.6439ZM370.957 11.4608C366.134 11.4608 362.465 16.946 366.241 22.2256C366.266 22.2613 366.299 22.2943 366.333 22.3207C371.542 26.2912 377.234 22.6643 377.234 17.7366C377.234 14.235 374.387 11.4608 370.958 11.4608H370.957ZM372.974 21.8105V21.2667H368.97V21.8676H368.098C367.886 21.8676 367.713 21.6956 367.713 21.4828V14.0491C367.713 13.8364 367.886 13.6643 368.098 13.6643H373.816C374.029 13.6643 374.201 13.8364 374.201 14.0491V21.4256C374.201 21.6384 374.029 21.8105 373.816 21.8105H372.974V21.8105ZM372.589 14.8199H369.355C369.142 14.8199 368.97 14.992 368.97 15.2048V16.4523C368.97 16.665 369.142 16.8371 369.355 16.8371H372.589C372.802 16.8371 372.974 16.665 372.974 16.4523V15.2048C372.974 14.992 372.802 14.8199 372.589 14.8199ZM372.589 17.9361H369.355C369.142 17.9361 368.97 18.1082 368.97 18.321V19.7257C368.97 19.9384 369.142 20.1105 369.355 20.1105H372.589C372.802 20.1105 372.974 19.9384 372.974 19.7257V18.321C372.974 18.1082 372.802 17.9361 372.589 17.9361Z" fill="#FF0000"/>
<path d="M334.667 17.5683H337.952C338.123 17.5683 338.32 17.4397 338.388 17.2824L338.483 17.0664C338.552 16.9091 338.653 16.9135 338.709 17.0752L339.171 18.4117C339.227 18.5739 339.313 18.5717 339.361 18.4073L340.171 15.6628C340.219 15.4984 340.277 15.5028 340.299 15.6727L340.85 19.873C340.873 20.0429 340.926 20.0462 340.97 19.8807L341.795 16.7194C341.838 16.5534 341.909 16.5534 341.952 16.7194L342.099 17.2841C342.142 17.4501 342.318 17.5859 342.489 17.5859H346.178" fill="#FF0000"/>
<path d="M334.667 17.5683H337.952C338.123 17.5683 338.32 17.4397 338.388 17.2824L338.483 17.0664C338.552 16.9091 338.653 16.9135 338.709 17.0752L339.171 18.4117C339.227 18.5739 339.313 18.5717 339.361 18.4073L340.171 15.6628C340.219 15.4984 340.277 15.5028 340.299 15.6727L340.85 19.873C340.873 20.0429 340.926 20.0462 340.97 19.8807L341.795 16.7194C341.838 16.5534 341.909 16.5534 341.952 16.7194L342.099 17.2841C342.142 17.4501 342.318 17.5859 342.489 17.5859H346.178" stroke="#FF0000" stroke-width="0.6" stroke-linejoin="bevel"/>
<path d="M264.216 19.5679V19.9137C264.216 21.1749 264.767 21.6065 265.593 21.6065C266.42 21.6065 267.005 20.9671 267.005 19.6202C267.005 17.8235 266.006 17.6508 265.593 17.6508C265.469 17.6508 265.157 17.6618 264.861 17.8262C264.72 17.9048 264.545 17.8933 264.422 17.7894L263.767 17.2368C263.607 17.1021 263.584 16.8641 263.715 16.7008L266.328 13.4571C266.531 13.2053 266.352 12.8308 266.029 12.8308H264.499C264.286 12.8308 264.114 13.0029 264.114 13.2157V13.6176C264.114 13.8304 263.942 14.0024 263.729 14.0024H262.819C262.606 14.0024 262.434 13.8304 262.434 13.6176V11.6334C262.434 11.4206 262.606 11.2486 262.819 11.2486H268.37C268.583 11.2486 268.755 11.4206 268.755 11.6334V12.8001C268.755 12.8875 268.725 12.9721 268.671 13.0403L266.717 15.4858C266.549 15.6958 266.641 16.0152 266.899 16.0894C268.065 16.4248 268.79 17.7597 268.79 19.6191C268.79 23.0349 266.662 23.3439 265.594 23.3439C264.459 23.3439 262.434 23.0167 262.434 19.9126V19.5674H264.217L264.216 19.5679Z" fill="#FF0000"/>
<path d="M12.77 24.0404L12.1289 23.1371C11.9574 22.8958 12.1135 22.5621 12.4082 22.5335C14.0433 22.374 15.7581 22.0733 17.4602 21.418C17.706 21.3234 17.7818 21.0073 17.613 20.8055C17.3799 20.5268 17.1391 20.2695 16.8631 20.0122C16.74 19.8973 16.5498 19.8813 16.4041 19.9654C15.4991 20.4872 14.9378 20.7258 14.3094 20.9435C14.1703 20.9919 14.0152 20.9545 13.9119 20.8495L13.2543 20.1842C13.0537 19.9814 13.1383 19.6438 13.4077 19.5487C14.6574 19.1061 15.7416 18.5283 16.6229 17.9153C17.0039 17.6503 16.6663 17.0582 16.243 17.2495C15.4744 17.5964 14.548 17.9626 13.4468 18.3084C13.2939 18.3562 13.1224 18.3045 13.0234 18.1786L12.4357 17.4298C12.2647 17.2121 12.3725 16.8872 12.6408 16.8201C14.2868 16.4067 15.3694 15.93 16.1649 15.5386C16.3969 15.4242 16.453 15.1141 16.2716 14.9294C16.0242 14.677 15.7625 14.4505 15.4205 14.2097C15.2924 14.1196 15.1198 14.1212 14.9884 14.2064C14.5634 14.483 14.1697 14.7045 13.6068 14.986C13.4754 15.0514 13.3143 15.0377 13.1977 14.9486L12.4638 14.3884C12.2372 14.2152 12.2713 13.8617 12.5281 13.7375C15.0159 12.5395 15.9747 11.3124 16.5058 10.4492C16.5877 10.3161 16.7444 10.2491 16.8983 10.2771L18.5147 10.5685C18.6994 10.5993 18.8688 10.6763 18.8688 10.7994C18.8688 10.8918 18.8072 10.938 18.7456 10.9533C18.6994 10.9841 18.4372 11.0303 18.391 11.0611C18.3448 11.0919 18.1749 11.3228 18.1287 11.369H22.0674C22.1856 11.369 22.2967 11.4229 22.3698 11.5158L22.7909 12.0507C22.9102 12.2019 22.902 12.4152 22.7684 12.5538C22.3005 13.0381 21.2999 13.9849 20.2861 14.8084C20.0535 14.997 20.1184 15.3665 20.4005 15.4676L21.0388 15.6958C21.1619 15.742 21.3005 15.8036 21.3005 15.9421C21.3005 16.0493 21.2389 16.0806 21.2081 16.0955C21.1311 16.1268 20.7925 16.2032 20.7309 16.2654C20.6534 16.3423 20.3004 16.7888 20.208 16.8811H23.5645C23.6805 16.8811 23.7904 16.9334 23.8636 17.0241L24.089 17.3028C24.1967 17.4359 24.2044 17.6266 24.1071 17.7674C21.875 20.993 19.1458 23.174 13.1537 24.1988C13.0075 24.2241 12.8552 24.1625 12.7694 24.041L12.77 24.0404ZM16.9286 12.6934C16.7587 12.8468 16.7438 12.8628 16.4981 13.0783C17.0028 13.4015 17.4426 13.7688 17.8528 14.1888C17.9869 14.3263 18.2008 14.3505 18.3558 14.2378C18.7698 13.9365 19.1134 13.6588 19.429 13.351C19.6742 13.1118 19.4983 12.6934 19.1557 12.6934H16.9286V12.6934ZM18.546 18.4618C18.4509 18.5398 18.3838 18.5954 18.3212 18.6476C18.137 18.8004 18.1348 19.0786 18.3168 19.2342C18.5889 19.4668 18.8896 19.7483 19.2003 20.0809C19.3383 20.2288 19.5653 20.2513 19.7242 20.1265C20.108 19.8252 20.4571 19.5086 20.8936 19.0198C21.1157 18.7713 20.942 18.3744 20.6088 18.3744H18.7907C18.7016 18.3744 18.6148 18.4057 18.546 18.4623V18.4618Z" fill="#FF0000"/>
<path d="M37.9225 16.7013C37.8038 16.8008 37.635 16.8195 37.4976 16.7475C36.8048 16.3841 36.3029 16.058 35.6635 15.4175V16.1416C35.6635 16.3544 35.4914 16.5265 35.2786 16.5265H34.6013C34.3885 16.5265 34.2164 16.3544 34.2164 16.1416V15.5253C33.9663 15.826 33.5842 16.2175 33.2186 16.4863C33.0784 16.5891 32.8887 16.5875 32.7513 16.4808L32.0151 15.9102L31.8304 16.0339C31.5995 15.9102 31.3999 15.7414 31.1998 15.5412V16.3731C31.1998 16.5858 31.0277 16.7579 30.8149 16.7579H30.1992C29.9864 16.7579 29.8143 16.5858 29.8143 16.3731V15.4181C29.474 15.881 29.0946 16.2477 28.7681 16.5254C28.6268 16.6452 28.4228 16.6485 28.2777 16.5336L27.8439 16.1889C27.7713 19.2463 27.5882 21.077 26.9175 22.739C26.8499 22.9062 26.6706 23.0018 26.4925 22.9705L25.4375 22.7858C25.1917 22.7429 25.051 22.4801 25.1521 22.2519C25.7926 20.8049 26.2737 19.3568 26.2737 16.035C26.2737 14.7551 26.1857 13.0238 26.089 11.6927C26.073 11.4695 26.2489 11.2793 26.4727 11.2793H30.8144C31.0271 11.2793 31.1992 11.1072 31.1992 10.8945V10.8653C31.1992 10.646 31.3817 10.4711 31.6006 10.481L32.969 10.5404C33.1999 10.5558 33.4616 10.6333 33.4616 10.8026C33.4616 10.8642 33.3692 10.9258 33.3076 10.9566C33.1383 11.049 33.1383 11.0797 33.1383 11.2799H38.3563C38.5691 11.2799 38.7412 11.4519 38.7412 11.6647V12.2013C38.7412 12.4141 38.5691 12.5862 38.3563 12.5862H35.6629V13.3575H38.3563C38.5691 13.3575 38.7412 13.5296 38.7412 13.7424V14.125C38.7412 14.3378 38.5691 14.5099 38.3563 14.5099H37.5531C37.1765 14.5099 37.022 14.992 37.3293 15.2097C37.5877 15.3928 37.889 15.5808 38.2222 15.7529C38.4668 15.8799 38.507 16.2125 38.2959 16.3896L37.922 16.7024L37.9225 16.7013ZM29.8132 12.5845H27.812C27.8208 12.645 27.829 12.8121 27.8351 12.9853C27.8422 13.192 28.0127 13.3559 28.2199 13.3559H29.8132V12.5845V12.5845ZM28.2425 14.5703C28.0303 14.5703 27.8587 14.7402 27.8576 14.9524C27.8565 15.2141 27.8527 15.4989 27.8428 15.71C28.1353 15.5715 28.7362 15.0481 29.1205 14.5703H28.2425ZM34.2313 21.4976C34.0185 21.4976 33.8464 21.6697 33.8464 21.8825V22.6071C33.8464 23.6396 32.4027 23.76 31.5923 23.7847C31.4367 23.7897 31.2965 23.7001 31.2322 23.5582L30.882 22.7825C30.766 22.5257 30.9595 22.2349 31.2416 22.2393C32.1152 22.2536 32.169 22.1777 32.169 21.7131V21.4965H28.2436C28.0308 21.4965 27.8587 21.3244 27.8587 21.1117V20.6982C27.8587 20.4855 28.0308 20.3134 28.2436 20.3134H32.169V19.8653H28.9363C28.7235 19.8653 28.5514 19.6932 28.5514 19.4805V19.067C28.5514 18.8543 28.7235 18.6822 28.9363 18.6822H32.169V18.2182C30.5224 18.2456 29.9281 18.2489 29.2838 18.2385C29.137 18.2363 29.0045 18.1511 28.9412 18.0186L28.7972 17.7151C28.6697 17.4452 28.8868 17.1395 29.1843 17.1675C29.7241 17.2186 30.0749 17.2357 30.5829 17.2357C31.4142 17.2357 32.2762 17.1741 33.0306 17.112C34.5282 16.9707 35.2605 16.7777 36.0494 16.5441C36.1814 16.505 36.3249 16.5386 36.4249 16.6337L37.1721 17.3429C37.2793 17.4353 37.3717 17.5733 37.3717 17.6502C37.3717 17.7277 37.2793 17.7426 37.2331 17.7426C37.1869 17.7426 36.9714 17.7277 36.9252 17.7277C36.8329 17.7277 36.3705 17.835 36.2633 17.8503C35.2319 18.0351 34.3852 18.0961 33.8464 18.1274V18.6833H37.3871C37.5998 18.6833 37.7719 18.8554 37.7719 19.0681V19.4816C37.7719 19.6943 37.5998 19.8664 37.3871 19.8664H33.8464V20.3145H38.3107C38.5235 20.3145 38.6955 20.4866 38.6955 20.6993V21.1128C38.6955 21.3255 38.5235 21.4976 38.3107 21.4976H34.2313V21.4976ZM34.2159 12.5845H31.1992V13.3559H31.9684C32.1811 13.3559 32.3532 13.5279 32.3532 13.7407V14.5703H31.6302C31.7474 14.6616 32.1624 14.9953 32.6039 15.2081C32.7452 15.2763 32.9145 15.2504 33.0317 15.1465C33.372 14.8447 33.5171 14.6935 33.6617 14.5082H32.908V13.7402C32.908 13.5274 33.08 13.3553 33.2928 13.3553H34.2159V12.584V12.5845Z" fill="#FF0000"/>
<path d="M52.5464 23.9403C51.2237 23.644 49.2334 23.0293 47.4961 21.1095C47.335 20.9314 47.0618 20.9369 46.9067 21.1199C45.5636 22.7022 43.7031 23.5549 41.808 23.9414C41.6497 23.9739 41.488 23.9008 41.4028 23.7633L40.8036 22.7913C40.6584 22.556 40.8019 22.2454 41.0763 22.2102C42.8515 21.9815 44.2744 21.2975 45.1771 20.3882C45.4196 20.1441 45.2464 19.7284 44.9028 19.7284H41.3594C41.1466 19.7284 40.9745 19.5564 40.9745 19.3436V18.7608C40.9745 18.548 41.1466 18.376 41.3594 18.376H45.8885C46.087 18.376 46.2503 18.2248 46.2717 18.0279C46.2761 17.9873 46.2805 17.9455 46.2838 17.9031C46.3025 17.6772 46.1271 17.4809 45.9001 17.4809H41.0042C40.7915 17.4809 40.6194 17.3088 40.6194 17.0961V16.5287C40.6194 16.3159 40.7915 16.1438 41.0042 16.1438H46.2998V15.511H42.9285C42.7157 15.511 42.5436 15.3389 42.5436 15.1262V14.605C42.5436 14.3922 42.7157 14.2201 42.9285 14.2201H46.2998V13.6176H41.2973C41.0845 13.6176 40.9124 13.4455 40.9124 13.2327V12.6653C40.9124 12.4526 41.0845 12.2805 41.2973 12.2805H43.4854C43.8065 12.2805 43.9863 11.9083 43.7883 11.6559C43.6707 11.5058 43.5536 11.3651 43.4431 11.2392C43.2633 11.0336 43.3496 10.7147 43.6069 10.6245L44.4904 10.3167C44.6356 10.2661 44.7994 10.3051 44.9022 10.42C45.2541 10.8126 45.5614 11.2232 45.7967 11.5559C45.9446 11.7648 45.85 12.0551 45.6081 12.1397L45.2073 12.2805H48.0129C48.1443 12.2805 48.2647 12.2173 48.3356 12.1062C48.6204 11.6587 48.9453 11.1364 49.2681 10.5239C49.3588 10.3518 49.5616 10.2688 49.7436 10.337L50.8718 10.7576C50.9955 10.8038 51.2264 10.8961 51.2264 11.0655C51.2264 11.1116 51.211 11.143 51.1951 11.1732C51.1489 11.2194 50.8405 11.3118 50.7943 11.3579C50.764 11.3887 50.2401 12.1276 50.1477 12.2816H53.2573C53.4701 12.2816 53.6422 12.4537 53.6422 12.6664V13.2338C53.6422 13.4466 53.4701 13.6187 53.2573 13.6187H48.3004V14.2212H51.6102C51.8229 14.2212 51.995 14.3933 51.995 14.6061V15.1273C51.995 15.34 51.8229 15.5121 51.6102 15.5121H48.3004V16.1449H53.5344C53.7472 16.1449 53.9193 16.317 53.9193 16.5298V17.0972C53.9193 17.3099 53.7472 17.482 53.5344 17.482H48.566C48.362 17.482 48.1949 17.6403 48.1822 17.8438C48.18 17.8812 48.1773 17.9196 48.174 17.9592C48.1558 18.183 48.3323 18.3765 48.5572 18.3765H53.2271C53.4398 18.3765 53.6119 18.5486 53.6119 18.7614V19.3441C53.6119 19.5569 53.4398 19.729 53.2271 19.729H49.4555C49.1009 19.729 48.9338 20.1683 49.1977 20.4047C50.3132 21.4042 52.0186 21.9292 53.4921 22.1447C53.7824 22.1871 53.916 22.5257 53.7367 22.7583L52.9302 23.8001C52.8389 23.9178 52.6905 23.9739 52.5453 23.9414L52.5464 23.9403Z" fill="#FF0000"/>
<path d="M68.544 16.3109V23.3922C68.544 23.6049 68.372 23.777 68.1592 23.777H66.0986C65.932 23.777 65.7847 23.6698 65.733 23.5115L65.4477 22.6384C65.3657 22.3883 65.5532 22.1315 65.8166 22.1337C66.1354 22.1365 66.4785 22.1381 66.5604 22.1293C66.7303 22.1139 66.8535 22.0677 66.8535 21.6675V16.3109C66.8535 16.0982 66.6814 15.9261 66.4686 15.9261H65.4207C65.2079 15.9261 65.0359 15.754 65.0359 15.5412V15.3257C65.0359 15.1129 64.8638 14.9409 64.651 14.9409H63.7725C63.5597 14.9409 63.3876 15.1129 63.3876 15.3257V23.407C63.3876 23.6198 63.2155 23.7919 63.0028 23.7919H62.1429C61.9301 23.7919 61.758 23.6198 61.758 23.407V15.3257C61.758 15.1129 61.586 14.9409 61.3732 14.9409H59.8327V14.6484C59.7249 14.8183 59.6012 15.0492 59.1697 15.6798C59.2626 15.726 59.4627 15.8183 59.4627 15.9882C59.4627 16.0652 59.4165 16.1114 59.3549 16.1575C59.1548 16.3423 59.1235 16.3731 59.1235 16.4962V20.668C59.5501 19.2622 59.7277 18.1577 59.8008 16.5215C59.8107 16.2939 60.0125 16.1229 60.2384 16.1542L61.3721 16.3115C61.526 16.3263 61.6646 16.4346 61.6646 16.5424C61.6646 16.6809 61.4645 16.7579 61.3721 16.8041C61.3039 18.2561 61.089 19.9527 60.7822 20.9588C60.7228 21.1534 60.5243 21.2667 60.3264 21.2211L59.5946 21.0528C59.3533 20.9973 59.1235 21.1804 59.1235 21.4278V23.407C59.1235 23.6198 58.9514 23.7919 58.7386 23.7919H57.8023C57.5896 23.7919 57.4175 23.6198 57.4175 23.407V17.9427C57.2899 18.0873 57.2234 18.1615 57.1475 18.2429C57.0134 18.3875 56.7918 18.4084 56.634 18.2907L55.872 17.7211C55.6818 17.5787 55.6681 17.3038 55.838 17.1373C56.8628 16.1328 57.7232 14.9612 58.4 13.6868C58.4973 13.5032 58.7194 13.4273 58.9063 13.5186L59.8327 13.9705V13.2932H61.3737C61.5865 13.2932 61.7586 13.1211 61.7586 12.9083V10.8186C61.7586 10.5987 61.9422 10.4233 62.1621 10.4343L63.3579 10.492C63.5113 10.492 63.6971 10.569 63.6971 10.7075C63.6971 10.7383 63.6812 10.8153 63.5888 10.8768C63.4503 10.9846 63.3882 11.0467 63.3882 11.1693V12.9089C63.3882 13.1216 63.5602 13.2937 63.773 13.2937H64.7126C64.9254 13.2937 65.0974 13.4658 65.0974 13.6786V13.9864C65.0974 14.1992 65.2695 14.3713 65.4823 14.3713H68.9454C69.1582 14.3713 69.3302 14.5434 69.3302 14.7561V15.5412C69.3302 15.754 69.1582 15.9261 68.9454 15.9261H68.9305C68.7178 15.9261 68.5457 16.0982 68.5457 16.3109H68.544ZM59.7392 11.8307C59.5693 11.8461 59.5232 11.8461 59.416 11.9544C58.605 12.7654 57.9546 13.2937 57.2322 13.8144C57.081 13.9232 56.8727 13.9067 56.7391 13.7764L56.0623 13.1161C55.8874 12.9457 55.9155 12.6598 56.1172 12.5224C56.8924 11.9935 57.6303 11.4112 58.2735 10.7323C58.4093 10.5893 58.627 10.5668 58.7837 10.6861L59.6612 11.3535C59.8772 11.5074 59.9234 11.5844 59.9234 11.6619C59.9234 11.8005 59.8162 11.8153 59.7387 11.8313L59.7392 11.8307ZM63.9352 12.6422C63.8439 12.2486 63.7554 11.9731 63.6784 11.7713C63.5982 11.5602 63.7092 11.3255 63.9259 11.2611L64.3354 11.1391C64.5213 11.0836 64.7175 11.177 64.7984 11.3535C64.9485 11.6817 65.0623 11.9847 65.1612 12.32C65.2233 12.5295 65.1002 12.7511 64.8885 12.8055L64.4069 12.9303C64.198 12.9847 63.9841 12.8522 63.9352 12.6417V12.6422ZM64.1963 20.5377C64.1733 19.5948 64.1084 18.3385 63.8764 16.6589C63.8467 16.4451 63.9968 16.2433 64.2112 16.2186L64.9144 16.1372C65.1194 16.1136 65.3091 16.2576 65.341 16.4616C65.5439 17.7563 65.639 18.9461 65.6736 20.348C65.678 20.5311 65.5521 20.6966 65.3734 20.7373L64.6664 20.8994C64.4295 20.9539 64.2018 20.7807 64.1958 20.5377H64.1963ZM65.4823 12.1842V11.4305C65.4823 11.2177 65.6544 11.0456 65.8671 11.0456H68.8222C69.035 11.0456 69.2071 11.2177 69.2071 11.4305V12.1842C69.2071 12.397 69.035 12.5691 68.8222 12.5691H65.8671C65.6544 12.5691 65.4823 12.397 65.4823 12.1842Z" fill="#FF0000"/>
<path d="M82.7907 23.6803C80.1962 22.0568 79.0725 20.7731 78.1142 18.8384C77.9751 18.5574 77.5754 18.5525 77.4303 18.8301C76.1493 21.2893 74.7775 22.6522 72.4624 23.8266C72.3205 23.8986 72.1457 23.8755 72.0275 23.7689L71.1644 22.9942C70.9549 22.8062 71.0143 22.4697 71.271 22.3537C74.2525 21.0111 75.5841 19.1507 76.3477 16.3632C76.4143 16.1202 76.2262 15.8789 75.9739 15.8789H71.5151C71.3023 15.8789 71.1303 15.7068 71.1303 15.494V14.6012C71.1303 14.3884 71.3023 14.2163 71.5151 14.2163H76.2993C76.5028 14.2163 76.6721 14.058 76.6842 13.8551C76.7188 13.2817 76.7188 12.7138 76.7188 12.523C76.7188 11.8632 76.7023 11.3305 76.6809 10.8978C76.6699 10.6702 76.8579 10.486 77.0855 10.4981L78.7047 10.5833C78.8124 10.5833 78.9664 10.5982 78.9664 10.7681C78.9664 10.8912 78.813 11.0298 78.6744 11.1529C78.6431 11.4762 78.6431 11.2761 78.6431 12.0458C78.6431 12.1618 78.6216 13.0942 78.5969 13.8199C78.5892 14.0376 78.7635 14.2163 78.9818 14.2163H83.9848C84.1976 14.2163 84.3697 14.3884 84.3697 14.6012V15.494C84.3697 15.7068 84.1976 15.8789 83.9848 15.8789H79.2693C79.0021 15.8789 78.8196 16.1439 78.907 16.3957C79.7828 18.9109 80.9775 20.4927 84.1338 22.1118C84.373 22.2344 84.4224 22.5549 84.2256 22.738L83.2618 23.6358C83.1343 23.7546 82.9386 23.7716 82.7907 23.6792V23.6803Z" fill="#FF0000"/>
<path d="M97.101 16.6184V15.5408C97.101 15.328 96.9289 15.1559 96.7162 15.1559H88.3578C88.145 15.1559 87.9729 15.328 87.9729 15.5408V16.6953C87.9729 16.9081 87.8008 17.0802 87.5881 17.0802H86.6952C86.4824 17.0802 86.3104 16.9081 86.3104 16.6953V14.1108C86.3104 13.898 86.4824 13.7259 86.6952 13.7259H93.7616C93.8782 13.7259 93.9892 13.6737 94.0623 13.5835C94.6836 12.8215 95.2548 12.0232 95.6815 11.1414C95.7661 10.9666 95.9624 10.878 96.1466 10.9391L97.3473 11.3393C97.4397 11.3707 97.6096 11.4779 97.6096 11.6016C97.6096 11.6631 97.5782 11.6785 97.5485 11.6939C97.5023 11.7401 97.1631 11.8171 97.1021 11.8787C96.8734 12.3031 96.6529 12.6736 96.3418 13.1206C96.1647 13.3752 96.3461 13.7259 96.6568 13.7259H98.4106C98.6234 13.7259 98.7954 13.898 98.7954 14.1108V16.6184C98.7954 16.8311 98.6234 17.0032 98.4106 17.0032H97.487C97.2742 17.0032 97.1021 16.8311 97.1021 16.6184H97.101ZM93.8831 20.2816C93.6703 20.2816 93.4983 20.4537 93.4983 20.6664V22.6077C93.4983 23.6837 92.606 23.9454 91.6664 23.9454H90.9539C90.7983 23.9454 90.6581 23.8519 90.5981 23.7078L90.2628 22.8997C90.1523 22.6341 90.3623 22.3449 90.6487 22.3686C90.906 22.3895 91.16 22.4081 91.2507 22.4081C91.513 22.4081 91.6202 22.1767 91.6202 21.9458V20.6664C91.6202 20.4537 91.4481 20.2816 91.2353 20.2816H86.6947C86.4819 20.2816 86.3098 20.1095 86.3098 19.8967V19.16C86.3098 18.9472 86.4819 18.7752 86.6947 18.7752H91.2353C91.4481 18.7752 91.6202 18.6031 91.6202 18.3903V17.8196L92.1766 17.9126C92.292 17.9318 92.413 17.8983 92.4987 17.8185C92.7352 17.5986 92.8396 17.4524 92.9441 17.2957H89.2193C89.0065 17.2957 88.8344 17.1236 88.8344 16.9108V16.2511C88.8344 16.0383 89.0065 15.8663 89.2193 15.8663H95.5968C95.7282 15.8663 95.8508 15.9333 95.9217 16.0444L96.0636 16.267C96.1658 16.4276 96.1356 16.637 95.9932 16.763C95.5424 17.1604 94.9563 17.6492 94.3988 18.0901C94.1129 18.3161 94.2746 18.7757 94.6391 18.7757H98.3325C98.5453 18.7757 98.7174 18.9478 98.7174 19.1606V19.8973C98.7174 20.11 98.5453 20.2821 98.3325 20.2821H93.8837L93.8831 20.2816ZM88.4776 13.2196C88.2275 12.7473 87.9641 12.3333 87.6084 11.8732C87.4693 11.6934 87.5204 11.4306 87.7145 11.3124L88.476 10.8489C88.6376 10.7505 88.8487 10.7829 88.9702 10.9286C89.3248 11.3542 89.6498 11.7978 89.9565 12.3449C90.0555 12.5214 89.9939 12.7479 89.8229 12.8562L89.0208 13.3631C88.8328 13.4818 88.5815 13.417 88.4771 13.2201L88.4776 13.2196ZM91.9864 12.9392C91.7082 12.4097 91.4047 11.9287 90.9956 11.3981C90.856 11.2173 90.9104 10.9534 91.1072 10.8368L91.8445 10.3992C92.0078 10.3024 92.2217 10.3398 92.3415 10.4866C92.8303 11.0886 93.1739 11.6236 93.4559 12.1464C93.5582 12.3361 93.4895 12.5719 93.2992 12.6731L92.5048 13.0948C92.3184 13.1937 92.0842 13.1256 91.9864 12.9386V12.9392Z" fill="#FF0000"/>
<path d="M108.235 18.7974C108.155 20.1564 108.003 21.3962 107.798 22.2518C107.779 22.3324 107.7 22.3833 107.619 22.3697C107.345 22.324 106.751 22.225 106.458 22.1763C106.367 22.1611 106.309 22.0717 106.332 21.9822C106.47 21.4371 106.678 20.5229 106.829 18.5814C106.836 18.4926 106.915 18.4257 107.003 18.435L108.024 18.5409C108.07 18.5409 108.247 18.5889 108.235 18.7976V18.7974ZM110.697 17.9795C110.679 17.8713 110.664 17.7895 110.649 17.7192C110.633 17.6383 110.557 17.5848 110.475 17.5946C110.422 17.601 110.376 17.6048 110.32 17.6088C110.237 17.6149 110.173 17.6837 110.173 17.7668V23.7089C110.173 23.7962 110.102 23.8672 110.015 23.8672H108.627C108.54 23.8672 108.469 23.7964 108.469 23.7089V17.9803C108.469 17.8757 108.382 17.7924 108.277 17.7975C107.933 17.8142 107.184 17.8397 106.889 17.8653C106.705 17.8807 106.612 17.8807 106.597 17.6965L106.49 16.6404C106.49 16.4866 106.534 16.4093 106.646 16.2967C107.046 15.8979 107.716 15.1212 107.947 14.7971C107.993 14.7331 107.98 14.6387 107.921 14.5869C107.612 14.3174 107.502 14.2736 106.653 13.5774C106.579 13.5168 106.563 13.4098 106.618 13.3312C106.618 13.3312 108.439 11.174 108.817 10.4862C108.859 10.4099 108.955 10.3836 109.031 10.4259L110.043 10.9865C110.165 11.0611 110.087 11.1772 109.976 11.3349C109.482 12.0755 109.254 12.2912 108.711 13.0326C108.661 13.101 108.672 13.1974 108.73 13.2592C108.767 13.2989 108.921 13.394 108.947 13.4206C109.028 13.5065 109.156 13.4823 109.233 13.392C109.806 12.7187 110.01 12.3362 110.237 12.0119C110.296 11.9276 110.397 11.8865 110.488 11.9364L111.478 12.5935C111.678 12.7009 111.356 12.9619 111.279 13.0694C110.988 13.4988 109.605 15.1178 108.793 16.1046C108.696 16.2231 108.725 16.3722 108.878 16.3679C109.091 16.3621 109.897 16.3096 110.104 16.2976C110.219 16.291 110.3 16.1791 110.271 16.0672C110.202 15.8078 110.085 15.3708 110.01 15.1387C109.977 15.0365 110.037 14.9275 110.142 14.9035C110.434 14.837 110.977 14.7129 111.227 14.6559C111.304 14.6384 111.381 14.679 111.409 14.7522C111.743 15.6276 112.006 16.6618 112.174 17.5746C112.189 17.6533 112.141 17.7292 112.064 17.7524L110.988 18.0777C110.808 18.1321 110.713 18.0731 110.697 17.9795V17.9795ZM110.777 21.3108C110.569 20.2689 110.531 19.4165 110.539 18.7534C110.54 18.6652 110.604 18.5914 110.691 18.5765C110.915 18.5383 111.502 18.466 111.756 18.4227C111.866 18.404 111.965 18.488 111.968 18.5994C111.993 19.4315 112.089 20.163 112.275 20.9629C112.298 21.0587 112.241 21.1557 112.147 21.1818L111.006 21.4514C110.904 21.4796 110.798 21.4148 110.777 21.3109L110.777 21.3108ZM115.196 18.1355C115.165 21.6244 114.255 22.9086 112.296 23.8956C112.238 23.9248 112.167 23.9155 112.118 23.8724L110.901 22.7913C110.811 22.7112 110.84 22.5634 110.954 22.5239C113.088 21.7858 113.469 20.4817 113.387 17.7617C113.384 17.6693 113.46 17.5928 113.553 17.5975L114.901 17.6656C115.238 17.681 115.204 17.8471 115.196 18.1354L115.196 18.1355ZM118.533 17.5954C118.407 17.373 118.277 17.1635 118.132 16.9478C118.1 16.8988 118.042 16.8717 117.983 16.878C117.041 16.9791 113.061 17.3085 112.628 17.355C112.603 17.3576 112.368 17.4048 112.352 17.2359L112.19 16.011C112.175 15.8982 112.303 15.7953 112.413 15.7051C113.22 15.0412 113.839 14.5564 114.264 14.097C114.353 14.0002 114.285 13.8435 114.153 13.8435H112.112C112.024 13.8435 111.953 13.7726 111.953 13.6851V12.4974C111.953 12.4101 112.024 12.3391 112.112 12.3391H114.619C114.707 12.3391 114.778 12.2682 114.778 12.1807V10.6937C114.778 10.6035 114.853 10.5314 114.943 10.5356L116.451 10.6048C116.681 10.6192 116.635 10.9044 116.635 10.9506V12.1811C116.635 12.2685 116.706 12.3395 116.793 12.3395H119.639C119.726 12.3395 119.797 12.4103 119.797 12.4978V13.6855C119.797 13.7729 119.726 13.8439 119.639 13.8439H116.741C116.671 13.8439 116.591 13.8392 116.445 13.9826C116.04 14.3788 115.11 15.1192 114.708 15.5782C114.614 15.6856 114.634 15.7903 114.776 15.7848C115.263 15.7662 116.48 15.6842 116.867 15.6465C117.013 15.6323 117.083 15.4605 116.99 15.3476C116.895 15.2324 116.8 15.117 116.701 15.0018C116.641 14.9319 116.652 14.8259 116.726 14.7713L117.813 13.9718C117.877 13.9249 117.966 13.9323 118.021 13.9894C118.746 14.7401 119.325 15.4834 120.025 16.6441C120.069 16.7169 120.048 16.8121 119.977 16.8584C119.7 17.0382 119.045 17.4639 118.756 17.6513C118.68 17.7009 118.578 17.6749 118.533 17.5957L118.533 17.5954ZM118.446 23.8059H116.942C116.067 23.8059 115.776 23.1764 115.776 22.7161V17.6942C115.776 17.6036 115.851 17.5315 115.942 17.5361L117.28 17.6044C117.479 17.6197 117.464 17.7656 117.464 17.8116V21.5954C117.464 21.795 117.556 22.0713 117.94 22.0713C118.345 22.0713 118.45 21.9211 118.615 20.7715C118.631 20.6644 118.747 20.6027 118.844 20.6515L119.979 21.2253C120.036 21.2543 120.071 21.3162 120.065 21.3801C119.937 22.9973 119.618 23.806 118.447 23.806L118.446 23.8059Z" fill="#FF0000"/>
<path d="M134.005 16.8692C133.156 16.5146 132.437 16.1595 131.458 15.5013C131.353 15.4307 131.211 15.5054 131.211 15.6321V16.4176C131.211 16.505 131.14 16.576 131.053 16.576H125.198C125.111 16.576 125.04 16.5051 125.04 16.4176V15.931C125.04 15.8029 124.895 15.7285 124.79 15.8021C123.638 16.6097 122.91 16.9461 122.408 17.1748C122.348 17.2024 122.277 17.1893 122.23 17.142L121.178 16.0771C121.1 15.9988 121.125 15.8682 121.225 15.8219C123.139 14.9339 125.769 13.3046 127.318 10.5213C127.351 10.4615 127.419 10.4295 127.486 10.4427L128.837 10.7083C128.975 10.739 129.202 11.2536 129.259 11.3291C129.634 11.8349 130.296 12.691 131.579 13.5981C133.05 14.6249 134.396 15.0748 135.196 15.3104C135.307 15.3429 135.347 15.4781 135.272 15.5655L134.187 16.8264C134.143 16.8784 134.069 16.8957 134.005 16.8692V16.8692ZM130.782 23.4043H125.592C125.491 23.4043 125.327 23.4058 125.226 23.4058H123.894C123.806 23.4058 123.735 23.335 123.735 23.2475V17.9315C123.735 17.8442 123.806 17.7732 123.894 17.7732H132.542C132.629 17.7732 132.7 17.844 132.7 17.9315V23.2467C132.7 23.3341 132.629 23.405 132.542 23.405H131.148C131.047 23.405 130.883 23.4043 130.782 23.4043V23.4043ZM130.807 19.2775H125.567C125.48 19.2775 125.409 19.3484 125.409 19.4359V21.6649C125.409 21.7523 125.48 21.8232 125.567 21.8232H130.807C130.895 21.8232 130.966 21.7524 130.966 21.6649V19.4359C130.966 19.3485 130.895 19.2775 130.807 19.2775ZM128.024 12.6341C127.697 13.11 127.199 13.7818 126.15 14.7338C126.042 14.8313 126.11 15.01 126.255 15.01H130.318C130.466 15.01 130.534 14.8239 130.419 14.7297C129.79 14.2152 129.124 13.6205 128.276 12.6221C128.208 12.5423 128.083 12.5476 128.024 12.634L128.024 12.6341Z" fill="#FF0000"/>
<path d="M143.759 16.9785C143.627 20.356 142.288 22.0969 139.524 23.3822C139.432 23.4251 139.322 23.4084 139.246 23.3406L138.258 22.4571C138.116 22.3302 138.159 22.098 138.337 22.0296C140.678 21.1278 141.86 19.8943 141.979 16.9936C141.985 16.8499 141.868 16.731 141.724 16.731H137.163C137.022 16.731 136.908 16.6168 136.908 16.476V15.4044C136.908 15.2636 137.022 15.1494 137.163 15.1494H148.073C148.214 15.1494 148.328 15.2636 148.328 15.4044V16.476C148.328 16.6168 148.214 16.731 148.073 16.731H144.013C143.875 16.731 143.764 16.8408 143.759 16.9785V16.9785ZM138.961 12.7047V11.5572C138.961 11.4164 139.075 11.3022 139.216 11.3022H146.142C146.283 11.3022 146.397 11.4164 146.397 11.5572V12.7047C146.397 12.8455 146.283 12.9597 146.142 12.9597H139.216C139.075 12.9597 138.961 12.8455 138.961 12.7047ZM148.706 13.706C148.244 13.3258 147.864 13.0798 147.55 12.8856C147.427 12.8094 147.393 12.6459 147.474 12.5262L147.769 12.0922L148.112 12.0165C148.591 12.3001 148.931 12.5463 149.326 12.885C149.425 12.9697 149.445 13.1154 149.372 13.223L149.08 13.6533C148.996 13.7775 148.822 13.8014 148.707 13.7061L148.706 13.706ZM149.153 11.7696C148.944 11.5955 148.648 11.3881 148.069 11.0584C147.939 10.9844 147.899 10.8153 147.984 10.6922L148.257 10.2942C148.332 10.1846 148.48 10.1515 148.595 10.2177C149.238 10.5859 149.543 10.804 149.753 10.9811C149.853 11.0656 149.872 11.2118 149.798 11.3198L149.526 11.7173L149.153 11.7696H149.153Z" fill="#FF0000"/>
<path d="M160.106 15.798C159.927 20.1212 158.915 21.6384 156.153 23.3441C156.055 23.4048 155.927 23.3915 155.843 23.3118L154.987 22.4979C154.864 22.381 154.888 22.1783 155.035 22.0933C157.422 20.7094 158.327 19.2693 158.413 16.0586C158.417 15.9159 158.301 15.798 158.158 15.798H155.799C155.658 15.798 155.544 15.9121 155.544 16.0529V18.9493C155.544 19.0901 155.43 19.2043 155.289 19.2043H153.989C153.848 19.2043 153.734 19.0901 153.734 18.9493V16.0529C153.734 15.9121 153.62 15.798 153.479 15.798H151.131C150.99 15.798 150.876 15.6838 150.876 15.543V14.3346C150.876 14.1938 150.99 14.0796 151.131 14.0796H153.479C153.62 14.0796 153.734 13.9655 153.734 13.8247V11.4442C153.734 11.2924 153.866 11.1743 154.017 11.1906L155.319 11.3327C155.669 11.3783 155.544 11.7531 155.544 11.9354V13.8245C155.544 13.9653 155.658 14.0795 155.799 14.0795H158.162C158.303 14.0795 158.418 13.9643 158.418 13.8235C158.418 12.734 158.417 11.9636 158.397 11.2317C158.393 11.0745 158.53 10.9513 158.686 10.9727L159.939 11.1446C160.258 11.1902 160.121 11.6921 160.121 11.905V13.8245C160.121 13.9653 160.235 14.0795 160.376 14.0795H162.406C162.547 14.0795 162.661 14.1937 162.661 14.3345V15.5429C162.661 15.6837 162.547 15.7978 162.406 15.7978H160.106V15.798ZM161.923 11.2566C162.337 11.5092 162.712 11.7957 163.073 12.1097C163.175 12.1985 163.188 12.3531 163.104 12.4594L162.78 12.8679C162.69 12.9814 162.525 12.9963 162.414 12.9027C162.066 12.6078 161.712 12.3373 161.325 12.0966C161.196 12.0165 161.169 11.8397 161.265 11.7219L161.594 11.3157C161.674 11.2174 161.815 11.1906 161.923 11.2566H161.923ZM162.87 9.90073C163.308 10.1558 163.669 10.4165 164.027 10.7231C164.131 10.8125 164.147 10.9686 164.061 11.0762L163.74 11.481C163.651 11.5945 163.484 11.611 163.375 11.5158C163.037 11.2217 162.692 10.9518 162.301 10.7117C162.171 10.632 162.142 10.4554 162.238 10.3366L162.54 9.96015C162.62 9.86121 162.76 9.83689 162.87 9.90073H162.87Z" fill="#FF0000"/>
<path d="M173.804 12.7147C173.044 13.5815 172.192 14.3722 171.295 15.087V22.9372C171.295 23.0781 171.181 23.1922 171.04 23.1922H169.65C169.509 23.1922 169.395 23.0781 169.395 22.9372V16.9733C169.395 16.7709 169.17 16.6496 169.001 16.7597C168.123 17.3293 167.186 17.8884 165.728 18.5822C165.63 18.629 165.511 18.6083 165.435 18.5304L164.505 17.5788C164.38 17.4509 164.421 17.2357 164.586 17.1665C167.585 15.9099 170.693 13.5832 172.897 11.0338C172.988 10.9289 173.145 10.9151 173.252 11.0037L174.382 11.9393C174.443 11.9848 174.017 12.4867 173.804 12.7148V12.7147ZM174.382 11.9392C174.581 12.1075 174.017 12.4865 173.804 12.7147C173.076 13.545 172.264 14.3054 171.409 14.996" fill="#FF0000"/>
<path d="M180.184 15.1062C179.463 14.5294 177.69 13.4804 176.714 13.0211C176.574 12.9551 176.525 12.7817 176.609 12.6519L177.258 11.6524L177.576 11.5582C178.445 11.95 180.383 13.0126 181.216 13.6693C181.322 13.7528 181.345 13.9034 181.268 14.0145L180.556 15.0502C180.472 15.1734 180.301 15.1992 180.184 15.106L180.184 15.1062ZM184.022 18.9509C181.675 20.8523 180.242 21.5059 178.419 22.2864C178.335 22.3224 177.833 22.7222 177.726 22.5245L176.834 20.9952C176.749 20.8487 176.827 20.6606 176.992 20.6197C178.223 20.3125 180.079 19.7374 182.304 18.069C184.41 16.4993 185.806 14.7052 186.548 13.7026C186.652 13.5619 186.863 13.5662 186.962 13.7103L187.704 14.7854C187.766 14.8758 187.765 14.9949 187.699 15.0825C187.075 15.9132 185.913 17.4187 184.022 18.951V18.9509Z" fill="#FF0000"/>
<path d="M210.184 20.5758V23.5804C210.184 23.6536 210.125 23.7129 210.052 23.7129H208.414C208.34 23.7129 208.281 23.6536 208.281 23.5804V20.5758C208.281 20.5026 208.222 20.4434 208.149 20.4434H202.78C202.707 20.4434 202.647 20.3841 202.647 20.3109V18.964C202.647 18.8908 202.707 18.8315 202.78 18.8315H208.149C208.222 18.8315 208.281 18.7722 208.281 18.699V17.6012C208.281 17.4137 208.443 17.2677 208.63 17.2874C208.754 17.3007 208.826 17.1504 208.738 17.0621L208.469 16.7932C208.411 16.7355 208.419 16.6401 208.485 16.592C208.748 16.4008 208.911 16.2422 209.632 15.5618C209.877 15.3171 210.459 14.6537 211.037 13.6729C211.089 13.5852 211.024 13.4743 210.922 13.4743H207.518L207.527 13.334C207.742 13.4415 207.268 14.3031 207.222 14.3493C207.201 14.3698 207.091 14.5426 207.006 14.6772C206.954 14.7604 206.976 14.8692 207.057 14.9245C207.473 15.2088 208.815 15.993 209.356 16.2336C209.433 16.2678 209.46 16.3627 209.411 16.4314L208.507 17.711C207.707 17.2961 206.463 16.5515 206.101 16.2353L205.909 16.2568C205.222 17.1518 204.709 17.675 204.242 18.143C204.198 18.1868 204.13 18.1941 204.078 18.1612L202.788 17.3487C202.712 17.3004 202.706 17.1919 202.776 17.1345C203.937 16.1849 204.931 15.038 205.519 13.658C205.556 13.5711 205.491 13.4741 205.396 13.4741H203.501C203.428 13.4741 203.369 13.4149 203.369 13.3417V12.0715C203.369 11.9983 203.428 11.939 203.501 11.939H208.225C208.299 11.939 208.358 11.8797 208.358 11.8065V10.6278C208.358 10.523 208.446 10.4395 208.55 10.445L209.976 10.527C210.204 10.529 210.246 10.7312 210.246 10.8539V11.8068C210.246 11.88 210.305 11.9393 210.378 11.9393H215.102C215.176 11.9393 215.235 11.9986 215.235 12.0718V13.3419C215.235 13.4151 215.176 13.4744 215.102 13.4744H213.336C213.183 13.4744 212.886 14.1038 212.856 14.1345C212.831 14.1588 212.662 14.4251 212.562 14.5723C212.528 14.6227 212.533 14.6908 212.573 14.7364C213.65 15.9436 214.66 16.5314 215.413 16.8979C215.492 16.9366 215.511 17.0409 215.451 17.1059L214.435 18.212C214.392 18.2596 214.319 18.2686 214.265 18.2334C213.015 17.4273 212.267 16.649 211.695 15.9711C211.643 15.9089 211.547 15.9094 211.494 15.9707C211.095 16.4266 210.706 16.7832 210.324 17.1458C210.232 17.233 210.134 17.2566 210.101 17.2838C210.072 17.308 210.191 17.301 210.191 17.3852C210.192 17.6023 210.185 17.8993 210.185 17.9566V18.6992C210.185 18.7724 210.244 18.8317 210.317 18.8317H215.778C215.851 18.8317 215.91 18.8909 215.91 18.9641V20.311C215.91 20.3842 215.851 20.4435 215.778 20.4435H210.317C210.244 20.4435 210.185 20.5028 210.185 20.576L210.184 20.5758Z" fill="#FF0000"/>
<path d="M230.199 24.0844C230.149 24.1353 230.074 24.1526 230.007 24.1279C229.503 23.9429 227.834 23.188 226.597 22.2139C225.122 21.0534 224.465 19.8114 224.146 19.1563C224.124 19.1106 224.078 19.0826 224.027 19.0826H223.536C223.463 19.0826 223.404 19.1413 223.403 19.2143L223.389 21.4918C223.389 21.5729 223.462 21.6353 223.542 21.6235C224.156 21.5334 224.695 21.4489 225.319 21.3035C225.405 21.2835 225.487 21.3505 225.482 21.4386L225.42 22.6508C225.417 22.7101 225.375 22.7603 225.317 22.7734C223.347 23.2197 221.372 23.5631 220.436 23.7142C220.202 23.7579 219.965 23.8104 219.95 23.6262L219.783 22.2212C219.774 22.1445 219.832 22.0761 219.909 22.0734C220.132 22.0652 220.48 22.0318 221.49 21.9063C221.557 21.8981 221.608 21.8415 221.608 21.7747V19.2151C221.608 19.1419 221.548 19.0826 221.475 19.0826H219.99C219.923 19.0826 219.868 19.1315 219.859 19.1979C219.729 20.243 219.397 21.6903 218.619 23.3068C218.591 23.3664 218.522 23.3964 218.459 23.3764L217.076 22.9371C216.998 22.9122 216.96 22.8237 216.998 22.7506C217.206 22.3469 217.528 21.6842 217.801 20.6329C218.154 19.328 218.384 17.7625 218.384 15.9051C218.384 14.3811 218.297 12.4648 218.207 10.7783C218.203 10.7025 218.264 10.64 218.34 10.64H230.025C230.099 10.64 230.158 10.6993 230.158 10.7725V14.0842C230.158 14.1574 230.099 14.2166 230.025 14.2166H227.302C227.517 14.2475 227.564 14.3809 227.564 14.4394V15.1742C227.564 15.2474 227.623 15.3067 227.696 15.3067H229.933C230.006 15.3067 230.066 15.366 230.066 15.4392V16.4944C230.066 16.5676 230.006 16.6269 229.933 16.6269H227.696C227.623 16.6269 227.564 16.6862 227.564 16.7594V17.5842C227.564 17.6574 227.623 17.7167 227.696 17.7167H230.363C230.436 17.7167 230.495 17.776 230.495 17.8492V18.9506C230.495 19.0238 230.436 19.0831 230.363 19.0831H229.299C229.131 19.0831 229.051 19.2897 229.176 19.402L229.602 19.8072C229.695 19.888 229.612 19.9983 229.51 20.0767C229.271 20.2733 228.621 20.8005 228.175 21.2015C228.101 21.2675 228.109 21.3628 228.194 21.4143C228.786 21.7761 230.408 22.3213 231.147 22.4942C231.286 22.5267 231.336 22.6988 231.236 22.8004L230.199 24.085L230.199 24.0844ZM221.89 16.6264H220.574C220.501 16.6264 220.441 16.5671 220.441 16.4939V15.4387C220.441 15.3655 220.501 15.3062 220.574 15.3062H221.89C221.963 15.3062 222.023 15.2469 222.023 15.1737V14.3486C222.023 14.2754 221.963 14.2161 221.89 14.2161H220.159C220.086 14.2161 220.027 14.2754 220.027 14.3486V15.966C220.027 16.2825 220.027 16.8957 220.002 17.5779C219.999 17.6529 220.059 17.7159 220.134 17.7159H221.89C221.963 17.7159 222.022 17.6567 222.022 17.5835V16.7586C222.022 16.6854 221.963 16.6261 221.89 16.6261L221.89 16.6264ZM228.322 11.9753H220.159C220.086 11.9753 220.027 12.0346 220.027 12.1078V12.7485C220.027 12.8217 220.086 12.881 220.159 12.881H228.322C228.395 12.881 228.454 12.8217 228.454 12.7485V12.1078C228.454 12.0346 228.395 11.9753 228.322 11.9753ZM225.845 14.3489C225.845 14.2757 225.785 14.2164 225.712 14.2164H223.543C223.75 14.2612 223.711 14.4483 223.711 14.5052V15.174C223.711 15.2472 223.77 15.3065 223.843 15.3065H225.712C225.785 15.3065 225.845 15.2472 225.845 15.174V14.3489V14.3489ZM225.712 16.6264H223.843C223.77 16.6264 223.711 16.6857 223.711 16.7589V17.5837C223.711 17.6569 223.77 17.7162 223.843 17.7162H225.712C225.785 17.7162 225.845 17.6569 225.845 17.5837V16.7589C225.845 16.6857 225.785 16.6264 225.712 16.6264ZM225.98 19.2859C226.305 19.8157 226.612 20.1256 226.822 20.3153C226.87 20.3578 226.941 20.3601 226.992 20.3218C227.424 19.9931 227.738 19.6544 228.024 19.298C228.094 19.2114 228.032 19.0826 227.921 19.0826H226.092C225.988 19.0826 225.925 19.1976 225.98 19.286V19.2859Z" fill="#FF0000"/>
<path d="M199.94 20.0797C198.983 21.4949 197.686 22.1107 196.904 22.4367C196.795 22.4822 196.669 22.4458 196.6 22.3497L195.903 21.38C195.802 21.2384 195.869 21.04 196.035 20.9875C196.652 20.793 197.48 20.451 198.183 19.6095C199.027 18.614 199.179 17.4662 199.179 16.8578C199.179 16.0974 198.958 15.1709 198.183 14.438C197.435 13.7253 196.616 13.584 196.075 13.5321C195.939 13.5191 195.819 13.6168 195.799 13.7519C195.35 16.8971 194.563 18.7612 194.118 19.6649C193.703 20.5221 193.067 21.6837 192.348 21.6837C191.85 21.6837 189.583 20.4392 189.583 17.9639C189.583 14.8942 192.113 12.101 195.681 12.101C198.557 12.101 200.825 14.0508 200.825 17.1344C200.825 18.3511 200.451 19.3191 199.939 20.0797H199.94ZM192.5 14.756C191.518 15.6963 191.118 16.9823 191.118 17.8258C191.118 18.9458 191.754 19.5266 192.003 19.5266C192.676 19.5266 193.76 16.3656 194.123 14.192C194.157 13.9929 193.96 13.8361 193.773 13.9129C193.411 14.0622 192.966 14.3004 192.5 14.756V14.756Z" fill="#FF0000"/>
<path d="M245.091 20.2073V22.7253C245.091 22.9381 244.919 23.1102 244.706 23.1102H239.087C238.875 23.1102 238.703 22.9381 238.703 22.7253V21.91C238.703 19.4942 240.307 18.2847 241.897 16.6947C242.451 16.1416 243.298 15.295 243.298 14.3444C243.298 13.705 243.176 12.772 241.914 12.772C240.514 12.772 240.497 14.0162 240.497 14.5148V15.2037H238.737V14.5148C238.737 12.4647 239.704 11.0182 241.914 11.0182C244.022 11.0182 245.091 12.2415 245.091 14.3427C245.091 15.5847 244.522 16.5182 243.176 17.868C242.109 18.9362 240.939 19.8901 240.628 20.85C240.551 21.0881 240.752 21.3278 241.002 21.3278H243.016C243.229 21.3278 243.401 21.1557 243.401 20.9429V20.2084C243.401 19.9956 243.573 19.8236 243.786 19.8236H244.706C244.919 19.8236 245.091 19.9956 245.091 20.2084V20.2073Z" fill="#FF0000"/>
<path d="M252.97 14.5187V19.8423C252.97 21.8985 251.938 23.345 249.8 23.345C247.662 23.345 246.629 21.8985 246.629 19.8423V14.5187C246.629 12.4631 247.662 11.016 249.8 11.016C251.938 11.016 252.97 12.4631 252.97 14.5187ZM248.367 14.5187V16.5722C248.367 16.9394 248.831 17.0978 249.056 16.8075L251.126 14.1328C251.183 14.058 251.218 13.9651 251.207 13.8711C251.145 13.3444 250.746 12.738 249.8 12.738C248.402 12.738 248.367 14.0168 248.367 14.5182V14.5187ZM251.232 19.8423V17.8075C251.232 17.4403 250.767 17.2814 250.543 17.5722L248.491 20.2288C248.434 20.303 248.4 20.3954 248.41 20.4888C248.469 21.0155 248.853 21.623 249.8 21.623C251.198 21.623 251.232 20.3442 251.232 19.8428V19.8423Z" fill="#FF0000"/>
<path d="M260.878 20.2073V22.7253C260.878 22.9381 260.706 23.1102 260.494 23.1102H254.875C254.663 23.1102 254.49 22.9381 254.49 22.7253V21.91C254.49 19.4942 256.095 18.2847 257.685 16.6947C258.239 16.1416 259.086 15.295 259.086 14.3444C259.086 13.705 258.965 12.772 257.702 12.772C256.303 12.772 256.286 14.0162 256.286 14.5148V15.2037H254.526V14.5148C254.526 12.4647 255.492 11.0182 257.702 11.0182C259.81 11.0182 260.878 12.2415 260.878 14.3427C260.878 15.5847 260.31 16.5182 258.965 17.868C257.897 18.9362 256.727 19.8901 256.416 20.85C256.339 21.0881 256.54 21.3278 256.79 21.3278H258.804C259.017 21.3278 259.189 21.1557 259.189 20.9429V20.2084C259.189 19.9956 259.361 19.8236 259.574 19.8236H260.494C260.706 19.8236 260.878 19.9956 260.878 20.2084V20.2073Z" fill="#FF0000"/>
<path d="M12.77 24.0404L12.1289 23.1371C11.9574 22.8958 12.1135 22.5621 12.4082 22.5335C14.0433 22.374 15.7581 22.0733 17.4602 21.418C17.706 21.3234 17.7818 21.0073 17.613 20.8055C17.3799 20.5268 17.1391 20.2695 16.8631 20.0122C16.74 19.8973 16.5498 19.8813 16.4041 19.9654C15.4991 20.4872 14.9378 20.7258 14.3094 20.9435C14.1703 20.9919 14.0152 20.9545 13.9119 20.8495L13.2543 20.1842C13.0537 19.9814 13.1383 19.6438 13.4077 19.5487C14.6574 19.1061 15.7416 18.5283 16.6229 17.9153C17.0039 17.6503 16.6663 17.0582 16.243 17.2495C15.4744 17.5964 14.548 17.9626 13.4468 18.3084C13.2939 18.3562 13.1224 18.3045 13.0234 18.1786L12.4357 17.4298C12.2647 17.2121 12.3725 16.8872 12.6408 16.8201C14.2868 16.4067 15.3694 15.93 16.1649 15.5386C16.3969 15.4242 16.453 15.1141 16.2716 14.9294C16.0242 14.677 15.7625 14.4505 15.4205 14.2097C15.2924 14.1196 15.1198 14.1212 14.9884 14.2064C14.5634 14.483 14.1697 14.7045 13.6068 14.986C13.4754 15.0514 13.3143 15.0377 13.1977 14.9486L12.4638 14.3884C12.2372 14.2152 12.2713 13.8617 12.5281 13.7375C15.0159 12.5395 15.9747 11.3124 16.5058 10.4492C16.5877 10.3161 16.7444 10.2491 16.8983 10.2771L18.5147 10.5685C18.6994 10.5993 18.8688 10.6763 18.8688 10.7994C18.8688 10.8918 18.8072 10.938 18.7456 10.9533C18.6994 10.9841 18.4372 11.0303 18.391 11.0611C18.3448 11.0919 18.1749 11.3228 18.1287 11.369H22.0674C22.1856 11.369 22.2967 11.4229 22.3698 11.5158L22.7909 12.0507C22.9102 12.2019 22.902 12.4152 22.7684 12.5538C22.3005 13.0381 21.2999 13.9849 20.2861 14.8084C20.0535 14.997 20.1184 15.3665 20.4005 15.4676L21.0388 15.6958C21.1619 15.742 21.3005 15.8036 21.3005 15.9421C21.3005 16.0493 21.2389 16.0806 21.2081 16.0955C21.1311 16.1268 20.7925 16.2032 20.7309 16.2654C20.6534 16.3423 20.3004 16.7888 20.208 16.8811H23.5645C23.6805 16.8811 23.7904 16.9334 23.8636 17.0241L24.089 17.3028C24.1967 17.4359 24.2044 17.6266 24.1071 17.7674C21.875 20.993 19.1458 23.174 13.1537 24.1988C13.0075 24.2241 12.8552 24.1625 12.7694 24.041L12.77 24.0404ZM16.9286 12.6934C16.7587 12.8468 16.7438 12.8628 16.4981 13.0783C17.0028 13.4015 17.4426 13.7688 17.8528 14.1888C17.9869 14.3263 18.2008 14.3505 18.3558 14.2378C18.7698 13.9365 19.1134 13.6588 19.429 13.351C19.6742 13.1118 19.4983 12.6934 19.1557 12.6934H16.9286V12.6934ZM18.546 18.4618C18.4509 18.5398 18.3838 18.5954 18.3212 18.6476C18.137 18.8004 18.1348 19.0786 18.3168 19.2342C18.5889 19.4668 18.8896 19.7483 19.2003 20.0809C19.3383 20.2288 19.5653 20.2513 19.7242 20.1265C20.108 19.8252 20.4571 19.5086 20.8936 19.0198C21.1157 18.7713 20.942 18.3744 20.6088 18.3744H18.7907C18.7016 18.3744 18.6148 18.4057 18.546 18.4623V18.4618Z" fill="#FF0000"/>
<path d="M37.9225 16.7013C37.8038 16.8008 37.635 16.8195 37.4976 16.7475C36.8048 16.3841 36.3029 16.058 35.6635 15.4175V16.1416C35.6635 16.3544 35.4914 16.5265 35.2786 16.5265H34.6013C34.3885 16.5265 34.2164 16.3544 34.2164 16.1416V15.5253C33.9663 15.826 33.5842 16.2175 33.2186 16.4863C33.0784 16.5891 32.8887 16.5875 32.7513 16.4808L32.0151 15.9102L31.8304 16.0339C31.5995 15.9102 31.3999 15.7414 31.1998 15.5412V16.3731C31.1998 16.5858 31.0277 16.7579 30.8149 16.7579H30.1992C29.9864 16.7579 29.8143 16.5858 29.8143 16.3731V15.4181C29.474 15.881 29.0946 16.2477 28.7681 16.5254C28.6268 16.6452 28.4228 16.6485 28.2777 16.5336L27.8439 16.1889C27.7713 19.2463 27.5882 21.077 26.9175 22.739C26.8499 22.9062 26.6706 23.0018 26.4925 22.9705L25.4375 22.7858C25.1917 22.7429 25.051 22.4801 25.1521 22.2519C25.7926 20.8049 26.2737 19.3568 26.2737 16.035C26.2737 14.7551 26.1857 13.0238 26.089 11.6927C26.073 11.4695 26.2489 11.2793 26.4727 11.2793H30.8144C31.0271 11.2793 31.1992 11.1072 31.1992 10.8945V10.8653C31.1992 10.646 31.3817 10.4711 31.6006 10.481L32.969 10.5404C33.1999 10.5558 33.4616 10.6333 33.4616 10.8026C33.4616 10.8642 33.3692 10.9258 33.3076 10.9566C33.1383 11.049 33.1383 11.0797 33.1383 11.2799H38.3563C38.5691 11.2799 38.7412 11.4519 38.7412 11.6647V12.2013C38.7412 12.4141 38.5691 12.5862 38.3563 12.5862H35.6629V13.3575H38.3563C38.5691 13.3575 38.7412 13.5296 38.7412 13.7424V14.125C38.7412 14.3378 38.5691 14.5099 38.3563 14.5099H37.5531C37.1765 14.5099 37.022 14.992 37.3293 15.2097C37.5877 15.3928 37.889 15.5808 38.2222 15.7529C38.4668 15.8799 38.507 16.2125 38.2959 16.3896L37.922 16.7024L37.9225 16.7013ZM29.8132 12.5845H27.812C27.8208 12.645 27.829 12.8121 27.8351 12.9853C27.8422 13.192 28.0127 13.3559 28.2199 13.3559H29.8132V12.5845V12.5845ZM28.2425 14.5703C28.0303 14.5703 27.8587 14.7402 27.8576 14.9524C27.8565 15.2141 27.8527 15.4989 27.8428 15.71C28.1353 15.5715 28.7362 15.0481 29.1205 14.5703H28.2425ZM34.2313 21.4976C34.0185 21.4976 33.8464 21.6697 33.8464 21.8825V22.6071C33.8464 23.6396 32.4027 23.76 31.5923 23.7847C31.4367 23.7897 31.2965 23.7001 31.2322 23.5582L30.882 22.7825C30.766 22.5257 30.9595 22.2349 31.2416 22.2393C32.1152 22.2536 32.169 22.1777 32.169 21.7131V21.4965H28.2436C28.0308 21.4965 27.8587 21.3244 27.8587 21.1117V20.6982C27.8587 20.4855 28.0308 20.3134 28.2436 20.3134H32.169V19.8653H28.9363C28.7235 19.8653 28.5514 19.6932 28.5514 19.4805V19.067C28.5514 18.8543 28.7235 18.6822 28.9363 18.6822H32.169V18.2182C30.5224 18.2456 29.9281 18.2489 29.2838 18.2385C29.137 18.2363 29.0045 18.1511 28.9412 18.0186L28.7972 17.7151C28.6697 17.4452 28.8868 17.1395 29.1843 17.1675C29.7241 17.2186 30.0749 17.2357 30.5829 17.2357C31.4142 17.2357 32.2762 17.1741 33.0306 17.112C34.5282 16.9707 35.2605 16.7777 36.0494 16.5441C36.1814 16.505 36.3249 16.5386 36.4249 16.6337L37.1721 17.3429C37.2793 17.4353 37.3717 17.5733 37.3717 17.6502C37.3717 17.7277 37.2793 17.7426 37.2331 17.7426C37.1869 17.7426 36.9714 17.7277 36.9252 17.7277C36.8329 17.7277 36.3705 17.835 36.2633 17.8503C35.2319 18.0351 34.3852 18.0961 33.8464 18.1274V18.6833H37.3871C37.5998 18.6833 37.7719 18.8554 37.7719 19.0681V19.4816C37.7719 19.6943 37.5998 19.8664 37.3871 19.8664H33.8464V20.3145H38.3107C38.5235 20.3145 38.6955 20.4866 38.6955 20.6993V21.1128C38.6955 21.3255 38.5235 21.4976 38.3107 21.4976H34.2313V21.4976ZM34.2159 12.5845H31.1992V13.3559H31.9684C32.1811 13.3559 32.3532 13.5279 32.3532 13.7407V14.5703H31.6302C31.7474 14.6616 32.1624 14.9953 32.6039 15.2081C32.7452 15.2763 32.9145 15.2504 33.0317 15.1465C33.372 14.8447 33.5171 14.6935 33.6617 14.5082H32.908V13.7402C32.908 13.5274 33.08 13.3553 33.2928 13.3553H34.2159V12.584V12.5845Z" fill="#FF0000"/>
<path d="M52.5464 23.9403C51.2237 23.644 49.2334 23.0293 47.4961 21.1095C47.335 20.9314 47.0618 20.9369 46.9067 21.1199C45.5636 22.7022 43.7031 23.5549 41.808 23.9414C41.6497 23.9739 41.488 23.9008 41.4028 23.7633L40.8036 22.7913C40.6584 22.556 40.8019 22.2454 41.0763 22.2102C42.8515 21.9815 44.2744 21.2975 45.1771 20.3882C45.4196 20.1441 45.2464 19.7284 44.9028 19.7284H41.3594C41.1466 19.7284 40.9745 19.5564 40.9745 19.3436V18.7608C40.9745 18.548 41.1466 18.376 41.3594 18.376H45.8885C46.087 18.376 46.2503 18.2248 46.2717 18.0279C46.2761 17.9873 46.2805 17.9455 46.2838 17.9031C46.3025 17.6772 46.1271 17.4809 45.9001 17.4809H41.0042C40.7915 17.4809 40.6194 17.3088 40.6194 17.0961V16.5287C40.6194 16.3159 40.7915 16.1438 41.0042 16.1438H46.2998V15.511H42.9285C42.7157 15.511 42.5436 15.3389 42.5436 15.1262V14.605C42.5436 14.3922 42.7157 14.2201 42.9285 14.2201H46.2998V13.6176H41.2973C41.0845 13.6176 40.9124 13.4455 40.9124 13.2327V12.6653C40.9124 12.4526 41.0845 12.2805 41.2973 12.2805H43.4854C43.8065 12.2805 43.9863 11.9083 43.7883 11.6559C43.6707 11.5058 43.5536 11.3651 43.4431 11.2392C43.2633 11.0336 43.3496 10.7147 43.6069 10.6245L44.4904 10.3167C44.6356 10.2661 44.7994 10.3051 44.9022 10.42C45.2541 10.8126 45.5614 11.2232 45.7967 11.5559C45.9446 11.7648 45.85 12.0551 45.6081 12.1397L45.2073 12.2805H48.0129C48.1443 12.2805 48.2647 12.2173 48.3356 12.1062C48.6204 11.6587 48.9453 11.1364 49.2681 10.5239C49.3588 10.3518 49.5616 10.2688 49.7436 10.337L50.8718 10.7576C50.9955 10.8038 51.2264 10.8961 51.2264 11.0655C51.2264 11.1116 51.211 11.143 51.1951 11.1732C51.1489 11.2194 50.8405 11.3118 50.7943 11.3579C50.764 11.3887 50.2401 12.1276 50.1477 12.2816H53.2573C53.4701 12.2816 53.6422 12.4537 53.6422 12.6664V13.2338C53.6422 13.4466 53.4701 13.6187 53.2573 13.6187H48.3004V14.2212H51.6102C51.8229 14.2212 51.995 14.3933 51.995 14.6061V15.1273C51.995 15.34 51.8229 15.5121 51.6102 15.5121H48.3004V16.1449H53.5344C53.7472 16.1449 53.9193 16.317 53.9193 16.5298V17.0972C53.9193 17.3099 53.7472 17.482 53.5344 17.482H48.566C48.362 17.482 48.1949 17.6403 48.1822 17.8438C48.18 17.8812 48.1773 17.9196 48.174 17.9592C48.1558 18.183 48.3323 18.3765 48.5572 18.3765H53.2271C53.4398 18.3765 53.6119 18.5486 53.6119 18.7614V19.3441C53.6119 19.5569 53.4398 19.729 53.2271 19.729H49.4555C49.1009 19.729 48.9338 20.1683 49.1977 20.4047C50.3132 21.4042 52.0186 21.9292 53.4921 22.1447C53.7824 22.1871 53.916 22.5257 53.7367 22.7583L52.9302 23.8001C52.8389 23.9178 52.6905 23.9739 52.5453 23.9414L52.5464 23.9403Z" fill="#FF0000"/>
<path d="M68.544 16.3109V23.3922C68.544 23.6049 68.372 23.777 68.1592 23.777H66.0986C65.932 23.777 65.7847 23.6698 65.733 23.5115L65.4477 22.6384C65.3657 22.3883 65.5532 22.1315 65.8166 22.1337C66.1354 22.1365 66.4785 22.1381 66.5604 22.1293C66.7303 22.1139 66.8535 22.0677 66.8535 21.6675V16.3109C66.8535 16.0982 66.6814 15.9261 66.4686 15.9261H65.4207C65.2079 15.9261 65.0359 15.754 65.0359 15.5412V15.3257C65.0359 15.1129 64.8638 14.9409 64.651 14.9409H63.7725C63.5597 14.9409 63.3876 15.1129 63.3876 15.3257V23.407C63.3876 23.6198 63.2155 23.7919 63.0028 23.7919H62.1429C61.9301 23.7919 61.758 23.6198 61.758 23.407V15.3257C61.758 15.1129 61.586 14.9409 61.3732 14.9409H59.8327V14.6484C59.7249 14.8183 59.6012 15.0492 59.1697 15.6798C59.2626 15.726 59.4627 15.8183 59.4627 15.9882C59.4627 16.0652 59.4165 16.1114 59.3549 16.1575C59.1548 16.3423 59.1235 16.3731 59.1235 16.4962V20.668C59.5501 19.2622 59.7277 18.1577 59.8008 16.5215C59.8107 16.2939 60.0125 16.1229 60.2384 16.1542L61.3721 16.3115C61.526 16.3263 61.6646 16.4346 61.6646 16.5424C61.6646 16.6809 61.4645 16.7579 61.3721 16.8041C61.3039 18.2561 61.089 19.9527 60.7822 20.9588C60.7228 21.1534 60.5243 21.2667 60.3264 21.2211L59.5946 21.0528C59.3533 20.9973 59.1235 21.1804 59.1235 21.4278V23.407C59.1235 23.6198 58.9514 23.7919 58.7386 23.7919H57.8023C57.5896 23.7919 57.4175 23.6198 57.4175 23.407V17.9427C57.2899 18.0873 57.2234 18.1615 57.1475 18.2429C57.0134 18.3875 56.7918 18.4084 56.634 18.2907L55.872 17.7211C55.6818 17.5787 55.6681 17.3038 55.838 17.1373C56.8628 16.1328 57.7232 14.9612 58.4 13.6868C58.4973 13.5032 58.7194 13.4273 58.9063 13.5186L59.8327 13.9705V13.2932H61.3737C61.5865 13.2932 61.7586 13.1211 61.7586 12.9083V10.8186C61.7586 10.5987 61.9422 10.4233 62.1621 10.4343L63.3579 10.492C63.5113 10.492 63.6971 10.569 63.6971 10.7075C63.6971 10.7383 63.6812 10.8153 63.5888 10.8768C63.4503 10.9846 63.3882 11.0467 63.3882 11.1693V12.9089C63.3882 13.1216 63.5602 13.2937 63.773 13.2937H64.7126C64.9254 13.2937 65.0974 13.4658 65.0974 13.6786V13.9864C65.0974 14.1992 65.2695 14.3713 65.4823 14.3713H68.9454C69.1582 14.3713 69.3302 14.5434 69.3302 14.7561V15.5412C69.3302 15.754 69.1582 15.9261 68.9454 15.9261H68.9305C68.7178 15.9261 68.5457 16.0982 68.5457 16.3109H68.544ZM59.7392 11.8307C59.5693 11.8461 59.5232 11.8461 59.416 11.9544C58.605 12.7654 57.9546 13.2937 57.2322 13.8144C57.081 13.9232 56.8727 13.9067 56.7391 13.7764L56.0623 13.1161C55.8874 12.9457 55.9155 12.6598 56.1172 12.5224C56.8924 11.9935 57.6303 11.4112 58.2735 10.7323C58.4093 10.5893 58.627 10.5668 58.7837 10.6861L59.6612 11.3535C59.8772 11.5074 59.9234 11.5844 59.9234 11.6619C59.9234 11.8005 59.8162 11.8153 59.7387 11.8313L59.7392 11.8307ZM63.9352 12.6422C63.8439 12.2486 63.7554 11.9731 63.6784 11.7713C63.5982 11.5602 63.7092 11.3255 63.9259 11.2611L64.3354 11.1391C64.5213 11.0836 64.7175 11.177 64.7984 11.3535C64.9485 11.6817 65.0623 11.9847 65.1612 12.32C65.2233 12.5295 65.1002 12.7511 64.8885 12.8055L64.4069 12.9303C64.198 12.9847 63.9841 12.8522 63.9352 12.6417V12.6422ZM64.1963 20.5377C64.1733 19.5948 64.1084 18.3385 63.8764 16.6589C63.8467 16.4451 63.9968 16.2433 64.2112 16.2186L64.9144 16.1372C65.1194 16.1136 65.3091 16.2576 65.341 16.4616C65.5439 17.7563 65.639 18.9461 65.6736 20.348C65.678 20.5311 65.5521 20.6966 65.3734 20.7373L64.6664 20.8994C64.4295 20.9539 64.2018 20.7807 64.1958 20.5377H64.1963ZM65.4823 12.1842V11.4305C65.4823 11.2177 65.6544 11.0456 65.8671 11.0456H68.8222C69.035 11.0456 69.2071 11.2177 69.2071 11.4305V12.1842C69.2071 12.397 69.035 12.5691 68.8222 12.5691H65.8671C65.6544 12.5691 65.4823 12.397 65.4823 12.1842Z" fill="#FF0000"/>
<path d="M82.7907 23.6803C80.1962 22.0568 79.0725 20.7731 78.1142 18.8384C77.9751 18.5574 77.5754 18.5525 77.4303 18.8301C76.1493 21.2893 74.7775 22.6522 72.4624 23.8266C72.3205 23.8986 72.1457 23.8755 72.0275 23.7689L71.1644 22.9942C70.9549 22.8062 71.0143 22.4697 71.271 22.3537C74.2525 21.0111 75.5841 19.1507 76.3477 16.3632C76.4143 16.1202 76.2262 15.8789 75.9739 15.8789H71.5151C71.3023 15.8789 71.1303 15.7068 71.1303 15.494V14.6012C71.1303 14.3884 71.3023 14.2163 71.5151 14.2163H76.2993C76.5028 14.2163 76.6721 14.058 76.6842 13.8551C76.7188 13.2817 76.7188 12.7138 76.7188 12.523C76.7188 11.8632 76.7023 11.3305 76.6809 10.8978C76.6699 10.6702 76.8579 10.486 77.0855 10.4981L78.7047 10.5833C78.8124 10.5833 78.9664 10.5982 78.9664 10.7681C78.9664 10.8912 78.813 11.0298 78.6744 11.1529C78.6431 11.4762 78.6431 11.2761 78.6431 12.0458C78.6431 12.1618 78.6216 13.0942 78.5969 13.8199C78.5892 14.0376 78.7635 14.2163 78.9818 14.2163H83.9848C84.1976 14.2163 84.3697 14.3884 84.3697 14.6012V15.494C84.3697 15.7068 84.1976 15.8789 83.9848 15.8789H79.2693C79.0021 15.8789 78.8196 16.1439 78.907 16.3957C79.7828 18.9109 80.9775 20.4927 84.1338 22.1118C84.373 22.2344 84.4224 22.5549 84.2256 22.738L83.2618 23.6358C83.1343 23.7546 82.9386 23.7716 82.7907 23.6792V23.6803Z" fill="#FF0000"/>
<path d="M97.101 16.6184V15.5408C97.101 15.328 96.9289 15.1559 96.7162 15.1559H88.3578C88.145 15.1559 87.9729 15.328 87.9729 15.5408V16.6953C87.9729 16.9081 87.8008 17.0802 87.5881 17.0802H86.6952C86.4824 17.0802 86.3104 16.9081 86.3104 16.6953V14.1108C86.3104 13.898 86.4824 13.7259 86.6952 13.7259H93.7616C93.8782 13.7259 93.9892 13.6737 94.0623 13.5835C94.6836 12.8215 95.2548 12.0232 95.6815 11.1414C95.7661 10.9666 95.9624 10.878 96.1466 10.9391L97.3473 11.3393C97.4397 11.3707 97.6096 11.4779 97.6096 11.6016C97.6096 11.6631 97.5782 11.6785 97.5485 11.6939C97.5023 11.7401 97.1631 11.8171 97.1021 11.8787C96.8734 12.3031 96.6529 12.6736 96.3418 13.1206C96.1647 13.3752 96.3461 13.7259 96.6568 13.7259H98.4106C98.6234 13.7259 98.7954 13.898 98.7954 14.1108V16.6184C98.7954 16.8311 98.6234 17.0032 98.4106 17.0032H97.487C97.2742 17.0032 97.1021 16.8311 97.1021 16.6184H97.101ZM93.8831 20.2816C93.6703 20.2816 93.4983 20.4537 93.4983 20.6664V22.6077C93.4983 23.6837 92.606 23.9454 91.6664 23.9454H90.9539C90.7983 23.9454 90.6581 23.8519 90.5981 23.7078L90.2628 22.8997C90.1523 22.6341 90.3623 22.3449 90.6487 22.3686C90.906 22.3895 91.16 22.4081 91.2507 22.4081C91.513 22.4081 91.6202 22.1767 91.6202 21.9458V20.6664C91.6202 20.4537 91.4481 20.2816 91.2353 20.2816H86.6947C86.4819 20.2816 86.3098 20.1095 86.3098 19.8967V19.16C86.3098 18.9472 86.4819 18.7752 86.6947 18.7752H91.2353C91.4481 18.7752 91.6202 18.6031 91.6202 18.3903V17.8196L92.1766 17.9126C92.292 17.9318 92.413 17.8983 92.4987 17.8185C92.7352 17.5986 92.8396 17.4524 92.9441 17.2957H89.2193C89.0065 17.2957 88.8344 17.1236 88.8344 16.9108V16.2511C88.8344 16.0383 89.0065 15.8663 89.2193 15.8663H95.5968C95.7282 15.8663 95.8508 15.9333 95.9217 16.0444L96.0636 16.267C96.1658 16.4276 96.1356 16.637 95.9932 16.763C95.5424 17.1604 94.9563 17.6492 94.3988 18.0901C94.1129 18.3161 94.2746 18.7757 94.6391 18.7757H98.3325C98.5453 18.7757 98.7174 18.9478 98.7174 19.1606V19.8973C98.7174 20.11 98.5453 20.2821 98.3325 20.2821H93.8837L93.8831 20.2816ZM88.4776 13.2196C88.2275 12.7473 87.9641 12.3333 87.6084 11.8732C87.4693 11.6934 87.5204 11.4306 87.7145 11.3124L88.476 10.8489C88.6376 10.7505 88.8487 10.7829 88.9702 10.9286C89.3248 11.3542 89.6498 11.7978 89.9565 12.3449C90.0555 12.5214 89.9939 12.7479 89.8229 12.8562L89.0208 13.3631C88.8328 13.4818 88.5815 13.417 88.4771 13.2201L88.4776 13.2196ZM91.9864 12.9392C91.7082 12.4097 91.4047 11.9287 90.9956 11.3981C90.856 11.2173 90.9104 10.9534 91.1072 10.8368L91.8445 10.3992C92.0078 10.3024 92.2217 10.3398 92.3415 10.4866C92.8303 11.0886 93.1739 11.6236 93.4559 12.1464C93.5582 12.3361 93.4895 12.5719 93.2992 12.6731L92.5048 13.0948C92.3184 13.1937 92.0842 13.1256 91.9864 12.9386V12.9392Z" fill="#FF0000"/>
<path d="M245.091 20.2073V22.7253C245.091 22.9381 244.919 23.1102 244.706 23.1102H239.087C238.875 23.1102 238.703 22.9381 238.703 22.7253V21.91C238.703 19.4942 240.307 18.2847 241.897 16.6947C242.451 16.1416 243.298 15.295 243.298 14.3444C243.298 13.705 243.176 12.772 241.914 12.772C240.514 12.772 240.497 14.0162 240.497 14.5148V15.2037H238.737V14.5148C238.737 12.4647 239.704 11.0182 241.914 11.0182C244.022 11.0182 245.091 12.2415 245.091 14.3427C245.091 15.5847 244.522 16.5182 243.176 17.868C242.109 18.9362 240.939 19.8901 240.628 20.85C240.551 21.0881 240.752 21.3278 241.002 21.3278H243.016C243.229 21.3278 243.401 21.1557 243.401 20.9429V20.2084C243.401 19.9956 243.573 19.8236 243.786 19.8236H244.706C244.919 19.8236 245.091 19.9956 245.091 20.2084V20.2073Z" fill="#FF0000"/>
<path d="M252.97 14.5187V19.8423C252.97 21.8985 251.938 23.345 249.8 23.345C247.662 23.345 246.629 21.8985 246.629 19.8423V14.5187C246.629 12.4631 247.662 11.016 249.8 11.016C251.938 11.016 252.97 12.4631 252.97 14.5187ZM248.367 14.5187V16.5722C248.367 16.9394 248.831 17.0978 249.056 16.8075L251.126 14.1328C251.183 14.058 251.218 13.9651 251.207 13.8711C251.145 13.3444 250.746 12.738 249.8 12.738C248.402 12.738 248.367 14.0168 248.367 14.5182V14.5187ZM251.232 19.8423V17.8075C251.232 17.4403 250.767 17.2814 250.543 17.5722L248.491 20.2288C248.434 20.303 248.4 20.3954 248.41 20.4888C248.469 21.0155 248.853 21.623 249.8 21.623C251.198 21.623 251.232 20.3442 251.232 19.8428V19.8423Z" fill="#FF0000"/>
<path d="M260.878 20.2073V22.7253C260.878 22.9381 260.706 23.1102 260.494 23.1102H254.875C254.663 23.1102 254.49 22.9381 254.49 22.7253V21.91C254.49 19.4942 256.095 18.2847 257.685 16.6947C258.239 16.1416 259.086 15.295 259.086 14.3444C259.086 13.705 258.965 12.772 257.702 12.772C256.303 12.772 256.286 14.0162 256.286 14.5148V15.2037H254.526V14.5148C254.526 12.4647 255.492 11.0182 257.702 11.0182C259.81 11.0182 260.878 12.2415 260.878 14.3427C260.878 15.5847 260.31 16.5182 258.965 17.868C257.897 18.9362 256.727 19.8901 256.416 20.85C256.339 21.0881 256.54 21.3278 256.79 21.3278H258.804C259.017 21.3278 259.189 21.1557 259.189 20.9429V20.2084C259.189 19.9956 259.361 19.8236 259.574 19.8236H260.494C260.706 19.8236 260.878 19.9956 260.878 20.2084V20.2073Z" fill="#FF0000"/>
</svg>
