<svg width="390" height="30" viewBox="0 0 390 30" fill="none" xmlns="http://www.w3.org/2000/svg">
<path d="M12.1781 13.486V13.2958H13.9039V13.3992C13.9039 14.143 14.0073 15.1112 15.2828 15.1112C16.4373 15.1112 16.6776 14.2469 16.6776 13.2612V12.0989C16.6776 11.8196 16.3884 11.6278 16.1366 11.7482C15.8733 11.8746 15.5225 11.9813 15.0926 11.9813C12.8516 11.9813 12.0577 10.3275 12.0577 8.23447C12.0577 6.67693 12.6784 4.47174 15.2652 4.47174C17.8519 4.47174 18.4726 6.67693 18.4726 8.23447V13.2612C18.4726 15.197 17.6963 16.8007 15.2822 16.8007C12.9544 16.8007 12.1781 15.3872 12.1781 13.4855V13.486ZM13.8693 8.23502C13.8693 9.74034 14.4031 10.2599 15.2652 10.2599C16.1272 10.2599 16.66 9.74089 16.66 8.23502C16.66 6.72916 16.1261 6.20961 15.2652 6.20961C14.4042 6.20961 13.8693 6.72861 13.8693 8.23502Z" fill="#FF0000"/>
<path d="M21.6591 7.13434H23.027C23.2398 7.13434 23.4119 7.30642 23.4119 7.51919V8.88706C23.4119 9.09982 23.2398 9.27191 23.027 9.27191H21.6591C21.4464 9.27191 21.2743 9.09982 21.2743 8.88706V7.51919C21.2743 7.30642 21.4464 7.13434 21.6591 7.13434ZM23.4124 12.3842V13.7521C23.4124 13.9649 23.2403 14.137 23.0276 14.137H21.6597C21.4469 14.137 21.2749 13.9649 21.2749 13.7521V12.3842C21.2749 12.1715 21.4469 11.9994 21.6597 11.9994H23.0276C23.2403 11.9994 23.4124 12.1715 23.4124 12.3842Z" fill="#FF0000"/>
<path d="M32.4751 7.97385V13.2974C32.4751 15.3536 31.4432 16.8001 29.3051 16.8001C27.167 16.8001 26.135 15.3536 26.135 13.2974V7.97385C26.135 5.9182 27.167 4.47116 29.3051 4.47116C31.4432 4.47116 32.4751 5.9182 32.4751 7.97385ZM27.8729 7.97385V10.0273C27.8729 10.3946 28.338 10.5529 28.5623 10.2626L30.6312 7.5879C30.6889 7.51313 30.723 7.42021 30.712 7.3262C30.6504 6.7995 30.2518 6.19309 29.3051 6.19309C27.907 6.19309 27.8729 7.47189 27.8729 7.9733V7.97385ZM30.7378 13.2974V11.2627C30.7378 10.8954 30.2727 10.7365 30.0484 11.0274L27.9966 13.6839C27.9394 13.7581 27.9053 13.8505 27.9158 13.944C27.9746 14.4707 28.3578 15.0782 29.3056 15.0782C30.7037 15.0782 30.7378 13.7994 30.7378 13.298V13.2974Z" fill="#FF0000"/>
<path d="M40.0617 7.97385V13.2974C40.0617 15.3536 39.0286 16.8001 36.8905 16.8001C34.7524 16.8001 33.7205 15.3536 33.7205 13.2974V7.97385C33.7205 5.9182 34.7524 4.47116 36.8905 4.47116C39.0286 4.47116 40.0617 5.9182 40.0617 7.97385ZM35.4583 7.97385V10.0273C35.4583 10.3946 35.9229 10.5529 36.1478 10.2626L38.2177 7.5879C38.2754 7.51313 38.3095 7.42021 38.2985 7.3262C38.237 6.7995 37.8378 6.19309 36.8905 6.19309C35.4924 6.19309 35.4583 7.47189 35.4583 7.9733V7.97385ZM38.3244 13.2974V11.2621C38.3244 10.8949 37.8592 10.736 37.6349 11.0268L35.582 13.6834C35.5248 13.7576 35.4908 13.8505 35.5012 13.9434C35.56 14.4701 35.9444 15.0776 36.8911 15.0776C38.2892 15.0776 38.3244 13.7988 38.3244 13.2974V13.2974Z" fill="#FF0000"/>
<path d="M57.0345 14.7819H58.4959C58.7086 14.7819 58.8807 14.6098 58.8807 14.397V8.2702C58.8807 8.05743 58.7086 7.88535 58.4959 7.88535H57.0345C56.8217 7.88535 56.6497 7.71326 56.6497 7.5005V6.86934C56.6497 6.67527 56.7943 6.50813 56.9872 6.48889C57.912 6.39928 58.6619 5.92811 58.8439 4.99952C58.878 4.82469 59.0385 4.70209 59.2166 4.70209H60.3866C60.5993 4.70209 60.7714 4.87417 60.7714 5.08694V14.397C60.7714 14.6098 60.9435 14.7819 61.1563 14.7819H62.6105C62.8232 14.7819 62.9953 14.9539 62.9953 15.1667V16.1805C62.9953 16.3933 62.8232 16.5654 62.6105 16.5654H57.0351C56.8223 16.5654 56.6502 16.3933 56.6502 16.1805V15.1667C56.6502 14.9539 56.8223 14.7819 57.0351 14.7819H57.0345Z" fill="#FF0000"/>
<path d="M70.4543 5.08584V6.28272C70.4543 6.35309 70.4345 6.42127 70.3977 6.48119C69.0056 8.72102 67.9374 11.3127 67.9726 14.4976C67.9748 14.7082 68.1513 14.8803 68.3624 14.8803H68.7423C68.955 14.8803 69.1271 15.0524 69.1271 15.2651V16.1849C69.1271 16.3977 68.955 16.5698 68.7423 16.5698H65.3127C65.0999 16.5698 64.9279 16.3977 64.9279 16.1849V15.2651C64.9279 15.0524 65.0999 14.8803 65.3127 14.8803H65.7778C65.9917 14.8803 66.1649 14.7082 66.1616 14.4943C66.1352 12.867 66.5365 10.1461 68.2821 6.96556C68.424 6.70661 68.2436 6.38993 67.9484 6.38993H66.1407C65.9279 6.38993 65.7559 6.56201 65.7559 6.77478V7.59121C65.7559 7.80398 65.5838 7.97606 65.371 7.97606H64.4507C64.2379 7.97606 64.0658 7.80398 64.0658 7.59121V5.08584C64.0658 4.87307 64.2379 4.70099 64.4507 4.70099H70.07C70.2828 4.70099 70.4549 4.87307 70.4549 5.08584H70.4543Z" fill="#FF0000"/>
<path d="M73.5294 7.13434H74.8972C75.11 7.13434 75.2821 7.30642 75.2821 7.51919V8.88706C75.2821 9.09982 75.11 9.27191 74.8972 9.27191H73.5294C73.3166 9.27191 73.1445 9.09982 73.1445 8.88706V7.51919C73.1445 7.30642 73.3166 7.13434 73.5294 7.13434ZM75.2826 12.3842V13.7521C75.2826 13.9649 75.1106 14.137 74.8978 14.137H73.5299C73.3172 14.137 73.1451 13.9649 73.1451 13.7521V12.3842C73.1451 12.1715 73.3172 11.9994 73.5299 11.9994H74.8978C75.1106 11.9994 75.2826 12.1715 75.2826 12.3842Z" fill="#FF0000"/>
<path d="M84.3445 7.97385V13.2974C84.3445 15.3536 83.3126 16.8001 81.1745 16.8001C79.0363 16.8001 78.0044 15.3536 78.0044 13.2974V7.97385C78.0044 5.9182 79.0363 4.47116 81.1745 4.47116C83.3126 4.47116 84.3445 5.9182 84.3445 7.97385ZM79.7422 7.97385V10.0273C79.7422 10.3946 80.2074 10.5529 80.4317 10.2626L82.5005 7.5879C82.5583 7.51313 82.5923 7.42021 82.5813 7.3262C82.5198 6.7995 82.1212 6.19309 81.1745 6.19309C79.7763 6.19309 79.7422 7.47189 79.7422 7.9733V7.97385ZM82.6072 13.2974V11.2627C82.6072 10.8954 82.1421 10.7365 81.9178 11.0274L79.866 13.6839C79.8088 13.7581 79.7747 13.8505 79.7851 13.944C79.844 14.4707 80.2272 15.0782 81.175 15.0782C82.5731 15.0782 82.6072 13.7994 82.6072 13.298V13.2974Z" fill="#FF0000"/>
<path d="M91.9312 7.97385V13.2974C91.9312 15.3536 90.8981 16.8001 88.76 16.8001C86.6219 16.8001 85.59 15.3536 85.59 13.2974V7.97385C85.59 5.9182 86.6219 4.47116 88.76 4.47116C90.8981 4.47116 91.9312 5.9182 91.9312 7.97385ZM87.3278 7.97385V10.0273C87.3278 10.3946 87.7924 10.5529 88.0173 10.2626L90.0872 7.5879C90.1449 7.51313 90.179 7.42021 90.168 7.3262C90.1064 6.7995 89.7073 6.19309 88.76 6.19309C87.3619 6.19309 87.3278 7.47189 87.3278 7.9733V7.97385ZM90.1939 13.2974V11.2621C90.1939 10.8949 89.7288 10.736 89.5044 11.0268L87.4515 13.6834C87.3944 13.7576 87.3602 13.8505 87.3707 13.9434C87.4295 14.4701 87.8138 15.0776 88.7606 15.0776C90.1587 15.0776 90.1939 13.7988 90.1939 13.2974V13.2974Z" fill="#FF0000"/>
<path d="M121.001 16.3389V15.4004C121.001 15.1876 121.173 15.0155 121.385 15.0155H125.973C126.186 15.0155 126.358 14.8435 126.358 14.6307V4.41073C126.358 4.18586 126.55 4.00883 126.774 4.02698L128.436 4.16222C128.529 4.16222 128.667 4.20841 128.667 4.33156C128.667 4.45471 128.575 4.50144 128.497 4.54762C128.405 4.59381 128.267 4.65538 128.267 4.73235V8.11903C128.267 8.3318 128.439 8.50388 128.651 8.50388H132.869C133.082 8.50388 133.254 8.67596 133.254 8.88873V9.90473C133.254 10.1175 133.082 10.2896 132.869 10.2896H128.651C128.439 10.2896 128.267 10.4617 128.267 10.6744V14.6301C128.267 14.8429 128.439 15.015 128.651 15.015H133.87C134.083 15.015 134.255 15.1871 134.255 15.3998V16.3383C134.255 16.5511 134.083 16.7232 133.87 16.7232H121.385C121.172 16.7232 121 16.5511 121 16.3383L121.001 16.3389Z" fill="#FF0000"/>
<path d="M139.242 15.9837C138.997 16.0299 137.765 16.23 137.473 16.2762C137.257 16.3075 136.764 16.3999 136.672 16.5071C136.518 16.6611 136.472 16.7072 136.38 16.7072C136.302 16.7072 136.195 16.6765 136.179 16.5841L135.904 15.3201C135.854 15.0931 136.02 14.8737 136.251 14.8545C137.112 14.7819 137.516 14.7357 138.208 14.6538C138.402 14.6307 138.55 14.4663 138.55 14.2711V13.474C138.55 13.2612 138.378 13.0891 138.165 13.0891H136.688C136.475 13.0891 136.303 12.917 136.303 12.7043V12.1523C136.303 11.9395 136.475 11.7674 136.688 11.7674H138.165C138.378 11.7674 138.55 11.5953 138.55 11.3826V11.0263C138.55 10.8135 138.378 10.6415 138.165 10.6415H136.688C136.475 10.6415 136.303 10.4694 136.303 10.2566V4.84122C136.303 4.62845 136.475 4.45637 136.688 4.45637H141.86C142.073 4.45637 142.245 4.62845 142.245 4.84122V10.2577C142.245 10.4705 142.073 10.6426 141.86 10.6426H140.305C140.092 10.6426 139.92 10.8146 139.92 11.0274V11.3837C139.92 11.5964 140.092 11.7685 140.305 11.7685H141.86C142.073 11.7685 142.245 11.9406 142.245 12.1534V12.7054C142.245 12.9181 142.073 13.0902 141.86 13.0902H140.305C140.092 13.0902 139.92 13.2623 139.92 13.4751V13.9836C139.92 14.2195 140.133 14.3992 140.366 14.3641C141.095 14.2541 141.584 14.1689 141.956 14.0958C142.194 14.049 142.415 14.2305 142.415 14.4735V15.0414C142.415 15.2234 142.286 15.3823 142.108 15.4202C141.15 15.6242 140.202 15.8045 139.242 15.9843V15.9837ZM138.165 5.77805H138.072C137.86 5.77805 137.688 5.95014 137.688 6.1629V6.47243C137.688 6.6852 137.86 6.85728 138.072 6.85728H138.165C138.378 6.85728 138.55 6.6852 138.55 6.47243V6.1629C138.55 5.95014 138.378 5.77805 138.165 5.77805ZM138.165 8.19491H138.072C137.86 8.19491 137.688 8.36699 137.688 8.57976V8.92008C137.688 9.13285 137.86 9.30493 138.072 9.30493H138.165C138.378 9.30493 138.55 9.13285 138.55 8.92008V8.57976C138.55 8.36699 138.378 8.19491 138.165 8.19491ZM140.474 5.77805H140.305C140.092 5.77805 139.92 5.95014 139.92 6.1629V6.47243C139.92 6.6852 140.092 6.85728 140.305 6.85728H140.474C140.687 6.85728 140.859 6.6852 140.859 6.47243V6.1629C140.859 5.95014 140.687 5.77805 140.474 5.77805ZM140.474 8.19491H140.305C140.092 8.19491 139.92 8.36699 139.92 8.57976V8.92008C139.92 9.13285 140.092 9.30493 140.305 9.30493H140.474C140.687 9.30493 140.859 9.13285 140.859 8.92008V8.57976C140.859 8.36699 140.687 8.19491 140.474 8.19491ZM147.553 13.1831L147.097 12.9791C146.842 12.8653 146.555 13.0517 146.555 13.3305V15.6467C146.555 16.7056 146.162 17.0481 144.437 17.157C144.286 17.1663 144.139 17.0838 144.069 16.9481L143.383 15.6159H144.292C144.691 15.6159 144.876 15.5082 144.876 15.1233V11.028C144.876 10.8152 144.703 10.6431 144.491 10.6431H143.198C142.985 10.6431 142.813 10.471 142.813 10.2583V9.56773C142.813 9.35496 142.985 9.18288 143.198 9.18288H144.887C145.275 9.18288 145.423 8.67158 145.09 8.47035C144.784 8.28508 144.406 8.07836 143.926 7.84855C143.725 7.75233 143.65 7.50328 143.761 7.31031L144.085 6.74897C144.179 6.58679 144.379 6.51642 144.554 6.58074C144.828 6.6808 145.03 6.76932 145.263 6.87598C145.403 6.9403 145.569 6.91446 145.683 6.81165C145.801 6.70609 145.914 6.60053 146.03 6.48563C146.272 6.24317 146.1 5.82698 145.757 5.82698H143.49C143.277 5.82698 143.105 5.6549 143.105 5.44213V4.79559C143.105 4.58282 143.277 4.41074 143.49 4.41074H148.575C148.689 4.41074 148.797 4.46077 148.87 4.54818L149.108 4.83187C149.232 4.97976 149.229 5.19418 149.1 5.33713C148.642 5.84183 147.982 6.53676 147.093 7.33285C146.909 7.49833 146.925 7.79082 147.126 7.93651C147.309 8.06956 147.452 8.18447 147.575 8.29002C147.723 8.41812 147.754 8.63529 147.644 8.79803L147.384 9.18398H148.856C148.967 9.18398 149.073 9.23181 149.146 9.31537L149.499 9.72002C149.599 9.83382 149.625 9.99161 149.562 10.1285C149.21 10.9021 148.722 11.9071 148.04 13.0314C147.939 13.1969 147.727 13.2634 147.55 13.1842L147.553 13.1831ZM146.939 10.6426C146.727 10.6426 146.555 10.8146 146.555 11.0274V12.5514C146.986 11.9796 147.22 11.6118 147.434 11.205C147.567 10.9493 147.38 10.6426 147.092 10.6426H146.939Z" fill="#FF0000"/>
<path d="M158.074 13.0385C157.879 13.0594 157.731 13.2249 157.731 13.4212V14.6461C157.731 15.4312 157.915 15.6 158.669 15.6H160.87C161.949 15.6 162.255 15.2783 162.419 14.2673C162.46 14.0089 162.736 13.8604 162.97 13.977L163.843 14.4091C163.997 14.4855 164.083 14.6582 164.05 14.827C163.658 16.8359 162.995 17.2009 161.671 17.2009H157.714C156.438 17.2009 155.898 16.478 155.898 15.2921V13.7043C155.898 13.4756 155.7 13.2969 155.472 13.3216L151.417 13.7582C151.206 13.7807 151.016 13.6279 150.994 13.4162L150.905 12.58C150.883 12.3694 151.035 12.1797 151.246 12.1567L155.556 11.6822C155.751 11.6607 155.899 11.4958 155.899 11.2995V10.3017C155.899 10.073 155.701 9.89483 155.474 9.91902L151.646 10.3264C151.436 10.349 151.246 10.1978 151.222 9.98775L151.126 9.15207C151.101 8.9393 151.255 8.74743 151.468 8.72489L155.555 8.29386C155.751 8.27296 155.9 8.10803 155.9 7.91121V6.96777C155.9 6.73686 155.696 6.55873 155.467 6.58567C154.599 6.68903 154.212 6.72477 152.422 6.88091C152.273 6.8941 152.126 6.81988 152.051 6.69068L151.221 5.25519C151.775 5.28598 151.989 5.28598 152.237 5.28598C153.53 5.28598 157.496 5.06551 160.75 3.72184C160.891 3.66356 161.051 3.6927 161.161 3.79936L162.15 4.76258C162.288 4.90113 162.473 5.08586 162.473 5.2244C162.473 5.3481 162.381 5.40968 162.274 5.40968C162.136 5.40968 161.958 5.33876 161.781 5.27058C161.701 5.2398 161.609 5.2398 161.527 5.26509C160.163 5.69392 159.293 5.90669 158.047 6.14914C157.866 6.18433 157.732 6.34267 157.732 6.52739V7.64511C157.732 7.87382 157.93 8.05195 158.158 8.02776L162.892 7.528C163.103 7.50546 163.293 7.65885 163.315 7.86997L163.403 8.6908C163.425 8.90192 163.272 9.0916 163.061 9.11414L158.076 9.65183C157.881 9.67272 157.733 9.83765 157.733 10.0345V11.0307C157.733 11.26 157.932 11.4381 158.159 11.4133L163.584 10.824C163.795 10.8009 163.986 10.9543 164.008 11.1659L164.097 12.0011C164.119 12.2122 163.966 12.4013 163.755 12.4244L158.076 13.0385H158.074Z" fill="#FF0000"/>
<path d="M173.596 12.3183L174.307 16.3378C174.344 16.5439 174.208 16.7419 174.003 16.7825L172.976 16.986C172.763 17.0283 172.557 16.8864 172.522 16.6726L171.818 12.5173C171.784 12.3133 171.595 12.1731 171.39 12.1995L167.131 12.7499C166.922 12.7768 166.73 12.63 166.701 12.4205L166.575 11.5046C166.546 11.2929 166.695 11.0983 166.907 11.0703L171.067 10.526C171.284 10.4974 171.433 10.2951 171.397 10.0796L171.188 8.85353C171.153 8.64956 170.963 8.50936 170.758 8.5363L167.78 8.92995C167.57 8.95799 167.377 8.8101 167.348 8.59953L167.236 7.7644C167.207 7.55219 167.357 7.35811 167.57 7.33117L170.463 6.96776C170.681 6.94027 170.832 6.7363 170.795 6.52024L170.46 4.58774C170.421 4.36123 170.588 4.15066 170.818 4.13802L172.003 4.07039C172.341 4.055 172.465 4.10118 172.465 4.22433C172.465 4.28536 172.203 4.563 172.219 4.63997L172.523 6.31242C172.56 6.51419 172.748 6.65164 172.951 6.62525L175.568 6.28878C175.776 6.26184 175.968 6.40753 175.998 6.6159L176.119 7.45542C176.15 7.66764 176.001 7.86446 175.787 7.89195L173.265 8.22073C173.048 8.24931 172.898 8.45383 172.936 8.67045L173.153 9.88218C173.19 10.0845 173.378 10.2225 173.582 10.1961L177.315 9.70845C177.526 9.68096 177.72 9.82995 177.747 10.0416L177.865 10.9708C177.892 11.1813 177.743 11.3737 177.533 11.4012L173.926 11.8697C173.708 11.8977 173.558 12.1022 173.596 12.3183H173.596Z" fill="#FF0000"/>
<path d="M186.911 13.11L186.225 12.8164C186.013 12.7251 185.927 12.4689 186.044 12.2688C186.165 12.061 186.282 11.8614 186.565 11.3979C186.857 10.9207 186.888 10.8745 187.18 10.3665L184.753 10.8602C184.546 10.9026 184.411 11.1038 184.452 11.3116L185.461 16.4521C185.501 16.6555 185.373 16.854 185.171 16.9013L184.28 17.1091C184.065 17.1591 183.853 17.0189 183.814 16.8018L182.893 11.6492C182.855 11.4359 182.648 11.2962 182.436 11.3402L180.321 11.7789C180.139 11.8169 179.955 11.7184 179.886 11.5447L179.625 10.8916C179.535 10.6673 179.672 10.4166 179.909 10.3709L182.186 9.93109C182.393 9.89096 182.53 9.69139 182.492 9.48357L182.128 7.50764C182.088 7.28882 182.241 7.081 182.462 7.05571L183.516 6.93366C183.593 6.91827 183.916 6.90287 183.916 7.07221C183.916 7.103 183.916 7.13378 183.793 7.28827C183.761 7.33446 183.685 7.44166 183.7 7.51918L184.04 9.17789C184.082 9.38461 184.283 9.51875 184.489 9.47862L187.718 8.85791C187.849 8.83482 187.961 8.7617 188.049 8.68088C188.182 8.55993 188.387 8.56433 188.532 8.67043L189.203 9.15864C189.364 9.27575 189.408 9.49841 189.305 9.6694C188.747 10.6007 188.254 11.4441 187.396 12.945C187.299 13.1149 187.089 13.1875 186.909 13.1105L186.911 13.11Z" fill="#FF0000"/>
<path d="M193.849 8.00246C193.142 7.45597 192.332 6.94962 191.413 6.50484C191.204 6.40368 191.126 6.14473 191.252 5.94956L191.771 5.14907C191.875 4.98908 192.078 4.92531 192.251 5.00558C193.105 5.39922 194.078 5.92922 194.901 6.55487C195.063 6.67803 195.094 6.91114 194.979 7.07882L194.402 7.91889C194.276 8.10197 194.025 8.13826 193.849 8.00246ZM198.679 12.4447C196.318 14.358 194.87 15.0227 193.042 15.8061C192.936 15.8512 192.853 15.9425 192.822 16.0535C192.776 16.2135 192.735 16.3543 192.645 16.3543C192.553 16.3543 192.414 16.2619 192.306 16.0623L191.488 14.6587C191.359 14.4377 191.476 14.1568 191.723 14.093C192.968 13.7719 194.783 13.1693 196.94 11.5519C198.977 10.0339 200.358 8.30869 201.132 7.27234C201.29 7.06123 201.607 7.06727 201.757 7.28444L202.355 8.152C202.45 8.2889 202.446 8.46868 202.346 8.60118C201.702 9.45554 200.539 10.9372 198.679 12.4447H198.679Z" fill="#FF0000"/>
<path d="M208.055 6.93365C208.008 6.97983 207.731 7.11838 207.685 7.17995C207.624 7.24098 207.377 8.28832 207.316 8.48844C206.277 11.9867 204.898 14.0006 204.135 15.0397C204.032 15.181 203.848 15.2327 203.685 15.1689L202.514 14.7082C202.266 14.6109 202.195 14.3019 202.367 14.0985C204.185 11.9488 205.337 9.11685 205.843 6.5356C205.885 6.32284 206.089 6.18759 206.301 6.23487L207.777 6.56419C207.824 6.57959 208.147 6.65656 208.147 6.8105C208.147 6.87152 208.101 6.90286 208.055 6.93365ZM213.706 14.3459C213.132 12.0505 211.846 9.1064 210.494 7.26792C210.355 7.07989 210.406 6.81544 210.609 6.69999L211.529 6.17824C211.699 6.08203 211.913 6.12381 212.028 6.28105C213.305 8.03927 214.794 10.9443 215.637 13.5981C215.696 13.784 215.603 13.983 215.426 14.0638L214.239 14.6048C214.018 14.7054 213.765 14.5806 213.706 14.3453V14.3459ZM214.813 7.51862C214.027 7.51862 213.365 6.85668 213.365 6.02485C213.365 5.20952 214.012 4.54703 214.813 4.54703C215.644 4.54703 216.276 5.22381 216.276 6.02485C216.276 6.84073 215.613 7.51862 214.813 7.51862ZM214.813 5.16334C214.32 5.16334 213.966 5.57898 213.966 6.02485C213.966 6.50207 214.351 6.90286 214.813 6.90286C215.275 6.90286 215.674 6.51801 215.674 6.02485C215.674 5.56303 215.305 5.16334 214.813 5.16334V5.16334Z" fill="#FF0000"/>
<path d="M227.264 15.6896C226.097 14.2821 225.133 13.3008 224.072 12.4156C223.914 12.2842 223.68 12.3035 223.542 12.4552C222.433 13.6697 221.3 14.7456 218.781 16.0112C218.63 16.0871 218.444 16.0568 218.326 15.9359L217.554 15.1371C217.369 14.9457 217.428 14.628 217.671 14.5196C218.746 14.0391 220.413 13.1848 222.079 11.4134C223.443 9.96083 224.092 8.65344 224.476 7.74629C224.584 7.49119 224.399 7.21025 224.122 7.21025H219.215C219.003 7.21025 218.831 7.03817 218.831 6.8254V5.80939C218.831 5.59663 219.003 5.42454 219.215 5.42454H225.465C225.661 5.42454 225.829 5.35582 226.001 5.25576C226.159 5.1634 226.36 5.19034 226.484 5.32613L227.165 6.07824C227.309 6.23823 227.304 6.49168 227.14 6.63077C226.934 6.80506 226.743 7.02057 226.619 7.31856C226.132 8.46651 225.845 9.15979 225.022 10.4705C224.917 10.6376 224.954 10.857 225.11 10.9779C226.396 11.9791 227.558 13.1155 228.667 14.3041C228.806 14.4526 228.805 14.6835 228.666 14.8319L227.843 15.7116C227.684 15.8809 227.411 15.8683 227.263 15.6896H227.264Z" fill="#FF0000"/>
<path d="M249.299 16.9474C249.159 17.0607 248.961 17.0629 248.82 16.9518C248.088 16.3746 246.91 15.3762 245.782 13.6146C244.977 12.3474 244.534 11.2049 244.263 10.3115C244.157 9.96077 243.668 9.95362 243.538 10.2967C242.436 13.2182 240.936 15.4284 238.698 17.0552C238.563 17.1525 238.378 17.152 238.243 17.0558L237.279 16.3713C237.061 16.2168 237.061 15.893 237.282 15.7423C238.158 15.1441 239.441 14.1336 240.562 12.3672C241.791 10.411 242.131 8.62039 242.28 7.51312C242.311 7.28496 242.531 7.13652 242.754 7.1926L243.167 7.29541C243.421 7.35863 243.66 7.15631 243.644 6.89516C243.635 6.75222 243.628 6.60488 243.622 6.43114C243.615 6.22387 243.445 6.05619 243.237 6.05619H240.886C240.673 6.05619 240.501 5.88411 240.501 5.67134V4.60915C240.501 4.39639 240.673 4.2243 240.886 4.2243H245.028C245.248 4.2243 245.425 4.40738 245.412 4.6273C245.39 5.0083 245.382 5.41844 245.382 5.77965C245.382 7.41141 245.659 9.50445 246.797 11.6294C247.971 13.8104 249.416 14.8874 250.343 15.4509C250.569 15.5889 250.586 15.9089 250.38 16.0755L249.299 16.948V16.9474Z" fill="#FF0000"/>
<path d="M259.484 10.9042C259.336 10.9042 259.202 10.9895 259.138 11.1231C259.08 11.2446 259.016 11.3639 258.959 11.4595H264.168C264.384 11.4595 264.561 11.6371 264.553 11.8532C264.498 13.386 264.212 15.3608 263.716 16.1388C263.289 16.8073 262.611 17.0415 261.538 17.0855C261.377 17.0921 261.228 16.9937 261.167 16.8452L260.875 16.13C260.772 15.8776 260.446 15.8072 260.252 15.9986C259.92 16.3246 259.519 16.6759 258.977 17.0525C258.848 17.1421 258.673 17.1432 258.542 17.0563L258.093 16.7573C257.869 16.6083 257.861 16.279 258.082 16.1261C259.524 15.1294 260.613 13.6823 261.114 12.7367H260.568C260.431 12.7367 260.306 12.8071 260.237 12.9264C259.991 13.3574 259.549 14.0672 258.835 14.7544C258.16 15.4163 257.42 16.0002 256.64 16.5181C256.508 16.6061 256.333 16.6022 256.203 16.5104L255.74 16.1844C255.509 16.0217 255.527 15.6731 255.774 15.5362C257.491 14.5862 258.603 13.1688 258.881 12.7361H258.348C258.237 12.7361 258.13 12.7884 258.056 12.8725C257.412 13.6158 256.878 14.1002 256.33 14.5257C256.199 14.6268 256.018 14.6307 255.881 14.5389L255.377 14.2002C255.154 14.0507 255.146 13.7235 255.365 13.5691C255.615 13.3931 255.879 13.1815 256.248 12.8593C255.201 13.2601 253.508 13.8302 253.061 13.938C252.492 14.0765 252.431 14.0914 252.339 14.1997C252.169 14.3849 252.123 14.446 252.046 14.446C252.014 14.446 251.953 14.4152 251.938 14.3388L251.72 12.9775C251.687 12.7757 251.816 12.5849 252.015 12.5415C252.352 12.4684 252.731 12.376 253.079 12.2881C253.25 12.2446 253.37 12.0912 253.37 11.9148V9.01243C253.37 8.79967 253.198 8.62758 252.985 8.62758H252.262C252.049 8.62758 251.877 8.4555 251.877 8.24273V7.4274C251.877 7.21463 252.049 7.04255 252.262 7.04255H252.985C253.198 7.04255 253.37 6.87047 253.37 6.6577V4.39478C253.37 4.17047 253.561 3.99344 253.785 4.01103L255.156 4.11714C255.248 4.13254 255.355 4.17872 255.355 4.28648C255.355 4.39423 255.279 4.45581 255.186 4.53223C255.109 4.57841 254.986 4.65538 254.986 4.76314V6.65605C254.986 6.86882 255.158 7.0409 255.371 7.0409H256.202C256.415 7.0409 256.587 7.21299 256.587 7.42575V8.24108C256.587 8.45385 256.415 8.62593 256.202 8.62593H255.371C255.158 8.62593 254.986 8.79802 254.986 9.01079V11.2534C254.986 11.5101 255.233 11.6965 255.48 11.6228C255.666 11.5667 255.85 11.5096 256.032 11.4496C256.283 11.3672 256.541 11.5486 256.541 11.8125V12.5509C256.9 12.1616 257.143 11.8477 257.357 11.4898C257.51 11.2319 257.326 10.9037 257.027 10.9037H256.588C256.375 10.9037 256.203 10.7316 256.203 10.5188V10.0438C256.203 9.83107 256.375 9.65898 256.588 9.65898H264.361C264.574 9.65898 264.746 9.83107 264.746 10.0438V10.5188C264.746 10.7316 264.574 10.9037 264.361 10.9037H259.484L259.484 10.9042ZM257.343 8.68751V4.6103C257.343 4.39753 257.515 4.22545 257.728 4.22545H263.207C263.42 4.22545 263.592 4.39753 263.592 4.6103V8.68751C263.592 8.90028 263.42 9.07236 263.207 9.07236H257.728C257.515 9.07236 257.343 8.90028 257.343 8.68751ZM262.1 5.5158H258.835V6.16454H262.1V5.5158ZM262.1 7.25532H258.835V7.91946H262.1V7.25532ZM262.561 12.7361C262.284 13.3832 261.93 14.1529 260.79 15.4317C261.237 15.5241 261.56 15.5241 261.622 15.5241C262.023 15.5241 262.268 15.4317 262.438 15.0925C262.807 14.369 262.884 13.552 262.93 12.7361H262.561H262.561Z" fill="#FF0000"/>
<path d="M277.477 10.3357V11.5051C277.477 11.7179 277.649 11.89 277.861 11.89H278.77C278.982 11.89 279.154 12.0621 279.154 12.2748V12.9368C279.154 13.1495 278.982 13.3216 278.77 13.3216H267.472C267.259 13.3216 267.087 13.1495 267.087 12.9368V12.2748C267.087 12.0621 267.259 11.89 267.472 11.89H268.365C268.578 11.89 268.75 11.7179 268.75 11.5051V10.3357C268.75 10.123 268.578 9.95089 268.365 9.95089H266.903C266.69 9.95089 266.518 9.77881 266.518 9.56604V8.85792C266.518 8.64515 266.69 8.47307 266.903 8.47307H268.365C268.578 8.47307 268.75 8.30099 268.75 8.08822V6.77973C268.483 7.1074 268.244 7.34931 267.998 7.57252C267.879 7.67973 267.708 7.70667 267.564 7.63575L266.817 7.26574C266.572 7.14479 266.52 6.80887 266.728 6.63129C267.662 5.8341 268.375 4.89287 268.881 4.00991C268.969 3.85597 269.146 3.78175 269.317 3.82958L270.765 4.23972C270.796 4.25511 271.028 4.31724 271.028 4.45579C271.028 4.5071 270.909 4.57894 270.672 4.6713C270.565 4.71748 270.473 4.76367 270.196 5.11773H278.616C278.828 5.11773 279.001 5.28981 279.001 5.50258V6.16397C279.001 6.37674 278.828 6.54882 278.616 6.54882H277.861C277.648 6.54882 277.476 6.7209 277.476 6.93367V8.08822C277.476 8.30099 277.648 8.47307 277.861 8.47307H279.292C279.505 8.47307 279.677 8.64515 279.677 8.85792V9.56604C279.677 9.77881 279.505 9.95089 279.292 9.95089H277.861C277.648 9.95089 277.476 10.123 277.476 10.3357H277.477ZM269.935 15.0155C269.719 15.0309 269.704 15.0309 269.642 15.1079C268.951 16.0172 268.308 16.6308 267.916 16.9777C267.769 17.1075 267.551 17.1075 267.405 16.9777L266.79 16.4334C266.609 16.2729 266.624 15.993 266.812 15.8402C267.478 15.3003 268.015 14.6813 268.448 14.0501C268.574 13.867 268.823 13.8203 269 13.9539L269.919 14.6461C270.058 14.7533 270.089 14.8154 270.089 14.877C270.089 14.9847 269.982 15.0001 269.936 15.0155H269.935ZM270.844 6.54882H270.703C270.49 6.54882 270.318 6.7209 270.318 6.93367V8.08822C270.318 8.30099 270.49 8.47307 270.703 8.47307H270.844C271.057 8.47307 271.229 8.30099 271.229 8.08822V6.93367C271.229 6.7209 271.057 6.54882 270.844 6.54882V6.54882ZM270.844 9.95089H270.703C270.49 9.95089 270.318 10.123 270.318 10.3357V11.5051C270.318 11.7179 270.49 11.89 270.703 11.89H270.844C271.057 11.89 271.229 11.7179 271.229 11.5051V10.3357C271.229 10.123 271.057 9.95089 270.844 9.95089ZM271.123 16.7155C271.095 16.0365 271.021 15.4663 270.827 14.8214C270.765 14.6142 270.893 14.3976 271.103 14.3448L271.721 14.1886C271.91 14.1408 272.104 14.242 272.175 14.4234C272.406 15.0073 272.618 15.7126 272.654 16.5263C272.663 16.7116 272.528 16.8749 272.347 16.9134L271.587 17.0745C271.355 17.1234 271.133 16.9519 271.123 16.7149V16.7155ZM273.199 6.54827H273.058C272.845 6.54827 272.673 6.72035 272.673 6.93312V8.08767C272.673 8.30044 272.845 8.47252 273.058 8.47252H273.199C273.411 8.47252 273.583 8.30044 273.583 8.08767V6.93312C273.583 6.72035 273.411 6.54827 273.199 6.54827V6.54827ZM273.199 9.95034H273.058C272.845 9.95034 272.673 10.1224 272.673 10.3352V11.5046C272.673 11.7174 272.845 11.8894 273.058 11.8894H273.199C273.411 11.8894 273.583 11.7174 273.583 11.5046V10.3352C273.583 10.1224 273.411 9.95034 273.199 9.95034ZM274.24 16.5478C274.113 15.8919 273.9 15.3108 273.726 14.9034C273.637 14.6961 273.75 14.4591 273.965 14.3904L274.571 14.198C274.742 14.1436 274.928 14.2112 275.018 14.3668C275.254 14.7736 275.579 15.4257 275.738 16.1717C275.78 16.374 275.664 16.5764 275.465 16.6319L274.719 16.8397C274.505 16.8991 274.283 16.766 274.24 16.5478V16.5478ZM275.57 6.54827H275.383C275.17 6.54827 274.998 6.72035 274.998 6.93312V8.08767C274.998 8.30044 275.17 8.47252 275.383 8.47252H275.57C275.783 8.47252 275.955 8.30044 275.955 8.08767V6.93312C275.955 6.72035 275.783 6.54827 275.57 6.54827V6.54827ZM275.57 9.95034H275.383C275.17 9.95034 274.998 10.1224 274.998 10.3352V11.5046C274.998 11.7174 275.17 11.8894 275.383 11.8894H275.57C275.783 11.8894 275.955 11.7174 275.955 11.5046V10.3352C275.955 10.1224 275.783 9.95034 275.57 9.95034ZM278.02 16.7715C277.475 15.9947 277.009 15.4718 276.625 15.0749C276.471 14.9149 276.484 14.6604 276.653 14.5158L277.226 14.027C277.37 13.9039 277.584 13.9028 277.726 14.027C278.297 14.5251 278.805 15.0469 279.329 15.7544C279.449 15.9161 279.419 16.1464 279.265 16.2762L278.585 16.8491C278.411 16.9958 278.15 16.9574 278.019 16.771L278.02 16.7715Z" fill="#FF0000"/>
<path d="M285.83 10.6205C286.261 11.189 286.788 11.6898 287.148 12.0142C287.295 12.1462 287.316 12.3683 287.198 12.5272L286.79 13.0781C286.651 13.2655 286.379 13.2897 286.213 13.1259C286.17 13.0835 286.126 13.0396 286.081 12.9934C285.841 12.7465 285.421 12.9159 285.421 13.2606V16.7853C285.421 16.998 285.248 17.1701 285.036 17.1701H284.221C284.008 17.1701 283.836 16.998 283.836 16.7853V14.6136C283.836 14.2343 283.348 14.0842 283.134 14.3975C282.98 14.6229 282.815 14.8473 282.644 15.0523C282.526 15.1947 282.319 15.2244 282.159 15.131L281.424 14.6999C281.214 14.5768 281.175 14.2953 281.334 14.1116C282.336 12.9598 283.045 11.675 283.407 10.5023C283.485 10.2516 283.302 9.99705 283.039 9.99705H281.742C281.529 9.99705 281.357 9.82497 281.357 9.6122V8.96565C281.357 8.75289 281.529 8.5808 281.742 8.5808H283.45C283.663 8.5808 283.835 8.40872 283.835 8.19595V4.39858C283.835 4.17262 284.029 3.99504 284.254 4.01538L285.22 4.10115C285.635 4.13249 285.698 4.22485 285.698 4.31722C285.698 4.37824 285.666 4.44037 285.574 4.50194C285.45 4.59431 285.419 4.6097 285.419 4.68667V8.1965C285.419 8.40927 285.591 8.58135 285.804 8.58135H287.128C287.341 8.58135 287.513 8.75344 287.513 8.9662V9.61275C287.513 9.82552 287.341 9.9976 287.128 9.9976H286.132C285.811 9.9976 285.634 10.3654 285.828 10.6211L285.83 10.6205ZM281.884 7.50047C281.749 6.94629 281.552 6.39321 281.357 5.95118C281.269 5.75216 281.363 5.52345 281.565 5.44153L282.291 5.14794C282.487 5.06822 282.711 5.16389 282.793 5.36016C283.045 5.96602 283.222 6.59718 283.339 7.0601C283.387 7.25142 283.281 7.44495 283.095 7.51202L282.387 7.76822C282.172 7.84574 281.938 7.72149 281.884 7.49993V7.50047ZM288.085 5.64055C287.93 5.71752 287.915 5.73291 287.9 5.7791C287.86 5.91159 287.636 6.82479 287.299 7.59669C287.213 7.79351 286.987 7.88752 286.79 7.80231L286.227 7.5593C286.042 7.47903 285.947 7.26847 286.017 7.07879C286.24 6.47622 286.38 5.83737 286.465 5.36291C286.503 5.14574 286.714 5.00445 286.929 5.05338L287.823 5.2557C288.146 5.33267 288.238 5.37885 288.238 5.47122C288.238 5.54874 288.114 5.62516 288.085 5.6411V5.64055ZM293.103 13.3744V16.755C293.103 16.9678 292.931 17.1399 292.718 17.1399H291.826C291.613 17.1399 291.441 16.9678 291.441 16.755V13.9885C291.441 13.7367 291.203 13.5525 290.959 13.6157L288.001 14.3821C287.776 14.4404 287.551 14.2881 287.522 14.0578L287.435 13.3656C287.411 13.1732 287.533 12.9934 287.72 12.9445L291.152 12.0571C291.322 12.0131 291.441 11.8597 291.441 11.6843V4.40023C291.441 4.17372 291.636 3.99559 291.861 4.01703L293.088 4.13194C293.396 4.16273 293.457 4.2243 293.457 4.31667C293.457 4.37769 293.411 4.40903 293.35 4.45521C293.196 4.56297 293.103 4.62455 293.103 4.68612V11.068C293.103 11.3204 293.342 11.504 293.585 11.4402L293.943 11.3468C294.178 11.2852 294.41 11.4534 294.425 11.6953L294.469 12.4035C294.48 12.5882 294.359 12.7542 294.18 12.8004L293.393 13.0016C293.223 13.0451 293.103 13.1985 293.103 13.3744H293.103ZM289.568 11.2264C289.231 10.7876 288.823 10.3528 288.407 9.98935C288.244 9.84586 288.238 9.59296 288.389 9.43682L288.868 8.94421C289.012 8.79632 289.244 8.78917 289.4 8.92442C289.843 9.30817 290.302 9.77989 290.669 10.2719C290.781 10.4215 290.76 10.6321 290.629 10.7657L290.143 11.2594C289.98 11.4248 289.709 11.4111 289.568 11.2269V11.2264ZM289.663 7.51697C289.341 7.10408 288.972 6.75826 288.656 6.49712C288.483 6.35362 288.47 6.09687 288.627 5.93523L289.118 5.42943C289.26 5.28319 289.488 5.27329 289.645 5.40359C289.996 5.69718 290.399 6.08038 290.756 6.54495C290.871 6.69449 290.851 6.90945 290.72 7.04415L290.237 7.54281C290.077 7.70774 289.805 7.69785 289.663 7.51697V7.51697Z" fill="#FF0000"/>
<path d="M315.513 13.4135V14.9221C315.513 15.1349 315.341 15.3069 315.128 15.3069H313.897V14.8913H311.126C310.913 14.8913 310.741 15.0634 310.741 15.2761V16.0008C310.741 16.8557 310.388 17.2587 308.458 17.3038C308.305 17.3071 308.16 17.2174 308.096 17.0783L307.706 16.23C307.584 15.9628 307.795 15.6632 308.089 15.6863C308.256 15.6995 308.407 15.7088 308.524 15.7088C308.77 15.7088 309.001 15.6313 309.001 15.3537V14.8907H304.691C304.478 14.8907 304.306 14.7187 304.306 14.5059V14.0771C304.306 13.8643 304.478 13.6922 304.691 13.6922H309.001V13.0281H303.797C303.585 13.0281 303.413 12.856 303.413 12.6432V12.2149C303.413 12.0022 303.585 11.8301 303.797 11.8301H309.001V11.2429H304.691C304.478 11.2429 304.306 11.0708 304.306 10.8581V10.4298C304.306 10.217 304.478 10.0449 304.691 10.0449H309.001V9.45777H305.599C305.386 9.45777 305.214 9.28568 305.214 9.07292V7.01232C305.214 6.79955 305.386 6.62747 305.599 6.62747H309.001V6.08703H303.797C303.585 6.08703 303.413 5.91495 303.413 5.70218V5.1502C303.413 4.93743 303.585 4.76535 303.797 4.76535H308.616C308.829 4.76535 309.001 4.59326 309.001 4.3805V4.18642C309.001 3.95441 309.204 3.77518 309.434 3.80432L310.817 3.98025C310.895 3.9951 311.002 4.02643 311.002 4.1188C311.002 4.21116 310.971 4.22656 310.832 4.33431C310.802 4.34971 310.74 4.39589 310.74 4.47286V4.76535H315.928C316.141 4.76535 316.313 4.93743 316.313 5.1502V5.70218C316.313 5.91495 316.141 6.08703 315.928 6.08703H310.74V6.62747H314.127C314.34 6.62747 314.512 6.79955 314.512 7.01232V9.07292C314.512 9.28568 314.34 9.45777 314.127 9.45777H310.74V10.0449H315.127C315.34 10.0449 315.512 10.217 315.512 10.4298V11.4458C315.512 11.6586 315.684 11.8306 315.897 11.8306H315.989C316.202 11.8306 316.374 12.0027 316.374 12.2155V12.6438C316.374 12.8565 316.202 13.0286 315.989 13.0286H315.897C315.684 13.0286 315.512 13.2007 315.512 13.4135H315.513ZM309.001 7.67206H306.785V8.41262H309.001V7.67206ZM312.927 7.67206H310.741V8.41262H312.927V7.67206ZM313.897 11.2429H310.741V11.8301H313.897V11.2429ZM313.897 13.0286H310.741V13.6928H313.897V13.0286Z" fill="#FF0000"/>
<path d="M318.347 6.90177V6.25688C318.347 6.04411 318.519 5.87203 318.731 5.87203H320.876C321.193 5.87203 321.376 5.51082 321.185 5.25737C321.125 5.17655 321.06 5.09243 320.992 5.00776C320.835 4.81149 320.91 4.51955 321.14 4.41839L322.081 4.0044C322.24 3.93403 322.425 3.97911 322.535 4.11491C322.769 4.40465 323.119 4.85712 323.61 5.59548L323.041 5.87258H325.852C325.981 5.87258 326.103 5.80715 326.174 5.69939C326.505 5.19799 326.697 4.87526 326.97 4.2705C327.049 4.09622 327.245 4.00495 327.428 4.05828L329.061 4.53385C329.122 4.54924 329.169 4.62621 329.169 4.68779C329.169 4.74881 329.137 4.795 329.045 4.82633C329.015 4.84118 328.814 4.88736 328.768 4.9187C328.722 4.94949 328.259 5.73403 328.151 5.87258H331.276C331.489 5.87258 331.661 6.04466 331.661 6.25743V6.90232C331.661 7.11509 331.489 7.28717 331.276 7.28717H318.732C318.519 7.28717 318.347 7.11509 318.347 6.90232L318.347 6.90177ZM322.208 16.9139L321.873 16.0057C321.776 15.7429 321.985 15.4663 322.264 15.4889C322.516 15.5092 322.672 15.5092 322.672 15.5092C322.981 15.5092 323.104 15.3855 323.104 15.1238V14.3838C323.104 14.171 322.932 13.999 322.719 13.999H321.208C320.995 13.999 320.823 14.171 320.823 14.3838V16.7237C320.823 16.9365 320.651 17.1085 320.438 17.1085H319.578C319.365 17.1085 319.193 16.9365 319.193 16.7237V8.6281C319.193 8.41534 319.365 8.24325 319.578 8.24325H324.379C324.592 8.24325 324.764 8.41534 324.764 8.6281V15.4933C324.764 16.8534 323.791 17.1338 322.576 17.1663C322.413 17.1707 322.265 17.0673 322.208 16.9139V16.9139ZM322.719 9.59627H321.208C320.995 9.59627 320.823 9.76836 320.823 9.98112V10.0597C320.823 10.2725 320.995 10.4446 321.208 10.4446H322.719C322.932 10.4446 323.104 10.2725 323.104 10.0597V9.98112C323.104 9.76836 322.932 9.59627 322.719 9.59627ZM322.719 11.7976H321.208C320.995 11.7976 320.823 11.9697 320.823 12.1825V12.2611C320.823 12.4739 320.995 12.6459 321.208 12.6459H322.719C322.932 12.6459 323.104 12.4739 323.104 12.2611V12.1825C323.104 11.9697 322.932 11.7976 322.719 11.7976ZM327.813 8.67373C327.597 8.82712 327.566 8.84307 327.566 8.90409V14.0457C327.566 14.2585 327.394 14.4305 327.181 14.4305H326.291C326.078 14.4305 325.906 14.2585 325.906 14.0457V8.63195C325.906 8.41149 326.09 8.23665 326.31 8.24765L327.736 8.31967C327.86 8.31967 327.936 8.41204 327.936 8.48901C327.936 8.58137 327.859 8.6424 327.813 8.67373V8.67373ZM331.045 8.44227C330.938 8.53464 330.83 8.65779 330.83 8.70397V15.3547C330.83 16.7946 330.212 17.0288 328.496 17.0602C328.345 17.0629 328.204 16.976 328.139 16.8397L327.429 15.3393C327.752 15.3701 328.029 15.4009 328.353 15.4009C328.891 15.4009 329.045 15.2772 329.045 14.8621V8.39499C329.045 8.17123 329.235 7.99475 329.458 8.01124L330.953 8.11955C331.061 8.13494 331.137 8.19707 331.137 8.25865C331.137 8.33562 331.076 8.39664 331.045 8.44227V8.44227Z" fill="#FF0000"/>
<path d="M342.824 13.3673L341.992 12.8356C341.797 12.7108 341.756 12.442 341.905 12.2644C342.309 11.7833 342.659 11.3364 343.133 10.6882C343.319 10.4336 343.139 10.0735 342.824 10.0735H341.036C340.823 10.0735 340.651 10.2456 340.651 10.4583V15.1843C340.651 17.0514 340.024 17.1784 337.78 17.1987C337.62 17.2004 337.473 17.102 337.415 16.9524L337.056 16.0227C336.948 15.744 337.184 15.4553 337.479 15.5048C337.74 15.5488 338.02 15.5845 338.235 15.5845C338.696 15.5845 338.82 15.2459 338.82 14.8148V10.4583C338.82 10.2456 338.647 10.0735 338.435 10.0735H333.539C333.327 10.0735 333.155 9.90141 333.155 9.68864V8.78095C333.155 8.56818 333.327 8.3961 333.539 8.3961H338.757C338.281 8.1311 337.862 7.91228 337.098 7.60166C336.885 7.51534 336.793 7.26134 336.904 7.05957L337.321 6.29811C337.419 6.11943 337.638 6.04686 337.822 6.13428C338.153 6.29152 338.602 6.50318 339.525 6.94356C339.65 7.00349 339.8 6.99414 339.914 6.91442C340.054 6.81546 340.211 6.69726 340.402 6.53397C340.674 6.30251 340.51 5.85554 340.153 5.85554H334.848C334.636 5.85554 334.464 5.68345 334.464 5.47069V4.62402C334.464 4.41125 334.636 4.23917 334.848 4.23917H344.195C344.31 4.23917 344.419 4.29085 344.492 4.37991L344.83 4.7906C344.969 4.96049 344.939 5.21174 344.763 5.34314C343.901 5.98748 342.851 6.75883 341.267 7.79628C341.329 7.82707 341.59 7.96561 341.653 7.99585L341.298 8.39665H345.48C345.582 8.39665 345.68 8.43733 345.752 8.50935L346.081 8.83867C346.209 8.96677 346.228 9.17074 346.129 9.32303C344.714 11.5106 343.983 12.475 343.331 13.2848C343.207 13.4382 342.989 13.4739 342.823 13.3678L342.824 13.3673Z" fill="#FF0000"/>
<path d="M349.688 13.0451C349.62 14.1892 349.538 14.9506 349.202 15.8924C349.134 16.0837 348.933 16.1942 348.737 16.1415L348.145 15.9831C347.933 15.9265 347.811 15.7049 347.878 15.4955C348.089 14.8346 348.266 14.0479 348.365 12.8197C348.384 12.5942 348.595 12.4348 348.818 12.4755L349.658 12.6289C349.75 12.6437 349.935 12.6899 349.935 12.7823C349.935 12.8598 349.858 12.9208 349.688 13.0445L349.688 13.0451ZM352.875 11.675C352.843 11.5365 352.814 11.3363 352.751 11.0439C352.433 11.1258 352.228 11.1648 352.059 11.1923C351.872 11.2225 351.735 11.3831 351.735 11.5722V16.7858C351.735 16.9986 351.563 17.1707 351.35 17.1707H350.55C350.338 17.1707 350.165 16.9986 350.165 16.7858V11.8883C350.165 11.6596 349.967 11.4815 349.739 11.5057C349.325 11.5502 348.944 11.5903 348.795 11.6129C348.688 11.6129 348.579 11.6283 348.457 11.7668C348.334 11.89 348.287 11.9362 348.21 11.9362C348.164 11.9362 348.087 11.8751 348.072 11.7976L347.842 10.4616C347.801 10.2269 347.983 10.0125 348.221 10.0114C348.572 10.0103 348.853 10.0053 349.241 9.98881C349.347 9.98441 349.448 9.93658 349.518 9.85631C349.603 9.75845 349.7 9.64849 349.8 9.52699C349.924 9.378 349.92 9.15479 349.787 9.01404C349.217 8.40873 348.713 8.00024 348.193 7.63188C348.018 7.50818 347.981 7.26407 348.108 7.09144L348.827 6.11722C349.072 6.2871 349.211 6.39486 349.35 6.51802C349.916 5.69993 350.258 5.05174 350.586 4.31172C350.677 4.10775 350.923 4.02474 351.119 4.13085L352.119 4.67073C352.197 4.71692 352.228 4.77849 352.228 4.80928C352.228 4.85546 352.196 4.90164 352.135 4.93298C351.935 5.02535 351.888 5.05613 351.858 5.10232C351.159 6.15791 350.985 6.42015 350.476 7.08429C350.361 7.23439 350.373 7.44825 350.502 7.5857C350.534 7.61924 350.565 7.65277 350.595 7.68576C350.761 7.86939 351.054 7.85015 351.197 7.64837C351.757 6.85888 352.102 6.32009 352.385 5.84893C352.495 5.6664 352.732 5.60757 352.914 5.71808L353.983 6.36407C354.075 6.41026 354.091 6.50262 354.091 6.53396C354.091 6.6725 353.936 6.70329 353.921 6.70329C353.674 6.71869 353.659 6.74947 353.443 7.02657C352.658 8.02718 351.827 8.997 350.965 9.92064C351.332 9.8981 351.604 9.87501 351.993 9.83322C352.229 9.80793 352.389 9.57592 352.325 9.34666C352.318 9.32247 352.311 9.29828 352.305 9.27409C352.244 9.06352 352.373 8.84471 352.587 8.79468L353.227 8.64514C353.42 8.60005 353.619 8.70946 353.681 8.89749C353.908 9.57482 354.084 10.2351 354.215 10.93C354.251 11.1247 354.13 11.3171 353.94 11.3715L352.875 11.6756V11.675ZM352.897 15.0309C352.676 14.198 352.545 13.5454 352.443 12.7977C352.416 12.5986 352.549 12.4128 352.746 12.3716L353.245 12.2666C353.462 12.2209 353.67 12.3705 353.704 12.5887C353.846 13.4811 354.023 14.1837 354.172 14.6851C354.234 14.894 354.111 15.1079 353.901 15.1634L353.367 15.303C353.162 15.3564 352.951 15.2343 352.897 15.0303V15.0309ZM360.156 15.6615C359.725 16.893 358.893 17.0931 357.893 17.0931H357.476C357.327 17.0931 357.191 17.0068 357.127 16.8721L356.672 15.9018C356.546 15.634 356.754 15.3322 357.049 15.3547C357.264 15.3712 357.503 15.3844 357.754 15.3844C358.247 15.3844 358.555 15.2613 358.847 14.2914C359.156 13.2754 359.432 11.2286 359.432 8.8733V8.21136C359.432 7.99859 359.26 7.82651 359.047 7.82651H356.159C356.022 7.82651 355.894 7.90238 355.825 8.02003C355.528 8.52473 355.302 8.8766 355.033 9.21196C354.9 9.37745 354.656 9.40164 354.491 9.26859L353.873 8.76939C353.713 8.64019 353.681 8.40818 353.804 8.24324C354.399 7.4433 355.03 6.41521 355.737 4.3876C355.806 4.18857 356.022 4.07807 356.222 4.14404L357.492 4.56353C357.569 4.59431 357.646 4.6405 357.646 4.71692C357.646 4.79444 357.6 4.84062 357.539 4.87086C357.308 4.97861 357.292 4.99401 357.215 5.19413C357.142 5.38985 357.093 5.52455 357.049 5.63946C356.951 5.89236 357.137 6.16395 357.407 6.16395H360.648C360.86 6.16395 361.033 6.33604 361.033 6.5488V9.04263C361.033 11.2291 360.724 14.0611 360.155 15.6621L360.156 15.6615ZM356.391 12.6987C356.065 11.6811 355.757 10.9729 355.489 10.4121C355.392 10.2109 355.485 9.97177 355.692 9.88875L356.363 9.62101C356.551 9.54568 356.765 9.6287 356.853 9.81123C357.156 10.4363 357.467 11.1879 357.788 12.2539C357.848 12.4524 357.737 12.6663 357.54 12.7317L356.88 12.9516C356.675 13.0198 356.457 12.9043 356.391 12.6993V12.6987Z" fill="#FF0000"/>
<path d="M367.575 9.99598V10.1824C367.575 10.3951 367.747 10.5672 367.96 10.5672H369.914C370.127 10.5672 370.299 10.7393 370.299 10.9521V15.0161C370.299 15.8996 369.622 16.0799 368.664 16.2448C368.495 16.274 368.326 16.1866 368.252 16.0321L367.942 15.3866C367.829 15.1513 367.974 14.8599 368.234 14.8346C368.526 14.8061 368.671 14.7137 368.671 14.4163V12.4288C368.671 12.216 368.499 12.0439 368.286 12.0439H367.96C367.748 12.0439 367.576 12.216 367.576 12.4288V16.8161C367.576 17.0288 367.403 17.2009 367.191 17.2009H366.346C366.133 17.2009 365.961 17.0288 365.961 16.8161V12.4288C365.961 12.216 365.789 12.0439 365.576 12.0439H365.266C365.054 12.0439 364.882 12.216 364.882 12.4288V16.0469C364.882 16.2597 364.71 16.4318 364.497 16.4318H363.653C363.44 16.4318 363.268 16.2597 363.268 16.0469V10.9521C363.268 10.7393 363.44 10.5672 363.653 10.5672H365.576C365.789 10.5672 365.961 10.3951 365.961 10.1824V9.99598C365.961 9.78321 365.789 9.61113 365.576 9.61113H363.099C362.886 9.61113 362.714 9.43905 362.714 9.22628V8.50496C362.714 8.29219 362.886 8.12011 363.099 8.12011H365.576C365.789 8.12011 365.961 7.94803 365.961 7.73526V7.44113C365.961 7.22836 365.789 7.05628 365.576 7.05628H364.702C364.552 7.05628 364.415 7.14369 364.353 7.28114C364.319 7.35536 364.28 7.43673 364.228 7.54174C364.146 7.70777 363.955 7.79134 363.777 7.74021L362.96 7.506C362.719 7.43673 362.604 7.15909 362.732 6.94412C363.023 6.45646 363.381 5.75933 363.699 4.81535C363.761 4.63062 363.949 4.51572 364.141 4.5542L365.252 4.77906C365.298 4.79446 365.529 4.84064 365.529 4.97973C365.529 5.13367 365.359 5.13367 365.189 5.19525L365.051 5.56526H365.575C365.788 5.56526 365.96 5.39317 365.96 5.18041V4.30185C365.96 4.08303 366.142 3.90875 366.361 3.917L367.498 3.96208C367.59 3.96208 367.853 4.00826 367.853 4.13196C367.853 4.25567 367.714 4.34748 367.576 4.47063V5.17931C367.576 5.39207 367.748 5.56416 367.96 5.56416H369.807C370.02 5.56416 370.192 5.73624 370.192 5.94901V6.67088C370.192 6.88364 370.02 7.05573 369.807 7.05573H367.96C367.748 7.05573 367.576 7.22781 367.576 7.44058V7.73471C367.576 7.94748 367.748 8.11956 367.96 8.11956H370.348C370.56 8.11956 370.732 8.29164 370.732 8.50441V9.22573C370.732 9.4385 370.56 9.61058 370.348 9.61058H367.96C367.748 9.61058 367.576 9.78266 367.576 9.99543L367.575 9.99598ZM372.763 6.38169V13.7527C372.763 13.9654 372.591 14.1375 372.378 14.1375H371.61C371.397 14.1375 371.225 13.9654 371.225 13.7527V6.03862C371.225 5.82091 371.405 5.64662 371.623 5.65377L372.594 5.68676C372.701 5.68676 373.04 5.7016 373.04 5.87149C373.04 5.94901 372.984 6.01058 372.889 6.09635C372.809 6.16892 372.762 6.27338 372.762 6.38169H372.763ZM375.641 4.47118C375.534 4.57839 375.503 4.60973 375.503 4.6867V15.5999C375.503 17.0662 374.819 17.1916 373.238 17.2405C373.091 17.2449 372.951 17.1646 372.883 17.0338L372.442 16.1926C372.305 15.9309 372.504 15.6181 372.799 15.6296C373.09 15.6406 373.293 15.6461 373.348 15.6461C373.518 15.6461 373.904 15.6461 373.904 15.1689V4.34803C373.904 4.12372 374.095 3.94669 374.319 3.96428L375.456 4.05445C375.549 4.05445 375.794 4.10063 375.794 4.23917C375.794 4.30075 375.733 4.37772 375.641 4.47063L375.641 4.47118Z" fill="#FF0000"/>
<path d="M42.698 10.6727H45.983C46.1545 10.6727 46.3508 10.5441 46.4195 10.3869L46.5141 10.1708C46.5828 10.0136 46.6845 10.018 46.7406 10.1796L47.2024 11.5161C47.2585 11.6783 47.3437 11.6761 47.3926 11.5117L48.2019 8.76719C48.2503 8.6028 48.3086 8.6072 48.3306 8.77709L48.8814 12.9774C48.904 13.1473 48.9573 13.1506 49.0007 12.9851L49.826 9.82388C49.8694 9.65784 49.9398 9.65784 49.9832 9.82388L50.13 10.3885C50.1729 10.5545 50.3488 10.6903 50.5198 10.6903H54.2089" fill="#FF0000"/>
<path d="M42.698 10.6727H45.983C46.1545 10.6727 46.3508 10.5441 46.4195 10.3869L46.5141 10.1708C46.5828 10.0136 46.6845 10.018 46.7406 10.1796L47.2024 11.5161C47.2585 11.6783 47.3437 11.6761 47.3926 11.5117L48.2019 8.76719C48.2503 8.6028 48.3086 8.6072 48.3306 8.77709L48.8814 12.9774C48.904 13.1473 48.9573 13.1506 49.0007 12.9851L49.826 9.82388C49.8694 9.65784 49.9398 9.65784 49.9832 9.82388L50.13 10.3885C50.1729 10.5545 50.3488 10.6903 50.5198 10.6903H54.2089" stroke="#FF0000" stroke-width="0.6" stroke-linejoin="bevel"/>
</svg>
